<svg width="33" height="32" viewBox="0 0 33 32" fill="none" xmlns="http://www.w3.org/2000/svg">
<path d="M20.4999 17.3333C19.7636 17.3333 19.1666 16.7363 19.1666 15.9999C19.1666 15.2635 19.7636 14.6666 20.4999 14.6666C21.2363 14.6666 21.8333 15.2635 21.8333 15.9999C21.8333 16.7363 21.2363 17.3333 20.4999 17.3333Z" fill="#111928"/>
<path d="M16.4999 17.3333C15.7636 17.3333 15.1666 16.7363 15.1666 15.9999C15.1666 15.2635 15.7636 14.6666 16.4999 14.6666C17.2363 14.6666 17.8333 15.2635 17.8333 15.9999C17.8333 16.7363 17.2363 17.3333 16.4999 17.3333Z" fill="#111928"/>
<path d="M11.1666 15.9999C11.1666 16.7363 11.7636 17.3333 12.4999 17.3333C13.2363 17.3333 13.8333 16.7363 13.8333 15.9999C13.8333 15.2635 13.2363 14.6666 12.4999 14.6666C11.7636 14.6666 11.1666 15.2635 11.1666 15.9999Z" fill="#111928"/>
<path fill-rule="evenodd" clip-rule="evenodd" d="M16.4999 4.33325C19.7097 4.33325 22.6159 5.62959 24.7245 7.72562C25.289 8.28678 25.7967 8.90544 26.2376 9.57226C26.4738 9.92931 26.6908 10.3001 26.8872 10.6831C27.7049 12.2776 28.1666 14.0852 28.1666 15.9999C28.1666 16.1006 28.1653 16.201 28.1628 16.301C28.0031 22.6052 22.8426 27.6666 16.4999 27.6666C14.5304 27.6666 12.6724 27.1778 11.0433 26.3142L6.09056 27.6329C5.74587 27.7247 5.37839 27.6259 5.12617 27.3737C4.87394 27.1215 4.77516 26.754 4.86694 26.4093L6.18561 21.4566C5.99387 21.0949 5.82057 20.7218 5.66697 20.3386C5.12884 18.9961 4.83328 17.5313 4.83328 15.9999C4.83328 9.5566 10.0566 4.33325 16.4999 4.33325ZM25.1076 11.5957C24.9572 11.3026 24.7924 11.0182 24.6141 10.7434L24.5692 10.675C24.2037 10.1224 23.783 9.60947 23.3146 9.14396C21.5664 7.40612 19.1581 6.33325 16.4999 6.33325C11.1612 6.33325 6.83327 10.6612 6.83327 15.9999C6.83327 17.2721 7.07852 18.4846 7.52339 19.5945C7.6941 20.0204 7.89431 20.4314 8.12155 20.825C8.25386 21.0542 8.28992 21.3265 8.22183 21.5823L7.24362 25.2562L10.9176 24.278C11.1733 24.2099 11.4456 24.246 11.6748 24.3783C13.094 25.1975 14.7407 25.6666 16.4999 25.6666C21.7338 25.6666 25.9961 21.5071 26.1616 16.3135C26.1649 16.2094 26.1666 16.1048 26.1666 15.9999C26.1666 14.4133 25.7848 12.9165 25.1076 11.5957Z" fill="#111928"/>
</svg>
