<svg width="33" height="32" viewBox="0 0 33 32" fill="none" xmlns="http://www.w3.org/2000/svg">
<path d="M16.5 13.3334C16.5 14.0698 15.9031 14.6667 15.1667 14.6667C14.4303 14.6667 13.8334 14.0698 13.8334 13.3334C13.8334 12.597 14.4303 12.0001 15.1667 12.0001C15.9031 12.0001 16.5 12.597 16.5 13.3334Z" fill="#111928"/>
<path d="M20.5 13.3334C20.5 14.0698 19.9031 14.6667 19.1667 14.6667C18.4303 14.6667 17.8334 14.0698 17.8334 13.3334C17.8334 12.597 18.4303 12.0001 19.1667 12.0001C19.9031 12.0001 20.5 12.597 20.5 13.3334Z" fill="#111928"/>
<path d="M23.1667 14.6667C23.9031 14.6667 24.5 14.0698 24.5 13.3334C24.5 12.597 23.9031 12.0001 23.1667 12.0001C22.4303 12.0001 21.8334 12.597 21.8334 13.3334C21.8334 14.0698 22.4303 14.6667 23.1667 14.6667Z" fill="#111928"/>
<path fill-rule="evenodd" clip-rule="evenodd" d="M8.59264 8.39729C8.53222 8.42009 8.47314 8.44912 8.41623 8.48455C5.46829 10.3203 3.50002 13.5688 3.50002 17.2774C3.50002 18.6429 3.7674 19.949 4.254 21.1457C4.38636 21.4712 4.53488 21.7885 4.69854 22.0965L3.53461 26.406C3.4416 26.7504 3.53907 27.1182 3.79041 27.3713C4.04174 27.6245 4.40888 27.7245 4.7539 27.634L9.14069 26.4826C10.6016 27.2393 12.264 27.6667 14.0246 27.6667C16.7828 27.6667 19.2971 26.6179 21.1748 24.901C21.2055 24.8729 21.2341 24.8434 21.2604 24.8126C22.4512 24.5967 23.5796 24.2 24.6157 23.6518L29.5844 24.9747C29.929 25.0665 30.2965 24.9677 30.5487 24.7155C30.801 24.4633 30.8997 24.0958 30.808 23.7511L29.4851 18.7826L29.4914 18.7705C30.3486 17.1458 30.8334 15.2948 30.8334 13.3334C30.8334 6.89009 25.61 1.66675 19.1667 1.66675C14.4876 1.66675 10.4519 4.42131 8.59264 8.39729ZM9.50002 13.3334C9.50002 7.99466 13.8279 3.66675 19.1667 3.66675C24.5054 3.66675 28.8334 7.99466 28.8334 13.3334C28.8334 14.9631 28.4309 16.4958 27.7208 17.8405L27.7166 17.8485L27.531 18.2078C27.4169 18.4285 27.3891 18.6839 27.4531 18.924L28.4313 22.598L24.7573 21.6198C24.5249 21.5579 24.278 21.5819 24.0618 21.6873L23.8727 21.7795L23.8495 21.7923C22.4631 22.5616 20.8676 23.0001 19.1667 23.0001C13.8279 23.0001 9.50002 18.6722 9.50002 13.3334ZM7.60569 11.7565C7.53601 12.2722 7.50002 12.7986 7.50002 13.3334C7.50002 19.2454 11.8974 24.1303 17.5997 24.8958C16.5131 25.3906 15.3023 25.6667 14.0246 25.6667C12.4702 25.6667 11.0163 25.2582 9.76429 24.5457C9.5372 24.4165 9.26855 24.3813 9.01582 24.4476L5.91543 25.2614L6.73537 22.2255C6.80526 21.9667 6.76834 21.6908 6.6329 21.4595C6.43293 21.118 6.25682 20.7615 6.1067 20.3923C5.71555 19.4304 5.50002 18.3798 5.50002 17.2774C5.50002 15.1661 6.29257 13.2338 7.60569 11.7565Z" fill="#111928"/>
</svg>
