<svg width="33" height="32" viewBox="0 0 33 32" fill="none" xmlns="http://www.w3.org/2000/svg">
<path fill-rule="evenodd" clip-rule="evenodd" d="M9.83337 7C7.07195 7 4.83337 9.23858 4.83337 12V20C4.83337 22.7614 7.07195 25 9.83337 25H23.1667C25.9281 25 28.1667 22.7614 28.1667 20V12C28.1667 9.23858 25.9281 7 23.1667 7H9.83337ZM8.53997 9.29237C8.9316 9.10495 9.37023 9 9.83337 9H23.1667C23.6298 9 24.0685 9.10495 24.4601 9.29237C24.4512 9.30123 24.4425 9.31029 24.4339 9.31955L18.6984 15.4962C17.5115 16.7744 15.4886 16.7744 14.3017 15.4962L8.56617 9.31955C8.55757 9.31029 8.54883 9.30123 8.53997 9.29237ZM7.12544 10.7072C6.93821 11.0987 6.83337 11.5371 6.83337 12V20C6.83337 21.6569 8.17652 23 9.83337 23H23.1667C24.8236 23 26.1667 21.6569 26.1667 20V12C26.1667 11.5371 26.0619 11.0987 25.8746 10.7072L20.164 16.8571C18.1858 18.9875 14.8142 18.9875 12.8361 16.8571L7.12544 10.7072Z" fill="#111928"/>
</svg>
