<svg width="33" height="32" viewBox="0 0 33 32" fill="none" xmlns="http://www.w3.org/2000/svg">
<path d="M22.7585 2.70147C22.8878 2.75235 22.9978 2.84819 23.0712 2.97391C23.1445 3.09964 23.1771 3.24811 23.1638 3.396C23.1638 4.64617 23.1638 5.89634 23.1638 7.14304C23.1638 7.66394 22.9901 7.83757 22.5204 7.83757C21.7034 7.83757 20.8831 7.83757 20.0628 7.87924C19.8443 7.86244 19.6258 7.9129 19.4328 8.02477C19.2398 8.13664 19.0801 8.30533 18.9723 8.51125C18.8626 8.74192 18.8 8.99537 18.7889 9.25441C18.7664 10.2406 18.7889 11.2304 18.7889 12.2583H22.3693C22.8646 12.2583 23.0383 12.4458 23.0383 12.9771C23.0383 14.3315 23.0383 15.6847 23.0383 17.0367C23.0383 17.5437 22.8646 17.7312 22.395 17.7312H18.7793V28.5452C18.7793 29.1633 18.6185 29.3334 18.0491 29.3334H14.2404C13.7386 29.3334 13.5713 29.1563 13.5713 28.6181V17.7312H10.4767C10.0264 17.7312 9.83337 17.5402 9.83337 17.054C9.83337 15.665 9.83337 14.3141 9.83337 12.9424C9.83337 12.4597 10.0199 12.2479 10.4767 12.2479H13.5681V11.9527C13.5681 10.8762 13.5423 9.79961 13.5874 8.72655C13.604 7.22012 14.116 5.7691 15.0317 4.6323C15.8183 3.69101 16.8713 3.05726 18.0266 2.82995C18.3096 2.76397 18.5959 2.72231 18.879 2.66675L22.7585 2.70147Z" fill="#4DAAE9"/>
</svg>
