<svg width="33" height="32" viewBox="0 0 33 32" fill="none" xmlns="http://www.w3.org/2000/svg">
<path d="M13.706 8.00045C13.5567 8.19624 13.5 8.455 13.5 8.60606C13.5 9.15835 13.0523 9.60606 12.5 9.60606C11.9477 9.60606 11.5 9.15835 11.5 8.60606C11.5 8.11066 11.6488 7.39972 12.1159 6.78743C12.619 6.12784 13.4306 5.66667 14.5548 5.66667C15.9028 5.66667 16.9929 6.52103 17.3642 7.64999C17.759 8.85062 17.3003 10.1888 15.9624 11.0062C15.8135 11.0971 15.7026 11.2027 15.635 11.3001C15.5708 11.3929 15.5548 11.4631 15.5548 11.5152V12C15.5548 12.5523 15.107 13 14.5548 13C14.0025 13 13.5548 12.5523 13.5548 12V11.5152C13.5548 10.4569 14.264 9.70013 14.9196 9.29957C15.2499 9.09775 15.3925 8.89016 15.4526 8.73795C15.5132 8.58424 15.5142 8.42663 15.4643 8.27481C15.3604 7.95891 15.0311 7.66667 14.5548 7.66667C14.0351 7.66667 13.8193 7.85196 13.706 8.00045Z" fill="#111928"/>
<path d="M13.8333 13.6667C13.281 13.6667 12.8333 14.1144 12.8333 14.6667C12.8333 15.219 13.281 15.6667 13.8333 15.6667H15.1667C15.719 15.6667 16.1667 15.219 16.1667 14.6667C16.1667 14.1144 15.719 13.6667 15.1667 13.6667H13.8333Z" fill="#111928"/>
<path fill-rule="evenodd" clip-rule="evenodd" d="M8.5 3C5.73858 3 3.5 5.23858 3.5 8V22.5505C3.5 23.9744 5.1702 24.7426 6.25132 23.8159L9.11783 21.3589C9.80421 23.3009 11.6563 24.6923 13.8333 24.6923H21.0283C21.6385 24.6923 22.2342 24.8784 22.7359 25.2257L26.8846 28.0979C27.99 28.8632 29.5 28.0721 29.5 26.7276V13.3333C29.5 10.5719 27.2614 8.33333 24.5 8.33333H24.1667V8C24.1667 5.23858 21.9281 3 19.1667 3H8.5ZM24.1667 10.3333V14.6667C24.1667 17.4281 21.9281 19.6667 19.1667 19.6667H12.2019C11.7282 19.6667 11.2647 19.7788 10.8479 19.9896C10.9971 21.5069 12.2768 22.6923 13.8333 22.6923H21.0283C22.0453 22.6923 23.0381 23.0024 23.8743 23.5813L27.5 26.0914V13.3333C27.5 11.6765 26.1569 10.3333 24.5 10.3333H24.1667ZM5.5 8C5.5 6.34315 6.84315 5 8.5 5H19.1667C20.8235 5 22.1667 6.34315 22.1667 8V14.6667C22.1667 16.3235 20.8235 17.6667 19.1667 17.6667H12.2019C11.0084 17.6667 9.85418 18.0936 8.94796 18.8704L5.5 21.8258V8Z" fill="#111928"/>
</svg>
