<svg width="33" height="32" viewBox="0 0 33 32" fill="none" xmlns="http://www.w3.org/2000/svg">
<path fill-rule="evenodd" clip-rule="evenodd" d="M16.5 5C11.4481 5 7.3013 8.87532 6.87026 13.8154C8.39032 14.2627 9.49996 15.6684 9.49996 17.3333V20C9.49996 22.025 7.85834 23.6667 5.83329 23.6667C3.80825 23.6667 2.16663 22.025 2.16663 20V17.3333C2.16663 15.6433 3.30995 14.2204 4.86531 13.7958C5.31076 7.7592 10.3496 3 16.5 3C22.6503 3 27.6892 7.7592 28.1346 13.7958C29.69 14.2204 30.8333 15.6433 30.8333 17.3333V20C30.8333 21.6784 29.7056 23.0934 28.1666 23.5286V24C28.1666 26.025 26.525 27.6667 24.5 27.6667H19.6059C19.2891 27.8773 18.9089 28 18.5 28H14.5C13.3954 28 12.5 27.1046 12.5 26C12.5 24.8954 13.3954 24 14.5 24H18.5C19.491 24 20.3136 24.7208 20.4723 25.6667H24.5C25.4204 25.6667 26.1666 24.9205 26.1666 24V23.5286C24.6276 23.0934 23.5 21.6784 23.5 20V17.3333C23.5 15.6684 24.6096 14.2627 26.1297 13.8154C25.6986 8.87532 21.5519 5 16.5 5ZM28.8333 20C28.8333 20.9205 28.0871 21.6667 27.1666 21.6667C26.2462 21.6667 25.5 20.9205 25.5 20V17.3333C25.5 16.4129 26.2462 15.6667 27.1666 15.6667C28.0871 15.6667 28.8333 16.4129 28.8333 17.3333V20ZM5.83329 15.6667C4.91282 15.6667 4.16663 16.4129 4.16663 17.3333V20C4.16663 20.9205 4.91282 21.6667 5.83329 21.6667C6.75377 21.6667 7.49996 20.9205 7.49996 20V17.3333C7.49996 16.4129 6.75377 15.6667 5.83329 15.6667Z" fill="#111928"/>
</svg>
