<svg width="33" height="32" viewBox="0 0 33 32" fill="none" xmlns="http://www.w3.org/2000/svg">
<mask id="mask0_470_5504" style="mask-type:alpha" maskUnits="userSpaceOnUse" x="0" y="0" width="33" height="32">
<rect x="0.5" width="32" height="32" fill="#D9D9D9"/>
</mask>
<g mask="url(#mask0_470_5504)">
<path d="M26.6018 6.60764C24.5909 4.38738 21.1609 4.21761 18.9407 6.22845L14.6241 10.1379C11.9515 12.5584 11.8361 16.7186 14.3704 19.2835L14.4554 19.3695C14.8435 19.7624 15.4767 19.7662 15.8695 19.378C16.2624 18.9898 16.2662 18.3567 15.878 17.9638L15.7931 17.8778C14.0591 16.1229 14.138 13.2764 15.9666 11.6203L20.2832 7.71085C21.6848 6.44148 23.85 6.54865 25.1194 7.95022C26.3887 9.35178 26.2816 11.517 24.88 12.7864L23.2658 14.2483C22.8565 14.619 22.8252 15.2514 23.1959 15.6607C23.5667 16.0701 24.1991 16.1014 24.6084 15.7307L26.2226 14.2688C28.4428 12.2579 28.6126 8.82791 26.6018 6.60764Z" fill="#111928"/>
<path d="M6.67046 25.0948C8.64862 27.3443 12.0758 27.5642 14.3252 25.586L18.6985 21.7402C21.4062 19.359 21.5824 15.2009 19.0859 12.5992L19.0022 12.512C18.6198 12.1135 17.9868 12.1004 17.5883 12.4828C17.1898 12.8652 17.1768 13.4982 17.5592 13.8967L17.6428 13.9839C19.351 15.7641 19.2304 18.6091 17.3778 20.2383L13.0045 24.0842C11.5845 25.3329 9.42107 25.1941 8.17234 23.7741C6.92361 22.3541 7.06244 20.1907 8.48242 18.942L10.1178 17.5038C10.5325 17.1391 10.5731 16.5072 10.2084 16.0925C9.84364 15.6778 9.21178 15.6372 8.79705 16.0019L7.16167 17.4401C4.91223 19.4182 4.69231 22.8454 6.67046 25.0948Z" fill="#111928"/>
</g>
</svg>
