<svg width="33" height="32" viewBox="0 0 33 32" fill="none" xmlns="http://www.w3.org/2000/svg">
<path d="M16.7538 15.2745L16.8044 15.2585C16.855 15.3357 16.9058 15.4133 16.9484 15.4905L17.2172 15.9724C17.5882 16.6381 17.9589 17.3031 18.3348 17.9646C18.4624 18.195 18.6077 18.4151 18.7694 18.6231C18.876 18.7583 19.0201 18.859 19.1837 18.9126C19.3474 18.9662 19.5232 18.9703 19.6891 18.9244C19.8439 18.8919 19.9843 18.8112 20.0902 18.6938C20.196 18.5764 20.2619 18.4284 20.2783 18.2712C20.3081 18.1093 20.3232 17.9452 20.3237 17.7806V12.8937C20.3255 12.7081 20.3058 12.5229 20.265 12.3418C20.2258 12.1809 20.1325 12.0383 20.0007 11.938C19.869 11.8376 19.7068 11.7856 19.5412 11.7906C19.3757 11.7956 19.2169 11.8573 19.0914 11.9654C18.9659 12.0736 18.8814 12.2215 18.852 12.3845C18.8183 12.5764 18.8004 12.7708 18.7987 12.9657V15.3358C18.7987 15.4051 18.7986 15.4718 18.772 15.6024L18.5054 15.1412C18.3611 14.8884 18.2172 14.6353 18.0733 14.3825C17.659 13.6542 17.2453 12.9268 16.8258 12.2085C16.7489 12.0589 16.6243 11.9391 16.4717 11.8681C16.3192 11.7972 16.1473 11.779 15.9833 11.8166C15.8171 11.8392 15.6616 11.9113 15.537 12.0235C15.4124 12.1357 15.3245 12.2829 15.2848 12.4458C15.2325 12.6631 15.2083 12.8862 15.2128 13.1097V17.8206C15.2105 18.0152 15.2311 18.2094 15.2741 18.3992C15.3066 18.5637 15.3972 18.7111 15.5293 18.8144C15.6615 18.9177 15.8264 18.97 15.994 18.9617C16.1616 18.9624 16.324 18.904 16.4528 18.7967C16.5815 18.6894 16.6683 18.5401 16.6978 18.3751C16.7371 18.1741 16.7549 17.9694 16.7511 17.7646C16.7538 16.9248 16.7538 16.101 16.7538 15.2745Z" fill="#65C466"/>
<path d="M23.1977 13.3976H22.8377L22.8218 14.4907H23.5149C23.6751 14.4907 23.835 14.4889 23.9946 14.4871C24.3134 14.4836 24.6313 14.48 24.9493 14.4907C25.1329 14.5064 25.304 14.5904 25.4287 14.7262C25.5534 14.8619 25.6225 15.0395 25.6225 15.2239C25.6225 15.4082 25.5534 15.5858 25.4287 15.7216C25.304 15.8573 25.1329 15.9414 24.9493 15.957H22.8298V17.2901H25.1333C25.2389 17.2779 25.346 17.2893 25.4467 17.3235C25.5475 17.3576 25.6394 17.4137 25.7159 17.4876C25.7924 17.5616 25.8515 17.6515 25.8891 17.751C25.9266 17.8506 25.9417 17.9572 25.9331 18.0632C25.9428 18.1666 25.9294 18.2708 25.8938 18.3684C25.8582 18.4659 25.8013 18.5543 25.7273 18.6271C25.6532 18.6999 25.5639 18.7552 25.4657 18.7891C25.3676 18.823 25.2631 18.8346 25.1599 18.8231H22.1153C21.5287 18.8177 21.2461 18.5405 21.1901 17.9539V13.099C21.1896 12.9038 21.2092 12.709 21.2488 12.5178C21.2734 12.3507 21.3567 12.1978 21.4837 12.0865C21.6106 11.9751 21.7731 11.9126 21.942 11.9099C23.0333 11.8939 24.1255 11.8939 25.2186 11.9099C25.3092 11.9157 25.3978 11.9393 25.4792 11.9795C25.5607 12.0197 25.6334 12.0756 25.6931 12.144C25.7529 12.2124 25.7985 12.292 25.8273 12.3781C25.8561 12.4642 25.8676 12.5552 25.8611 12.6458C25.8688 12.739 25.8572 12.8328 25.827 12.9213C25.7968 13.0098 25.7487 13.0911 25.6856 13.1602C25.6226 13.2292 25.5459 13.2846 25.4605 13.3227C25.3751 13.3608 25.2828 13.3808 25.1892 13.3816C24.5308 13.3976 23.8615 13.3976 23.1977 13.3976Z" fill="#65C466"/>
<path d="M9.41172 17.2606V12.9522C9.41163 12.7195 9.37476 12.4883 9.30243 12.2671C9.24593 12.1033 9.13246 11.9653 8.98271 11.8782C8.83296 11.791 8.65689 11.7607 8.4866 11.7925C8.32605 11.8139 8.17665 11.8863 8.06046 11.9991C7.94427 12.112 7.86745 12.2592 7.8414 12.419C7.80767 12.611 7.78985 12.8054 7.78809 13.0002V17.6525C7.78629 17.8478 7.80595 18.0427 7.84673 18.2337C7.86936 18.3908 7.94578 18.5351 8.06296 18.642C8.18014 18.749 8.33082 18.812 8.48927 18.8203C9.5237 18.8443 10.5581 18.8389 11.5899 18.8203C11.735 18.8116 11.8728 18.7542 11.9812 18.6575C12.0896 18.5607 12.1621 18.4302 12.1871 18.287C12.3391 17.7085 12.0058 17.2659 11.3873 17.2499C11.0097 17.2402 10.6093 17.2463 10.2006 17.2526C9.93974 17.2566 9.67553 17.2606 9.41172 17.2606Z" fill="#65C466"/>
<path d="M14.2823 12.8697V15.3545C14.2823 15.6313 14.2826 15.9069 14.2829 16.1821C14.2835 16.7313 14.2841 17.2789 14.2823 17.8313C14.2821 18.0111 14.2597 18.1902 14.2157 18.3645C14.1769 18.5327 14.0811 18.6822 13.9445 18.7877C13.8079 18.8932 13.639 18.948 13.4665 18.943C13.294 18.9435 13.1265 18.8851 12.9918 18.7775C12.857 18.6699 12.763 18.5195 12.7253 18.3511C12.6829 18.1765 12.6605 17.9976 12.6587 17.8179V12.9924C12.6609 12.8136 12.6769 12.6354 12.7067 12.4591C12.728 12.2887 12.8058 12.1302 12.9275 12.0089C13.0492 11.8877 13.208 11.8106 13.3785 11.79C13.5578 11.7641 13.7404 11.8037 13.8927 11.9017C14.045 11.9997 14.1569 12.1493 14.2077 12.3232C14.2578 12.501 14.283 12.6849 14.2823 12.8697Z" fill="#65C466"/>
<path fill-rule="evenodd" clip-rule="evenodd" d="M11.0162 4.29884C15.8861 2.2774 22.0974 2.39847 26.3117 6.22967C28.3256 8.06043 29.713 10.0367 30.3807 12.125C31.0535 14.2287 30.9752 16.3852 30.1536 18.5119C28.5321 22.7087 24.0602 26.6982 17.001 30.2279C16.691 30.3829 16.3229 30.3663 16.028 30.1841C15.7332 30.0019 15.5538 29.68 15.5538 29.3334V26.7998C13.6157 26.6532 11.0841 26.0768 8.78512 24.748C6.03067 23.156 3.59429 20.4671 2.98417 16.1963C2.19514 10.6731 6.15908 6.31502 11.0162 4.29884ZM11.783 6.14602C7.38012 7.97363 4.35536 11.6525 4.96407 15.9135C5.47214 19.47 7.46193 21.6732 9.78594 23.0165C12.1444 24.3796 14.8294 24.8391 16.5538 24.8391C17.1061 24.8391 17.5538 25.2868 17.5538 25.8391V27.6886C23.5749 24.4487 27.0363 21.0307 28.288 17.7911C28.9514 16.074 29.0042 14.3868 28.4758 12.7341C27.9423 11.0659 26.7963 9.37313 24.9664 7.70955C21.4932 4.55205 16.1732 4.32368 11.783 6.14602Z" fill="#65C466"/>
</svg>
