<svg width="33" height="32" viewBox="0 0 33 32" fill="none" xmlns="http://www.w3.org/2000/svg">
<path fill-rule="evenodd" clip-rule="evenodd" d="M8.22038 5.58344C9.89381 3.91282 12.5995 3.91653 14.2684 5.59456L15.4286 6.7612C17.0981 8.43991 17.0981 11.1594 15.4286 12.8381L14.3253 13.9475C14.3417 14.0896 14.4031 14.3202 14.5825 14.6583C14.8593 15.1801 15.3372 15.8021 15.9917 16.4601C16.5533 17.0248 17.1884 17.4269 17.7782 17.6563C18.2685 17.847 18.6738 17.8988 18.9589 17.8746C19.1108 17.7429 19.36 17.511 19.6642 17.1763L19.6793 17.1596L19.6952 17.1437C20.4919 16.3426 21.528 15.9221 22.5732 15.8851C23.7188 15.8445 24.8801 16.2647 25.7543 17.1437L26.921 18.3169L26.2055 19.0155C26.921 18.3169 26.9208 18.3166 26.921 18.3169L26.922 18.3179L26.923 18.319L26.9254 18.3214L26.9313 18.3275L26.947 18.3442C26.9593 18.3573 26.975 18.3745 26.9937 18.3955C27.031 18.4374 27.0804 18.495 27.1378 18.5671C27.2521 18.7105 27.4013 18.9153 27.5503 19.1713C27.8432 19.6745 28.1667 20.4295 28.1667 21.3333C28.1667 22.7411 27.2286 23.9952 26.5164 24.7717C26.1343 25.1884 25.7555 25.5329 25.4734 25.7726C25.3317 25.8931 25.2125 25.9887 25.1272 26.0554C25.0845 26.0888 25.0501 26.115 25.0254 26.1336L25.0078 26.1468C22.5124 28.1812 18.3123 28.1273 14.4352 26.2592L14.413 26.2485L14.3914 26.2368C11.3826 24.6002 8.75381 22.6272 6.63855 18.906C4.06739 14.3827 4.23733 9.5296 7.18978 6.56086L7.20019 6.55039L8.22038 5.58344ZM23.8027 24.5506L23.8046 24.5492L23.8214 24.5366C23.8374 24.5246 23.8626 24.5054 23.8958 24.4795C23.9621 24.4276 24.0597 24.3494 24.1781 24.2488C24.4163 24.0463 24.731 23.7595 25.0425 23.4199C25.7176 22.6838 26.1667 21.9254 26.1667 21.3333C26.1667 20.9037 26.0095 20.4998 25.8219 20.1775C25.7306 20.0207 25.6395 19.896 25.5735 19.8132C25.5408 19.7722 25.5151 19.7425 25.4999 19.7253L25.4873 19.7114L24.3362 18.554C23.8697 18.0849 23.2546 17.8622 22.6439 17.8838C22.0939 17.9033 21.5512 18.121 21.1275 18.5399C20.6055 19.1119 20.1695 19.4844 19.9634 19.6307L19.8104 19.7392L19.6284 19.785C18.8143 19.9896 17.8961 19.8481 17.0532 19.5203C16.1936 19.1859 15.3246 18.6256 14.5736 17.8704C13.8347 17.1275 13.2151 16.3485 12.8157 15.5956C12.4357 14.8792 12.1554 13.9961 12.4289 13.1574L12.5149 12.8937L12.7245 12.7119C12.7673 12.6748 12.8093 12.6356 12.8503 12.5944L14.0105 11.4278C14.9042 10.5292 14.9042 9.07009 14.0105 8.17153L12.8503 7.00489C11.9597 6.10937 10.518 6.10937 9.62736 7.00489L9.61695 7.01536L8.5979 7.98123C6.48604 10.1154 6.09706 13.9062 8.37728 17.9177C10.2463 21.2056 12.5348 22.9476 15.3252 24.468C18.8522 26.1599 22.1206 25.9322 23.757 24.5861L23.7793 24.5677L23.8027 24.5506Z" fill="#111928"/>
</svg>
