<svg width="33" height="32" viewBox="0 0 33 32" fill="none" xmlns="http://www.w3.org/2000/svg">
<path d="M15.2151 12.1534C14.904 12.4531 14.8334 12.7416 14.8334 12.7999C14.8334 13.3522 14.3857 13.7999 13.8334 13.7999C13.2811 13.7999 12.8334 13.3522 12.8334 12.7999C12.8334 12.0582 13.2389 11.2801 13.8273 10.7131C14.4485 10.1147 15.3534 9.66658 16.4789 9.66658C17.6043 9.66658 18.5093 10.1147 19.1304 10.7131C19.7188 11.2801 20.1244 12.0582 20.1244 12.7999C20.1244 13.4007 20.0963 15.3672 18.1833 16.1616C17.9411 16.2622 17.7467 16.3957 17.6266 16.5277C17.5143 16.6513 17.4934 16.7398 17.4941 16.8037L17.5 17.3219C17.5062 17.8742 17.0636 18.3269 16.5114 18.3332C15.9591 18.3395 15.5064 17.8968 15.5001 17.3446L15.4942 16.8264C15.4787 15.456 16.6095 14.6495 17.4163 14.3145C17.7443 14.1783 17.9019 13.965 17.9974 13.709C18.1056 13.4189 18.1244 13.0901 18.1244 12.7999C18.1244 12.7416 18.0537 12.4531 17.7427 12.1534C17.4643 11.8852 17.0466 11.6666 16.4789 11.6666C15.9112 11.6666 15.4934 11.8852 15.2151 12.1534Z" fill="#111928"/>
<path d="M17.5 19.9999C17.5 19.4476 17.0523 18.9999 16.5 18.9999C15.9478 18.9999 15.5 19.4476 15.5 19.9999V20.6666C15.5 21.2189 15.9478 21.6666 16.5 21.6666C17.0523 21.6666 17.5 21.2189 17.5 20.6666V19.9999Z" fill="#111928"/>
<path fill-rule="evenodd" clip-rule="evenodd" d="M5.01115 15.9999C5.01115 9.5645 10.1868 4.33325 16.5889 4.33325C22.991 4.33325 28.1667 9.5645 28.1667 15.9999C28.1667 22.4353 22.991 27.6666 16.5889 27.6666H4.50003C4.09145 27.6666 3.72395 27.418 3.57188 27.0388C3.41981 26.6595 3.51374 26.2259 3.80912 25.9436L7.1472 22.7535C5.80207 20.847 5.01115 18.5152 5.01115 15.9999ZM16.5889 6.33325C11.3071 6.33325 7.01115 10.6533 7.01115 15.9999C7.01115 18.3694 7.85451 20.5365 9.25448 22.217L9.85236 22.9346L6.99376 25.6666H16.5889C21.8707 25.6666 26.1667 21.3466 26.1667 15.9999C26.1667 10.6533 21.8707 6.33325 16.5889 6.33325Z" fill="#111928"/>
</svg>
