<svg width="33" height="32" viewBox="0 0 33 32" fill="none" xmlns="http://www.w3.org/2000/svg">
<path fill-rule="evenodd" clip-rule="evenodd" d="M13.8333 6.66667C12.3606 6.66667 11.1667 7.86057 11.1667 9.33333V18.6667C11.1667 20.1394 12.3606 21.3333 13.8333 21.3333H19.1667C20.6394 21.3333 21.8333 20.1394 21.8333 18.6667V9.33333C21.8333 7.86057 20.6394 6.66667 19.1667 6.66667H13.8333ZM19.1667 8.66667H13.8333C13.4651 8.66667 13.1667 8.96514 13.1667 9.33333V18.6667C13.1667 19.0349 13.4651 19.3333 13.8333 19.3333H19.1667C19.5349 19.3333 19.8333 19.0349 19.8333 18.6667V9.33333C19.8333 8.96514 19.5349 8.66667 19.1667 8.66667Z" fill="#111928"/>
<path d="M14.5 23C13.9477 23 13.5 23.4477 13.5 24C13.5 24.5523 13.9477 25 14.5 25H18.5C19.0523 25 19.5 24.5523 19.5 24C19.5 23.4477 19.0523 23 18.5 23H14.5Z" fill="#111928"/>
<path fill-rule="evenodd" clip-rule="evenodd" d="M7.5 8C7.5 5.23858 9.73858 3 12.5 3H20.5C23.2614 3 25.5 5.23858 25.5 8V24C25.5 26.7614 23.2614 29 20.5 29H12.5C9.73858 29 7.5 26.7614 7.5 24V8ZM12.5 5C10.8431 5 9.5 6.34315 9.5 8V24C9.5 25.6569 10.8431 27 12.5 27H20.5C22.1569 27 23.5 25.6569 23.5 24V8C23.5 6.34315 22.1569 5 20.5 5H12.5Z" fill="#111928"/>
</svg>
