<svg width="33" height="32" viewBox="0 0 33 32" fill="none" xmlns="http://www.w3.org/2000/svg">
<path fill-rule="evenodd" clip-rule="evenodd" d="M22.4627 26.9309C21.4384 26.2187 19.5663 24.919 17.6281 23.5836L13.8068 26.768C13.5628 26.9713 13.2368 27.0467 12.9283 26.971C12.6199 26.8953 12.3657 26.6776 12.2436 26.3844L9.07184 18.7722L4.35298 16.8847C2.95265 16.3246 2.95716 14.3407 4.36002 13.787L27.0177 4.84317C28.2201 4.36853 29.5126 5.38989 29.2626 6.69569C28.0508 13.0261 25.7549 22.8729 25.0318 25.9436C24.764 27.0809 23.4339 27.6063 22.4627 26.9309ZM5.87462 15.3393L27.1804 6.9291C26.0118 12.9122 23.9953 21.6083 23.1977 25.0061C21.0926 23.5435 16.7202 20.5133 14.1361 18.7786C13.2789 18.2032 12.1667 18.8376 12.1667 19.8314V20.9998L11.1071 18.4569L21.6345 12.8836C22.1226 12.6252 22.3088 12.02 22.0504 11.5319C21.792 11.0438 21.1868 10.8576 20.6987 11.116L9.7747 16.8993L5.87462 15.3393ZM15.916 22.4069L14.1667 23.8648V21.2129C14.7162 21.5861 15.3078 21.9901 15.916 22.4069Z" fill="#4DAAE9"/>
</svg>
