<svg width="33" height="32" viewBox="0 0 33 32" fill="none" xmlns="http://www.w3.org/2000/svg">
<path fill-rule="evenodd" clip-rule="evenodd" d="M15.3711 9.23222C14.183 8.03753 12.2567 8.03372 11.0639 9.22077L10.4257 9.82568L10.4152 9.83615C8.41399 11.8484 8.34975 15.0798 10.0106 18.0016L10.0176 18.0139L10.0249 18.026C10.2515 18.3996 10.6455 18.9894 11.1128 19.5832C11.5625 20.1545 12.1282 20.7917 12.7142 21.2287C14.2845 22.5554 16.0441 23.3339 17.6832 23.5807C19.3102 23.8257 20.9308 23.5568 22.068 22.6213L22.0903 22.6029L23.2602 21.5214L23.275 21.5065C24.4639 20.311 24.4639 18.375 23.275 17.1796L22.5498 16.4504C21.3579 15.2519 19.4231 15.2519 18.2311 16.4504L18.2153 16.4664L18.2001 16.483C18.0808 16.6144 17.9751 16.7195 17.8913 16.7979C17.7818 16.7903 17.6283 16.761 17.4348 16.6857C17.1168 16.5621 16.7637 16.3404 16.4482 16.0232C16.055 15.6278 15.7829 15.2685 15.6329 14.9858C15.5998 14.9234 15.576 14.8714 15.5588 14.8288L16.0963 14.2883C17.2852 13.0928 17.2852 11.1568 16.0963 9.96137L15.3711 9.23222ZM12.4705 10.6425C12.8805 10.2303 13.543 10.2303 13.9531 10.6425L14.6782 11.3717C15.0913 11.787 15.0913 12.4626 14.6782 12.878L13.9531 13.6071C13.934 13.6263 13.9145 13.6445 13.8946 13.6617L13.685 13.8435L13.599 14.1072C13.3804 14.7779 13.6128 15.4456 13.8661 15.923C14.1387 16.4369 14.5525 16.9533 15.0301 17.4335C15.535 17.9412 16.122 18.3211 16.7098 18.5497C17.2809 18.7718 17.9376 18.8825 18.5467 18.7293L18.7287 18.6836L18.8816 18.5751C19.0374 18.4645 19.3268 18.2146 19.6621 17.848C20.073 17.4485 20.726 17.4528 21.1318 17.8607L21.8569 18.5899C22.2658 19.0011 22.2699 19.6673 21.8692 20.0836L20.7773 21.093C20.2144 21.5433 19.2404 21.7926 17.981 21.603C16.7279 21.4143 15.2978 20.7998 13.9831 19.6825L13.9557 19.6592L13.9268 19.638C13.5521 19.3632 13.1085 18.885 12.6844 18.3462C12.2756 17.8269 11.9312 17.311 11.7423 17.0009C10.3806 14.5962 10.6643 12.4323 11.8237 11.2562L12.4601 10.653L12.4705 10.6425Z" fill="#111928"/>
<path fill-rule="evenodd" clip-rule="evenodd" d="M16.5 3C9.32032 3 3.50003 8.8203 3.50003 16C3.50003 18.1427 4.01918 20.1668 4.93919 21.9508L3.53563 27.0689C3.43888 27.4217 3.5425 27.7991 3.80581 28.0531C4.06912 28.3071 4.45009 28.397 4.79917 28.2875L9.3522 26.8602C11.4033 28.2127 13.861 29 16.5 29C23.6797 29 29.5 23.1797 29.5 16C29.5 8.8203 23.6797 3 16.5 3ZM5.50003 16C5.50003 9.92487 10.4249 5 16.5 5C22.5752 5 27.5 9.92487 27.5 16C27.5 22.0751 22.5752 27 16.5 27C14.1111 27 11.9028 26.2396 10.0999 24.9476C9.84457 24.7646 9.51805 24.7122 9.21827 24.8062L5.94891 25.8311L6.97353 22.0949C7.04279 21.8423 7.01021 21.5726 6.88277 21.3438C6.00211 19.7626 5.50003 17.9414 5.50003 16Z" fill="#111928"/>
</svg>
