<svg width="33" height="32" viewBox="0 0 33 32" fill="none" xmlns="http://www.w3.org/2000/svg">
<g clip-path="url(#clip0_467_1244)">
<mask id="mask0_467_1244" style="mask-type:alpha" maskUnits="userSpaceOnUse" x="0" y="0" width="33" height="32">
<rect x="0.5" width="32" height="32" fill="#D9D9D9"/>
</mask>
<g mask="url(#mask0_467_1244)">
<path fill-rule="evenodd" clip-rule="evenodd" d="M17.7929 7.29289C18.1834 6.90237 18.8166 6.90237 19.2071 7.29289L27.2071 15.2929C27.5976 15.6834 27.5976 16.3166 27.2071 16.7071L19.2071 24.7071C18.8166 25.0976 18.1834 25.0976 17.7929 24.7071C17.4024 24.3166 17.4024 23.6834 17.7929 23.2929L24.0858 17H6.5C5.94772 17 5.5 16.5523 5.5 16C5.5 15.4477 5.94772 15 6.5 15H24.0858L17.7929 8.70711C17.4024 8.31658 17.4024 7.68342 17.7929 7.29289Z" fill="#111928"/>
</g>
</g>
<defs>
<clipPath id="clip0_467_1244">
<rect width="32" height="32" fill="white" transform="translate(0.5)"/>
</clipPath>
</defs>
</svg>
