<svg width="33" height="32" viewBox="0 0 33 32" fill="none" xmlns="http://www.w3.org/2000/svg">
<mask id="mask0_467_1245" style="mask-type:alpha" maskUnits="userSpaceOnUse" x="0" y="0" width="33" height="32">
<rect x="0.5" width="32" height="32" fill="#D9D9D9"/>
</mask>
<g mask="url(#mask0_467_1245)">
<path fill-rule="evenodd" clip-rule="evenodd" d="M15.2071 7.29289C15.5976 7.68342 15.5976 8.31658 15.2071 8.70711L8.91421 15H26.5C27.0523 15 27.5 15.4477 27.5 16C27.5 16.5523 27.0523 17 26.5 17H8.91421L15.2071 23.2929C15.5976 23.6834 15.5976 24.3166 15.2071 24.7071C14.8166 25.0976 14.1834 25.0976 13.7929 24.7071L5.79289 16.7071C5.40237 16.3166 5.40237 15.6834 5.79289 15.2929L13.7929 7.29289C14.1834 6.90237 14.8166 6.90237 15.2071 7.29289Z" fill="#111928"/>
</g>
</svg>
