<svg width="33" height="32" viewBox="0 0 33 32" fill="none" xmlns="http://www.w3.org/2000/svg">
<mask id="mask0_467_1247" style="mask-type:alpha" maskUnits="userSpaceOnUse" x="0" y="0" width="33" height="32">
<rect x="0.5" width="32" height="32" fill="#D9D9D9"/>
</mask>
<g mask="url(#mask0_467_1247)">
<path fill-rule="evenodd" clip-rule="evenodd" d="M15.7929 5.29289C16.1834 4.90237 16.8166 4.90237 17.2071 5.29289L25.2071 13.2929C25.5976 13.6834 25.5976 14.3166 25.2071 14.7071C24.8166 15.0976 24.1834 15.0976 23.7929 14.7071L17.5 8.41421V26C17.5 26.5523 17.0523 27 16.5 27C15.9477 27 15.5 26.5523 15.5 26V8.41421L9.20711 14.7071C8.81658 15.0976 8.18342 15.0976 7.79289 14.7071C7.40237 14.3166 7.40237 13.6834 7.79289 13.2929L15.7929 5.29289Z" fill="#111928"/>
</g>
</svg>
