<svg width="33" height="32" viewBox="0 0 33 32" fill="none" xmlns="http://www.w3.org/2000/svg">
<mask id="mask0_467_1246" style="mask-type:alpha" maskUnits="userSpaceOnUse" x="0" y="0" width="33" height="32">
<rect x="0.5" width="32" height="32" fill="#D9D9D9"/>
</mask>
<g mask="url(#mask0_467_1246)">
<path fill-rule="evenodd" clip-rule="evenodd" d="M16.5 5C17.0523 5 17.5 5.44772 17.5 6V23.5858L23.7929 17.2929C24.1834 16.9024 24.8166 16.9024 25.2071 17.2929C25.5976 17.6834 25.5976 18.3166 25.2071 18.7071L17.2071 26.7071C16.8166 27.0976 16.1834 27.0976 15.7929 26.7071L7.79289 18.7071C7.40237 18.3166 7.40237 17.6834 7.79289 17.2929C8.18342 16.9024 8.81658 16.9024 9.20711 17.2929L15.5 23.5858V6C15.5 5.44772 15.9477 5 16.5 5Z" fill="#111928"/>
</g>
</svg>
