<svg width="16" height="17" viewBox="0 0 16 17" fill="none" xmlns="http://www.w3.org/2000/svg">
<mask id="mask0_6575_44910" style="mask-type:alpha" maskUnits="userSpaceOnUse" x="0" y="0" width="16" height="17">
<rect width="16" height="16" transform="matrix(-1 0 0 1 16 0.5)" fill="#D9D9D9"/>
</mask>
<g mask="url(#mask0_6575_44910)">
<path fill-rule="evenodd" clip-rule="evenodd" d="M8.14645 3.14645C7.95118 3.34171 7.95118 3.65829 8.14645 3.85355L12.7929 8.5L8.14645 13.1464C7.95118 13.3417 7.95118 13.6583 8.14645 13.8536C8.34171 14.0488 8.65829 14.0488 8.85355 13.8536L13.8536 8.85355C14.0488 8.65829 14.0488 8.34171 13.8536 8.14645L8.85355 3.14645C8.65829 2.95118 8.34171 2.95118 8.14645 3.14645Z" fill="#111928"/>
<path fill-rule="evenodd" clip-rule="evenodd" d="M2.14645 3.14645C1.95118 3.34171 1.95118 3.65829 2.14645 3.85355L6.79289 8.5L2.14645 13.1464C1.95118 13.3417 1.95118 13.6583 2.14645 13.8536C2.34171 14.0488 2.65829 14.0488 2.85355 13.8536L7.85355 8.85355C8.04882 8.65829 8.04882 8.34171 7.85355 8.14645L2.85355 3.14645C2.65829 2.95118 2.34171 2.95118 2.14645 3.14645Z" fill="#111928"/>
</g>
</svg>
