<svg width="16" height="17" viewBox="0 0 16 17" fill="none" xmlns="http://www.w3.org/2000/svg">
<mask id="mask0_6575_44904" style="mask-type:alpha" maskUnits="userSpaceOnUse" x="0" y="0" width="16" height="17">
    <rect y="0.5" width="16" height="16" fill="#D9D9D9"/>
</mask>
<g mask="url(#mask0_6575_44904)">
    <path fill-rule="evenodd" clip-rule="evenodd" d="M7.85355 3.14645C8.04882 3.34171 8.04882 3.65829 7.85355 3.85355L3.20711 8.5L7.85355 13.1464C8.04882 13.3417 8.04882 13.6583 7.85355 13.8536C7.65829 14.0488 7.34171 14.0488 7.14645 13.8536L2.14645 8.85355C1.95118 8.65829 1.95118 8.34171 2.14645 8.14645L7.14645 3.14645C7.34171 2.95118 7.65829 2.95118 7.85355 3.14645Z" fill="#111928"/>
    <path fill-rule="evenodd" clip-rule="evenodd" d="M13.8536 3.14645C14.0488 3.34171 14.0488 3.65829 13.8536 3.85355L9.20711 8.5L13.8536 13.1464C14.0488 13.3417 14.0488 13.6583 13.8536 13.8536C13.6583 14.0488 13.3417 14.0488 13.1464 13.8536L8.14645 8.85355C7.95118 8.65829 7.95118 8.34171 8.14645 8.14645L13.1464 3.14645C13.3417 2.95118 13.6583 2.95118 13.8536 3.14645Z" fill="#111928"/>
</g>
</svg>
