<svg width="33" height="32" viewBox="0 0 33 32" fill="none" xmlns="http://www.w3.org/2000/svg">
<g>
<path fill-rule="evenodd" clip-rule="evenodd" d="M16.5 22.7465L19.1643 18.75L13.8356 18.75L16.5 22.7465ZM20.2044 19.4434L17.54 23.4399C17.0452 24.1821 15.9547 24.1821 15.4599 23.4399L12.7955 19.4434C12.2417 18.6127 12.8372 17.5 13.8356 17.5H19.1643C20.1627 17.5 20.7582 18.6127 20.2044 19.4434Z" fill="#111928"/>
</g>
<g>
<path fill-rule="evenodd" clip-rule="evenodd" d="M19.1643 13.2499L16.5 9.25342L13.8356 13.2499L19.1643 13.2499ZM20.2044 12.5566L17.54 8.56004C17.0452 7.81788 15.9547 7.81788 15.4599 8.56004L12.7955 12.5566C12.2417 13.3873 12.8372 14.4999 13.8356 14.4999H19.1643C20.1627 14.4999 20.7582 13.3873 20.2044 12.5566Z" fill="#111928"/>
</g>
</svg>
