<svg width="20" height="20" viewBox="0 0 20 20" fill="none" xmlns="http://www.w3.org/2000/svg">
<g>
    <path fill-rule="evenodd" clip-rule="evenodd" d="M4.44166 7.28334H3.33333C3.16757 7.28334 3.0086 7.21749 2.89139 7.10028C2.77418 6.98307 2.70833 6.8241 2.70833 6.65834C2.70833 6.49258 2.77418 6.33361 2.89139 6.2164C3.0086 6.09919 3.16757 6.03334 3.33333 6.03334H4.44166C4.58078 5.32443 4.96185 4.68586 5.51971 4.22684C6.07757 3.76782 6.77756 3.51685 7.49999 3.51685C8.22243 3.51685 8.92242 3.76782 9.48028 4.22684C10.0381 4.68586 10.4192 5.32443 10.5583 6.03334H16.6667C16.8324 6.03334 16.9914 6.09919 17.1086 6.2164C17.2258 6.33361 17.2917 6.49258 17.2917 6.65834C17.2917 6.8241 17.2258 6.98307 17.1086 7.10028C16.9914 7.21749 16.8324 7.28334 16.6667 7.28334H10.5583C10.4192 7.99225 10.0381 8.63082 9.48028 9.08984C8.92242 9.54886 8.22243 9.79983 7.49999 9.79983C6.77756 9.79983 6.07757 9.54886 5.51971 9.08984C4.96185 8.63082 4.58078 7.99225 4.44166 7.28334ZM8.54082 5.09876C8.23266 4.8931 7.87048 4.78334 7.49999 4.78334C7.25306 4.78334 7.00856 4.83211 6.78053 4.92686C6.5525 5.02161 6.34543 5.16046 6.17121 5.33546C5.997 5.51045 5.85906 5.71813 5.76532 5.94658C5.67159 6.17503 5.6239 6.41974 5.62499 6.66667C5.62664 7.03715 5.73801 7.39884 5.94503 7.70609C6.15206 8.01333 6.44547 8.25236 6.78822 8.39299C7.13097 8.53363 7.50771 8.56957 7.87087 8.49629C8.23403 8.423 8.56735 8.24377 8.82874 7.98122C9.09013 7.71867 9.26788 7.38456 9.33955 7.02108C9.41123 6.65759 9.37361 6.28102 9.23146 5.9389C9.0893 5.59677 8.84898 5.30443 8.54082 5.09876ZM15.5583 12.7H16.6667C16.8324 12.7 16.9914 12.7659 17.1086 12.8831C17.2258 13.0003 17.2917 13.1592 17.2917 13.325C17.2917 13.4908 17.2258 13.6497 17.1086 13.7669C16.9914 13.8842 16.8324 13.95 16.6667 13.95H15.5583C15.4192 14.6589 15.0381 15.2975 14.4803 15.7565C13.9224 16.2155 13.2224 16.4665 12.5 16.4665C11.7776 16.4665 11.0776 16.2155 10.5197 15.7565C9.96185 15.2975 9.58078 14.6589 9.44166 13.95H3.33333C3.16757 13.95 3.0086 13.8842 2.89139 13.7669C2.77418 13.6497 2.70833 13.4908 2.70833 13.325C2.70833 13.1592 2.77418 13.0003 2.89139 12.8831C3.0086 12.7659 3.16757 12.7 3.33333 12.7H9.44166C9.58078 11.9911 9.96185 11.3525 10.5197 10.8935C11.0776 10.4345 11.7776 10.1835 12.5 10.1835C13.2224 10.1835 13.9224 10.4345 14.4803 10.8935C15.0381 11.3525 15.4192 11.9911 15.5583 12.7ZM11.4574 14.8834C11.766 15.0898 12.1288 15.2 12.5 15.2C12.9958 15.2 13.4715 15.0036 13.8229 14.6538C14.1743 14.304 14.3728 13.8292 14.375 13.3333C14.3766 12.9621 14.2681 12.5988 14.0631 12.2894C13.858 11.9799 13.5658 11.7383 13.2233 11.5951C12.8809 11.4519 12.5036 11.4136 12.1393 11.485C11.7751 11.5564 11.4402 11.7343 11.1771 11.9962C10.9141 12.2581 10.7347 12.5922 10.6617 12.9561C10.5886 13.3201 10.6253 13.6975 10.7669 14.0406C10.9086 14.3837 11.1489 14.677 11.4574 14.8834Z" fill="#111928"/>
</g>
</svg>
