<svg width="33" height="32" viewBox="0 0 33 32" fill="none" xmlns="http://www.w3.org/2000/svg">
<path fill-rule="evenodd" clip-rule="evenodd" d="M14.2866 2.04191C15.605 1.09703 17.3949 1.09703 18.7133 2.04191L30.1875 10.2655C30.8029 10.7065 31.1666 11.4091 31.1666 12.1567V12.406C31.1666 13.6996 30.0977 14.7482 28.779 14.7482H28.438V24.4516C28.438 24.5173 28.4315 24.5816 28.4192 24.6438H28.818C29.6401 24.6438 30.3452 25.2191 30.4949 26.0121L31.0002 28.6889C31.1944 29.7175 30.3896 30.6666 29.3233 30.6666H3.67667C2.61039 30.6666 1.80559 29.7175 1.99975 28.6889L2.50506 26.0121C2.65476 25.2191 3.35986 24.6438 4.18198 24.6438H4.58072C4.56843 24.5816 4.562 24.5173 4.562 24.4516V14.7482H4.22091C2.90228 14.7482 1.83331 13.6996 1.83331 12.406V12.1567C1.83331 11.4091 2.19708 10.7065 2.81242 10.2655L14.2866 2.04191ZM6.60851 14.7482V24.4516C6.60851 24.5173 6.60207 24.5816 6.58978 24.6438H8.67374C8.66145 24.5816 8.65502 24.5173 8.65502 24.4516V14.7482H6.60851ZM4.22091 12.7406C4.03253 12.7406 3.87982 12.5908 3.87982 12.406V12.1567C3.87982 12.0499 3.93179 11.9495 4.0197 11.8865L15.4939 3.66298C16.0932 3.23349 16.9068 3.23348 17.506 3.66298L28.9803 11.8865C29.0682 11.9495 29.1201 12.0499 29.1201 12.1567V12.406C29.1201 12.5908 28.9674 12.7406 28.779 12.7406H4.22091ZM10.7015 14.7482V24.4516C10.7015 24.5173 10.6951 24.5816 10.6828 24.6438H15.4954C15.4832 24.5816 15.4767 24.5173 15.4767 24.4516V14.7482H10.7015ZM17.5232 14.7482V24.4516C17.5232 24.5173 17.5168 24.5816 17.5045 24.6438H22.3172C22.3049 24.5816 22.2984 24.5173 22.2984 24.4516V14.7482H17.5232ZM24.3449 14.7482V24.4516C24.3449 24.5173 24.3385 24.5816 24.3262 24.6438H26.4102C26.3979 24.5816 26.3915 24.5173 26.3915 24.4516V14.7482H24.3449ZM4.4657 26.6514L4.08671 28.659H28.9132L28.5343 26.6514H4.4657Z" fill="#111928"/>
</svg>
