<svg width="33" height="32" viewBox="0 0 33 32" fill="none" xmlns="http://www.w3.org/2000/svg">
<path fill-rule="evenodd" clip-rule="evenodd" d="M16.5 3C11.7027 3 7.81376 6.88898 7.81376 11.6863V19.2277C7.81376 19.3175 7.77752 19.4035 7.71326 19.4662L6.14509 20.9969C4.64772 22.4584 5.68248 25 7.77491 25H12.8334V25.3333C12.8334 27.3584 14.475 29 16.5 29C18.5251 29 20.1667 27.3584 20.1667 25.3333V25H25.2252C27.3176 25 28.3523 22.4584 26.855 20.9969L25.2868 19.4662C25.2225 19.4035 25.1863 19.3175 25.1863 19.2277V11.6863C25.1863 6.88898 21.2973 3 16.5 3ZM18.1667 25V25.3333C18.1667 26.2538 17.4205 27 16.5 27C15.5796 27 14.8334 26.2538 14.8334 25.3333V25H18.1667ZM25.2252 23C25.5241 23 25.6719 22.6369 25.458 22.4281L23.8898 20.8975C23.44 20.4584 23.1863 19.8563 23.1863 19.2277V11.6863C23.1863 7.99355 20.1928 5 16.5 5C12.8073 5 9.81376 7.99355 9.81376 11.6863V19.2277C9.81376 19.8563 9.5601 20.4584 9.11025 20.8975L7.54208 22.4281C7.32817 22.6369 7.476 23 7.77491 23H25.2252Z" fill="#111928"/>
</svg>
