<svg width="33" height="32" viewBox="0 0 33 32" fill="none" xmlns="http://www.w3.org/2000/svg">
<path d="M10.1667 16.0001C10.1667 15.4478 10.6144 15.0001 11.1667 15.0001H17.8333C18.3856 15.0001 18.8333 15.4478 18.8333 16.0001C18.8333 16.5523 18.3856 17.0001 17.8333 17.0001H11.1667C10.6144 17.0001 10.1667 16.5523 10.1667 16.0001Z" fill="#111928"/>
<path d="M11.1667 11.0001C10.6144 11.0001 10.1667 11.4478 10.1667 12.0001C10.1667 12.5523 10.6144 13.0001 11.1667 13.0001H17.8333C18.3856 13.0001 18.8333 12.5523 18.8333 12.0001C18.8333 11.4478 18.3856 11.0001 17.8333 11.0001H11.1667Z" fill="#111928"/>
<path fill-rule="evenodd" clip-rule="evenodd" d="M24.1943 11.6668H28.5C29.0137 11.6668 29.4439 11.2775 29.495 10.7663C29.8317 7.39973 29.495 5.39908 28.6542 4.24468C27.7462 2.99797 26.4556 2.99939 25.871 3.00003L8.49999 3.00006C8.04481 3.00006 7.58924 3.20492 7.20683 3.4882C6.80192 3.78815 6.40291 4.22951 6.05288 4.82958C5.35363 6.02832 4.83333 7.88493 4.83333 10.6668C4.83333 10.678 4.83352 10.6892 4.83389 10.7005C4.89521 12.5203 5.16035 16.8193 5.75346 20.6471H4.56578C4.05428 20.6471 3.62524 21.0331 3.57134 21.5417C3.45163 22.6714 3.44443 24.3962 3.85415 25.8833C4.05931 26.6279 4.39001 27.3913 4.93473 27.9827C5.50617 28.6031 6.28576 29.0001 7.2586 29.0001H21.3959C22.9265 29.0001 23.8943 28.1271 24.4266 27.158C24.9341 26.2342 25.0887 25.1734 25.0887 24.4706C25.0887 23.43 24.8815 20.8694 24.6681 18.2337L24.6245 17.694C24.4407 15.4194 24.2614 13.1507 24.1943 11.6668ZM27.0375 5.42212C26.7517 5.02969 26.4129 5.00006 25.8333 5.00006C25.2544 5.00006 24.952 5.18583 24.7511 5.41682C24.5142 5.6891 24.3315 6.12936 24.223 6.75442C24.1163 7.36888 24.0972 8.06498 24.1098 8.76328C24.1148 9.0414 24.1269 9.35851 24.1386 9.66678H27.5801C27.7536 7.01781 27.3747 5.88502 27.0375 5.42212ZM17.8889 27.0001H7.2586C6.88503 27.0001 6.62676 26.8676 6.40578 26.6277C6.15808 26.3588 5.9418 25.931 5.78231 25.3521C5.54971 24.5079 5.48258 23.5091 5.50363 22.6471H17.0299V23.7648C17.0299 24.5909 17.2204 25.8341 17.8352 26.9085C17.8527 26.9391 17.8706 26.9697 17.8889 27.0001ZM21.3959 27.0001C22.0196 27.0001 22.3982 26.6966 22.6737 26.1951C22.9741 25.6482 23.0887 24.9444 23.0887 24.4706C23.0887 23.5154 22.8863 21.0123 22.6662 18.2906L22.631 17.8551C22.4024 15.0268 22.1667 12.0516 22.1667 10.6668C22.1667 10.398 22.1556 10.1281 22.1428 9.81732C22.1308 9.52529 22.1173 9.19704 22.1101 8.79938C22.0968 8.06017 22.1132 7.21459 22.2525 6.41238C22.3335 5.94558 22.4619 5.458 22.6722 5.00006H8.55585C8.53287 5.00952 8.47908 5.03472 8.39732 5.09529C8.23974 5.21202 8.01374 5.43735 7.78044 5.8373C7.31405 6.63685 6.83543 8.10889 6.83333 10.65C6.89611 12.4902 7.17076 16.8732 7.77821 20.6471H18.0299C18.5822 20.6471 19.0299 21.0948 19.0299 21.6471V23.7648C19.0299 24.3504 19.176 25.2248 19.5711 25.9152C19.9379 26.5563 20.4822 27.0001 21.3959 27.0001Z" fill="#111928"/>
</svg>
