<svg width="33" height="32" viewBox="0 0 33 32" fill="none" xmlns="http://www.w3.org/2000/svg">
<path fill-rule="evenodd" clip-rule="evenodd" d="M17.1667 11.4102C14.2545 11.4102 11.9167 13.7993 11.9167 16.7179C11.9167 19.6365 14.2545 22.0256 17.1667 22.0256C20.0789 22.0256 22.4167 19.6365 22.4167 16.7179C22.4167 13.7993 20.0789 11.4102 17.1667 11.4102ZM13.9167 16.7179C13.9167 14.8784 15.3844 13.4102 17.1667 13.4102C18.949 13.4102 20.4167 14.8784 20.4167 16.7179C20.4167 18.5575 18.949 20.0256 17.1667 20.0256C15.3844 20.0256 13.9167 18.5575 13.9167 16.7179Z" fill="#111928"/>
<path fill-rule="evenodd" clip-rule="evenodd" d="M14.6541 5.66675C12.9442 5.66675 11.4066 6.70777 10.7716 8.29536C10.6013 8.72099 10.1891 9.00008 9.73066 9.00008H9.5081C6.92632 9.00008 4.83337 11.093 4.83337 13.6748V21.3334C4.83337 24.0948 7.07195 26.3334 9.83337 26.3334H24.5C27.2615 26.3334 29.5 24.0948 29.5 21.3334V13.6748C29.5 11.093 27.4071 9.00008 24.8253 9.00008H24.6028C24.1443 9.00008 23.7321 8.72099 23.5618 8.29536C22.9268 6.70777 21.3892 5.66675 19.6793 5.66675H14.6541ZM12.6285 9.03814C12.9598 8.20987 13.762 7.66675 14.6541 7.66675H19.6793C20.5714 7.66675 21.3736 8.20987 21.7049 9.03814C22.1789 10.2231 23.3265 11.0001 24.6028 11.0001H24.8253C26.3025 11.0001 27.5 12.1976 27.5 13.6748V21.3334C27.5 22.9903 26.1569 24.3334 24.5 24.3334H9.83337C8.17652 24.3334 6.83337 22.9903 6.83337 21.3334V13.6748C6.83337 12.1976 8.03089 11.0001 9.5081 11.0001H9.73066C11.0069 11.0001 12.1545 10.2231 12.6285 9.03814Z" fill="#111928"/>
</svg>
