<svg width="33" height="32" viewBox="0 0 33 32" fill="none" xmlns="http://www.w3.org/2000/svg">
<path d="M23.1667 15.9999C23.1667 15.2635 22.5697 14.6666 21.8333 14.6666C21.097 14.6666 20.5 15.2635 20.5 15.9999C20.5 16.7363 21.097 17.3333 21.8333 17.3333C22.5697 17.3333 23.1667 16.7363 23.1667 15.9999Z" fill="#111928"/>
<path d="M16.5 19.9999C17.2364 19.9999 17.8333 20.5969 17.8333 21.3333C17.8333 22.0696 17.2364 22.6666 16.5 22.6666C15.7636 22.6666 15.1667 22.0696 15.1667 21.3333C15.1667 20.5969 15.7636 19.9999 16.5 19.9999Z" fill="#111928"/>
<path d="M12.5 21.3333C12.5 20.5969 11.903 19.9999 11.1667 19.9999C10.4303 19.9999 9.83333 20.5969 9.83333 21.3333C9.83333 22.0696 10.4303 22.6666 11.1667 22.6666C11.903 22.6666 12.5 22.0696 12.5 21.3333Z" fill="#111928"/>
<path d="M16.5 14.6666C17.2364 14.6666 17.8333 15.2635 17.8333 15.9999C17.8333 16.7363 17.2364 17.3333 16.5 17.3333C15.7636 17.3333 15.1667 16.7363 15.1667 15.9999C15.1667 15.2635 15.7636 14.6666 16.5 14.6666Z" fill="#111928"/>
<path d="M12.5 15.9999C12.5 15.2635 11.903 14.6666 11.1667 14.6666C10.4303 14.6666 9.83333 15.2635 9.83333 15.9999C9.83333 16.7363 10.4303 17.3333 11.1667 17.3333C11.903 17.3333 12.5 16.7363 12.5 15.9999Z" fill="#111928"/>
<path fill-rule="evenodd" clip-rule="evenodd" d="M9.83333 1.33325C10.5697 1.33325 11.1667 1.93021 11.1667 2.66659V2.99992H15.1667V2.66659C15.1667 1.93021 15.7636 1.33325 16.5 1.33325C17.2364 1.33325 17.8333 1.93021 17.8333 2.66659V2.99992H21.8333V2.66659C21.8333 1.93021 22.4303 1.33325 23.1667 1.33325C23.903 1.33325 24.5 1.93021 24.5 2.66659V2.99992C27.2614 2.99992 29.5 5.23849 29.5 7.99992V20.2287C29.5 21.2011 29.1137 22.1338 28.4261 22.8214L23.3215 27.926C22.6339 28.6136 21.7012 28.9999 20.7288 28.9999H8.5C5.73858 28.9999 3.5 26.7613 3.5 23.9999V7.99992C3.5 5.23849 5.73858 2.99992 8.5 2.99992L8.5 2.66659C8.5 1.93021 9.09695 1.33325 9.83333 1.33325ZM17.8333 4.99992H21.8333V5.33325C21.8333 6.06963 22.4303 6.66658 23.1667 6.66658C23.903 6.66658 24.5 6.06963 24.5 5.33325V4.99992C26.1569 4.99992 27.5 6.34306 27.5 7.99992V9.66658H5.5V7.99992C5.5 6.34306 6.84315 4.99992 8.5 4.99992V5.33325C8.5 6.06963 9.09695 6.66658 9.83333 6.66658C10.5697 6.66658 11.1667 6.06963 11.1667 5.33325V4.99992H15.1667V5.33325C15.1667 6.06963 15.7636 6.66658 16.5 6.66658C17.2364 6.66658 17.8333 6.06963 17.8333 5.33325V4.99992ZM5.5 11.6666H27.5V20.2287C27.5 20.2637 27.4989 20.2985 27.4967 20.3333H25.8333C23.0719 20.3333 20.8333 22.5718 20.8333 25.3333V26.9966C20.7986 26.9988 20.7638 26.9999 20.7288 26.9999H8.5C6.84315 26.9999 5.5 25.6568 5.5 23.9999V11.6666ZM22.8333 25.5857L26.0858 22.3333H25.8333C24.1765 22.3333 22.8333 23.6764 22.8333 25.3333V25.5857Z" fill="#111928"/>
</svg>
