<svg width="33" height="32" viewBox="0 0 33 32" fill="none" xmlns="http://www.w3.org/2000/svg">
<path d="M17.6469 6.33325C13.5658 6.33325 10.0723 8.76571 8.57483 12.2213L8.53651 12.3405L10.6119 11.1657C11.0925 10.8937 11.7046 11.0618 11.979 11.5411C12.2534 12.0204 12.0863 12.6295 11.6057 12.9016L7.9951 14.9452C7.08257 15.4617 5.92131 15.0194 5.58482 14.0271L4.29437 10.2216C4.11716 9.69902 4.39851 9.13342 4.92279 8.95831C5.44707 8.78321 6.01575 9.0649 6.19296 9.58749L6.783 11.3275C8.61551 7.20485 12.7947 4.33325 17.6469 4.33325C24.1768 4.33325 29.4999 9.54034 29.4999 15.9999C29.4999 22.4595 24.1768 27.6666 17.6469 27.6666C12.9265 27.6666 8.84356 24.949 6.938 21.0065C6.69766 20.5093 6.90592 19.9113 7.40317 19.671C7.90042 19.4307 8.49835 19.6389 8.73869 20.1362C10.3168 23.4012 13.7085 25.6666 17.6469 25.6666C23.105 25.6666 27.4999 21.3224 27.4999 15.9999C27.4999 10.6774 23.105 6.33325 17.6469 6.33325Z" fill="#111928"/>
<path d="M17.6474 8.90454C18.1997 8.90454 18.6474 9.35226 18.6474 9.90454V15.5805L22.9996 19.858C23.3935 20.2451 23.399 20.8783 23.0119 21.2722C22.6248 21.6661 21.9916 21.6715 21.5977 21.2844L16.9464 16.713C16.7552 16.525 16.6474 16.268 16.6474 15.9998V9.90454C16.6474 9.35226 17.0951 8.90454 17.6474 8.90454Z" fill="#111928"/>
</svg>
