<svg width="33" height="32" viewBox="0 0 33 32" fill="none" xmlns="http://www.w3.org/2000/svg">
<path d="M17.8333 9.33333C17.8333 10.0697 17.2364 10.6667 16.5 10.6667C15.7636 10.6667 15.1667 10.0697 15.1667 9.33333C15.1667 8.59695 15.7636 8 16.5 8C17.2364 8 17.8333 8.59695 17.8333 9.33333Z" fill="#111928"/>
<path d="M15.1667 13.3333C15.1667 12.597 15.7636 12 16.5 12C17.2364 12 17.8333 12.597 17.8333 13.3333V22.6667C17.8333 23.403 17.2364 24 16.5 24C15.7636 24 15.1667 23.403 15.1667 22.6667V13.3333Z" fill="#111928"/>
<path fill-rule="evenodd" clip-rule="evenodd" d="M16.5 3C9.3203 3 3.5 8.8203 3.5 16C3.5 23.1797 9.3203 29 16.5 29C23.6797 29 29.5 23.1797 29.5 16C29.5 8.8203 23.6797 3 16.5 3ZM5.5 16C5.5 9.92487 10.4249 5 16.5 5C22.5751 5 27.5 9.92487 27.5 16C27.5 22.0751 22.5751 27 16.5 27C10.4249 27 5.5 22.0751 5.5 16Z" fill="#111928"/>
</svg>
