<svg width="33" height="32" viewBox="0 0 33 32" fill="none" xmlns="http://www.w3.org/2000/svg">
<path fill-rule="evenodd" clip-rule="evenodd" d="M16.5 8.33333C13.7385 8.33333 11.5 10.5719 11.5 13.3333C11.5 16.0948 13.7385 18.3333 16.5 18.3333C19.2614 18.3333 21.5 16.0948 21.5 13.3333C21.5 10.5719 19.2614 8.33333 16.5 8.33333ZM13.5 13.3333C13.5 11.6765 14.8431 10.3333 16.5 10.3333C18.1568 10.3333 19.5 11.6765 19.5 13.3333C19.5 14.9902 18.1568 16.3333 16.5 16.3333C14.8431 16.3333 13.5 14.9902 13.5 13.3333Z" fill="#111928"/>
<path fill-rule="evenodd" clip-rule="evenodd" d="M16.5 3C10.8276 3 6.16663 7.44319 6.16663 13C6.16663 13.8241 6.21672 14.6745 6.36286 15.5357L6.36591 15.5528C6.48516 16.1884 6.93683 17.788 7.84853 19.6061L7.85719 19.6234L7.86652 19.6404C9.48985 22.5875 12.1889 25.649 15.0253 28.0759C15.8749 28.8028 17.1246 28.8032 17.9745 28.076C21.4634 25.0909 24.7853 21.1089 26.1044 17.5473C26.6762 16.0034 26.8333 14.4604 26.8333 13C26.8333 7.44319 22.1723 3 16.5 3ZM8.16663 13C8.16663 8.61569 11.863 5 16.5 5C21.1369 5 24.8333 8.61569 24.8333 13C24.8333 14.3206 24.6902 15.607 24.2289 16.8527C23.0783 19.9592 20.0423 23.6746 16.6742 26.5564C16.5731 26.6428 16.4269 26.643 16.3256 26.5562C13.6212 24.2423 11.1053 21.3678 9.62769 18.6924C8.80497 17.0472 8.41862 15.6399 8.33313 15.1921C8.21168 14.4724 8.16663 13.7415 8.16663 13Z" fill="#111928"/>
</svg>
