<svg width="16" height="16" viewBox="0 0 16 16" fill="none" xmlns="http://www.w3.org/2000/svg">
<path d="M8.49998 10.5697C8.98862 10.372 9.33331 9.8929 9.33331 9.33333C9.33331 8.59695 8.73636 8 7.99998 8C7.2636 8 6.66665 8.59695 6.66665 9.33333C6.66665 9.8929 7.01134 10.372 7.49998 10.5697V11.3333C7.49998 11.6095 7.72384 11.8333 7.99998 11.8333C8.27612 11.8333 8.49998 11.6095 8.49998 11.3333V10.5697Z" fill="#853291"/>
<path fill-rule="evenodd" clip-rule="evenodd" d="M4.83331 5.55001V4.66667C4.83331 2.91776 6.25108 1.5 7.99998 1.5C9.74888 1.5 11.1666 2.91777 11.1666 4.66667V5.55001C12.3078 5.78164 13.1666 6.79052 13.1666 8V11.3333C13.1666 12.714 12.0474 13.8333 10.6666 13.8333H5.33331C3.9526 13.8333 2.83331 12.714 2.83331 11.3333V8C2.83331 6.79052 3.69219 5.78164 4.83331 5.55001ZM5.83331 4.66667C5.83331 3.47005 6.80336 2.5 7.99998 2.5C9.1966 2.5 10.1666 3.47005 10.1666 4.66667V5.5H5.83331V4.66667ZM10.6666 6.5C11.4951 6.5 12.1666 7.17157 12.1666 8V11.3333C12.1666 12.1618 11.4951 12.8333 10.6666 12.8333H5.33331C4.50489 12.8333 3.83331 12.1618 3.83331 11.3333V8C3.83331 7.17157 4.50489 6.5 5.33331 6.5H10.6666Z" fill="#853291"/>
</svg>
