<svg width="33" height="32" viewBox="0 0 33 32" fill="none" xmlns="http://www.w3.org/2000/svg">
<path d="M22.2451 10.3132H24.2083C24.3983 10.3132 24.5461 10.4911 24.5672 10.6468V11.959C24.5672 12.1592 24.4195 12.3149 24.2295 12.3149H22.3506C22.2115 12.3149 22.0755 12.3008 21.9438 12.274C22.0828 12.5674 22.161 12.8983 22.161 13.2493V14.139C22.161 14.8062 21.6332 15.3622 20.9999 15.3622H20.7466C20.4721 15.3622 20.2399 15.1176 20.2399 14.8284V13.1381C20.2399 13.0936 20.1977 13.0491 20.1555 13.0491H18.1922C18.0233 13.0714 17.8544 12.8935 17.8333 12.7155V11.4033C17.8333 11.2031 17.9811 11.0474 18.1711 11.0474H20.0499C20.189 11.0474 20.325 11.0615 20.4568 11.0883C20.3178 10.7949 20.2395 10.464 20.2395 10.113V9.22334C20.2395 8.55611 20.7673 8.00008 21.4006 8.00008H21.654C21.9284 8.00008 22.1606 8.24473 22.1606 8.53387V10.2242C22.1606 10.2687 22.2028 10.3132 22.2451 10.3132Z" fill="#111928"/>
<path fill-rule="evenodd" clip-rule="evenodd" d="M18.3529 20.7772C18.3529 20.7772 18.324 22.3594 18.815 23.3635C19.3926 25.037 16.0135 23.8199 16.0424 23.8199C15.6959 23.6678 15.3782 23.6982 15.0027 23.9112C13.2121 24.9153 11.5081 24.7327 10.0352 23.3939C9.11099 22.542 8.6489 21.4162 8.53338 20.1382C8.38897 18.6473 8.70666 17.2476 9.60197 16.0609C10.324 15.1177 11.306 14.6308 12.4612 14.5091C13.241 14.4178 13.963 14.57 14.685 14.8438H14.7139C14.8005 14.9047 14.8872 14.9351 14.9738 14.9655C15.6092 15.209 15.898 14.996 15.9847 14.9047L16.0135 14.8743C16.3601 14.5091 16.8511 14.357 17.3421 14.5091C17.7175 14.6004 17.9774 14.8743 18.1507 15.1785C18.2951 15.3915 18.3529 15.6349 18.3529 15.9088V20.7772ZM10.8439 19.6818C10.9016 21.6596 12.75 22.9375 14.5695 22.0247C15.5514 21.5379 15.9269 20.5946 15.9269 19.4992V19.1341C15.8403 18.0996 15.3493 17.278 14.4251 16.9129C13.472 16.5173 12.4901 16.5782 11.6814 17.3693C11.0171 18.0083 10.815 18.769 10.8439 19.6818Z" fill="#111928"/>
<path fill-rule="evenodd" clip-rule="evenodd" d="M8.49996 1.66675C5.00216 1.66675 2.16663 4.50228 2.16663 8.00008V24.0001C2.16663 27.4979 5.00216 30.3334 8.49996 30.3334H24.5C27.9978 30.3334 30.8333 27.4979 30.8333 24.0001V8.00008C30.8333 4.50228 27.9978 1.66675 24.5 1.66675H8.49996ZM4.16663 8.00008C4.16663 5.60685 6.10673 3.66675 8.49996 3.66675H24.5C26.8932 3.66675 28.8333 5.60685 28.8333 8.00008V24.0001C28.8333 26.3933 26.8932 28.3334 24.5 28.3334H8.49996C6.10673 28.3334 4.16663 26.3933 4.16663 24.0001V8.00008Z" fill="#111928"/>
</svg>
