<svg width="33" height="32" viewBox="0 0 33 32" fill="none" xmlns="http://www.w3.org/2000/svg">
<path fill-rule="evenodd" clip-rule="evenodd" d="M16.5001 3C13.0023 3 10.1667 5.83553 10.1667 9.33333C10.1667 12.1455 11.9989 14.5272 14.5321 15.3547C15.1528 15.5574 15.8147 15.6667 16.5001 15.6667C17.1855 15.6667 17.8473 15.5574 18.468 15.3547C21.0012 14.5272 22.8334 12.1455 22.8334 9.33333C22.8334 5.83553 19.9979 3 16.5001 3ZM12.1667 9.33333C12.1667 6.9401 14.1068 5 16.5001 5C18.8933 5 20.8334 6.9401 20.8334 9.33333C20.8334 11.2549 19.582 12.8868 17.847 13.4535C17.4243 13.5916 16.9719 13.6667 16.5001 13.6667C16.0282 13.6667 15.5758 13.5916 15.1531 13.4535C13.4181 12.8868 12.1667 11.2549 12.1667 9.33333Z" fill="#111928"/>
<path fill-rule="evenodd" clip-rule="evenodd" d="M16.5001 16.3333C12.8578 16.3333 10.1557 17.3082 8.18229 18.8018C6.45683 20.1077 5.34469 21.7675 4.63862 23.3886C4.00454 24.8444 4.3419 26.2943 5.20788 27.3386C6.05557 28.3608 7.40266 29 8.86116 29H24.5001C25.8733 29 27.1619 28.4286 27.9934 27.4799C28.8464 26.5068 29.2025 25.14 28.6412 23.7322C27.925 21.9357 26.6899 20.0746 24.7052 18.6643C22.7143 17.2496 20.0316 16.3333 16.5001 16.3333ZM9.38925 20.3965C10.9696 19.2005 13.2326 18.3333 16.5001 18.3333C19.6712 18.3333 21.9364 19.1503 23.5468 20.2946C25.1633 21.4433 26.183 22.9668 26.7834 24.4729C27.0403 25.1172 26.8948 25.6991 26.4894 26.1617C26.0625 26.6487 25.336 27 24.5001 27H8.86116C7.97444 27 7.20041 26.6082 6.74741 26.0619C6.31271 25.5377 6.1698 24.8816 6.47224 24.1873C7.07164 22.8111 7.99247 21.4537 9.38925 20.3965Z" fill="#111928"/>
</svg>
