<svg width="33" height="32" viewBox="0 0 33 32" fill="none" xmlns="http://www.w3.org/2000/svg">
<path d="M17.5 21.1395C18.4772 20.7439 19.1666 19.7858 19.1666 18.6667C19.1666 17.1939 17.9727 16 16.5 16C15.0272 16 13.8333 17.1939 13.8333 18.6667C13.8333 19.7858 14.5227 20.7439 15.5 21.1395V22.6667C15.5 23.219 15.9477 23.6667 16.5 23.6667C17.0522 23.6667 17.5 23.219 17.5 22.6667V21.1395Z" fill="#111928"/>
<path fill-rule="evenodd" clip-rule="evenodd" d="M10.1666 11.1V9.33333C10.1666 5.83553 13.0022 3 16.5 3C19.9978 3 22.8333 5.83553 22.8333 9.33333V11.1C25.1155 11.5633 26.8333 13.581 26.8333 16V22.6667C26.8333 25.4281 24.5947 27.6667 21.8333 27.6667H11.1666C8.4052 27.6667 6.16663 25.4281 6.16663 22.6667V16C6.16663 13.581 7.88439 11.5633 10.1666 11.1ZM12.1666 9.33333C12.1666 6.9401 14.1067 5 16.5 5C18.8932 5 20.8333 6.9401 20.8333 9.33333V11H12.1666V9.33333ZM21.8333 13C23.4901 13 24.8333 14.3431 24.8333 16V22.6667C24.8333 24.3235 23.4901 25.6667 21.8333 25.6667H11.1666C9.50977 25.6667 8.16663 24.3235 8.16663 22.6667V16C8.16663 14.3431 9.50977 13 11.1666 13H21.8333Z" fill="#111928"/>
</svg>
