<svg width="33" height="32" viewBox="0 0 33 32" fill="none" xmlns="http://www.w3.org/2000/svg">
<path fill-rule="evenodd" clip-rule="evenodd" d="M19.1667 8.33325C17.1416 8.33325 15.5 9.97487 15.5 11.9999C15.5 14.025 17.1416 15.6666 19.1667 15.6666C21.1917 15.6666 22.8333 14.025 22.8333 11.9999C22.8333 9.97487 21.1917 8.33325 19.1667 8.33325ZM17.5 11.9999C17.5 11.0794 18.2462 10.3333 19.1667 10.3333C20.0871 10.3333 20.8333 11.0794 20.8333 11.9999C20.8333 12.9204 20.0871 13.6666 19.1667 13.6666C18.2462 13.6666 17.5 12.9204 17.5 11.9999Z" fill="#111928"/>
<path fill-rule="evenodd" clip-rule="evenodd" d="M8.5 4.33325C5.73858 4.33325 3.5 6.57183 3.5 9.33325V22.6666C3.5 25.428 5.73858 27.6666 8.5 27.6666H24.5C27.2614 27.6666 29.5 25.428 29.5 22.6666V9.33325C29.5 6.57183 27.2614 4.33325 24.5 4.33325H8.5ZM5.5 22.6666V20.0483L8.15966 17.2487C9.38777 15.9559 11.4657 16.0134 12.6205 17.372L19.6709 25.6666H8.5C6.84315 25.6666 5.5 24.3234 5.5 22.6666ZM18.9317 21.7089L22.2958 25.6666H24.5C25.6684 25.6666 26.6808 24.9987 27.1761 24.0238L24.3686 20.9043C23.2791 19.6938 21.4229 19.5736 20.1864 20.6335L18.9317 21.7089ZM17.6364 20.185L18.8848 19.1149C20.9456 17.3485 24.0394 17.5489 25.8552 19.5664L27.5 21.394V9.33325C27.5 7.6764 26.1569 6.33325 24.5 6.33325H8.5C6.84315 6.33325 5.5 7.6764 5.5 9.33325V17.1445L6.70966 15.8712C8.75651 13.7166 12.2197 13.8123 14.1444 16.0767L17.6364 20.185Z" fill="#111928"/>
</svg>
