<svg width="33" height="32" viewBox="0 0 33 32" fill="none" xmlns="http://www.w3.org/2000/svg">
<path fill-rule="evenodd" clip-rule="evenodd" d="M19.5083 5.88845C18.6024 3.06942 14.4531 3.06941 13.5472 5.88844L12.2166 10.0293C12.082 10.4483 11.6792 10.7341 11.2231 10.7341H6.849C3.84284 10.7341 2.57597 14.4208 4.99022 16.1434L8.89 18.9258C9.25097 19.1834 9.39901 19.6348 9.257 20.0449L7.80538 24.2369C6.83474 27.0399 10.2177 29.3621 12.6589 27.5687L15.8965 25.1902C16.2692 24.9164 16.7863 24.9164 17.159 25.1902L20.5973 27.7162C23.0109 29.4893 26.3683 27.2371 25.4716 24.4465L24.0504 20.0237C23.9218 19.6233 24.0664 19.1882 24.4127 18.9338L28.2455 16.118C30.6168 14.376 29.3357 10.7341 26.3517 10.7341H21.8324C21.3763 10.7341 20.9735 10.4483 20.8389 10.0293L19.5083 5.88845ZM15.5342 6.47893C15.8362 5.53925 17.2193 5.53925 17.5213 6.47893L18.8519 10.6198C19.2558 11.8768 20.4643 12.7341 21.8324 12.7341H26.3517C27.3464 12.7341 27.7734 13.948 26.983 14.5287L23.1502 17.3445C22.1112 18.1077 21.6774 19.413 22.0634 20.6142L23.4846 25.037C23.7835 25.9672 22.6644 26.7179 21.8598 26.1269L18.4215 23.6009C17.3035 22.7795 15.752 22.7795 14.634 23.6009L11.3964 25.9794C10.5827 26.5772 9.45502 25.8031 9.77857 24.8688L11.2302 20.6768C11.6562 19.4465 11.2121 18.0922 10.1292 17.3196L6.22941 14.5372C5.42465 13.963 5.84695 12.7341 6.849 12.7341H11.2231C12.5912 12.7341 13.7997 11.8768 14.2036 10.6198L15.5342 6.47893Z" fill="#111928"/>
</svg>
