<svg width="33" height="32" viewBox="0 0 33 32" fill="none" xmlns="http://www.w3.org/2000/svg">
<path fill-rule="evenodd" clip-rule="evenodd" d="M14.5 4.33325C9.16129 4.33325 4.83337 8.66117 4.83337 13.9999C4.83337 19.3387 9.16129 23.6666 14.5 23.6666C16.1073 23.6666 17.6229 23.2743 18.9564 22.5804L22.0677 25.6386C23.2262 26.7775 25.1046 26.7775 26.2631 25.6386C27.4216 24.4998 27.4216 22.6534 26.2631 21.5146L23.1045 18.4098C23.7835 17.0876 24.1667 15.5885 24.1667 13.9999C24.1667 8.66117 19.8388 4.33325 14.5 4.33325ZM6.83337 13.9999C6.83337 9.76574 10.2659 6.33325 14.5 6.33325C18.7342 6.33325 22.1667 9.76574 22.1667 13.9999C22.1667 18.2341 18.7342 21.6666 14.5 21.6666C10.2659 21.6666 6.83337 18.2341 6.83337 13.9999ZM21.9869 20.1152C21.5887 20.6021 21.144 21.0495 20.6595 21.4504L23.4939 24.2366C23.8648 24.6011 24.466 24.6011 24.8368 24.2366C25.2076 23.8721 25.2076 23.2811 24.8368 22.9166L21.9869 20.1152Z" fill="#111928"/>
</svg>
