<svg width="33" height="32" viewBox="0 0 33 32" fill="none" xmlns="http://www.w3.org/2000/svg">
<path fill-rule="evenodd" clip-rule="evenodd" d="M15.1086 6.45185C17.0225 4.64737 20.1667 6.00423 20.1667 8.63462V23.6517C20.1667 26.2147 17.1603 27.5974 15.2143 25.9294L8.79674 20.4287H7.16667C5.14162 20.4287 3.5 18.7871 3.5 16.762V16.0953C3.5 14.0703 5.14162 12.4287 7.16667 12.4287H8.76957L15.1086 6.45185ZM18.1667 8.63462C18.1667 7.75782 17.1186 7.30554 16.4807 7.90703L9.56376 14.4287H7.16667C6.24619 14.4287 5.5 15.1749 5.5 16.0953V16.762C5.5 17.6825 6.24619 18.4287 7.16667 18.4287H9.53659L16.5159 24.4109C17.1645 24.9669 18.1667 24.506 18.1667 23.6517V8.63462Z" fill="#111928"/>
<path d="M22.3667 12.7334C22.698 12.2916 23.3248 12.2021 23.7667 12.5334C25.0142 13.4691 25.5 15.1818 25.5 16.6668C25.5 18.1517 25.0142 19.8645 23.7667 20.8001C23.3248 21.1315 22.698 21.0419 22.3667 20.6001C22.0353 20.1583 22.1248 19.5315 22.5667 19.2001C23.0969 18.8024 23.5 17.8485 23.5 16.6668C23.5 15.4851 23.0969 14.5311 22.5667 14.1334C22.1248 13.8021 22.0353 13.1753 22.3667 12.7334Z" fill="#111928"/>
<path d="M26.5173 9.93723C26.1144 9.5595 25.4815 9.57992 25.1038 9.98283C24.7261 10.3857 24.7465 11.0186 25.1494 11.3963C28.2835 14.3346 28.2835 18.999 25.1494 21.9372C24.7465 22.315 24.7261 22.9478 25.1038 23.3507C25.4815 23.7536 26.1144 23.774 26.5173 23.3963C30.4942 19.6679 30.4942 13.6656 26.5173 9.93723Z" fill="#111928"/>
</svg>
