<svg width="33" height="32" viewBox="0 0 33 32" fill="none" xmlns="http://www.w3.org/2000/svg">
<path d="M21.9192 13.9918C22.2829 13.5761 22.2408 12.9444 21.8251 12.5807C21.4095 12.217 20.7777 12.2591 20.4141 12.6748L16.4513 17.2037L13.8737 14.6262C13.4832 14.2356 12.85 14.2356 12.4595 14.6262C12.069 15.0167 12.069 15.6498 12.4595 16.0404L15.7929 19.3737C15.9886 19.5694 16.2566 19.6753 16.5332 19.666C16.8099 19.6568 17.0703 19.5334 17.2525 19.3251L21.9192 13.9918Z" fill="#111928"/>
<path fill-rule="evenodd" clip-rule="evenodd" d="M17.4079 4.50513C16.8094 4.37687 16.1905 4.37687 15.592 4.50513L10.119 5.67791C7.81363 6.17192 6.16663 8.20924 6.16663 10.5669V17.3333C6.16663 19.8287 8.04861 24.8737 14.6661 28.2456C15.8308 28.839 17.2047 28.7979 18.3346 28.1783C25.1903 24.4185 26.8333 19.986 26.8333 17.3333V10.5669C26.8333 8.20924 25.1863 6.17192 22.8809 5.67791L17.4079 4.50513ZM16.0111 6.46073C16.3333 6.39167 16.6666 6.39167 16.9889 6.46073L22.4619 7.63352C23.8451 7.92992 24.8333 9.15231 24.8333 10.5669V17.3333C24.8333 19.1045 23.7328 22.9368 17.3729 26.4247C16.8068 26.7351 16.1328 26.7482 15.5741 26.4636C9.55055 23.3943 8.16663 18.9948 8.16663 17.3333V10.5669C8.16663 9.15231 9.15483 7.92992 10.538 7.63352L16.0111 6.46073Z" fill="#111928"/>
</svg>
