<svg width="33" height="32" viewBox="0 0 33 32" fill="none" xmlns="http://www.w3.org/2000/svg">
<path fill-rule="evenodd" clip-rule="evenodd" d="M11.2448 25.4536C10.2034 26.495 8.51494 26.495 7.47354 25.4536C6.43214 24.4122 6.43214 22.7238 7.47354 21.6824C8.51494 20.641 10.2034 20.641 11.2448 21.6824C12.2862 22.7238 12.2862 24.4122 11.2448 25.4536ZM10.302 24.5108C9.78127 25.0315 8.93705 25.0315 8.41635 24.5108C7.89565 23.9901 7.89565 23.1459 8.41635 22.6252C8.93705 22.1045 9.78127 22.1045 10.302 22.6252C10.8227 23.1459 10.8227 23.9901 10.302 24.5108Z" fill="#111928"/>
<path fill-rule="evenodd" clip-rule="evenodd" d="M29.3768 5.84161C29.7007 5.9114 29.969 6.1371 30.0933 6.44427C30.7245 8.00537 31.1438 10.7504 28.9783 12.916C26.8756 15.0186 24.5047 15.0291 23.0693 14.5974L22.1481 15.5187L28.1591 21.5297C29.591 22.9616 29.591 25.2832 28.1591 26.7151L27.2163 27.6579C25.7844 29.0898 23.4627 29.0898 22.0308 27.6579L16.0198 21.6469L15.5247 22.1421C15.9849 24.1807 15.4552 26.4391 13.8532 28.0411C11.3799 30.5144 7.36981 30.5144 4.89649 28.0411C2.42317 25.5678 2.42317 21.5577 4.89649 19.0844C6.49847 17.4824 8.75683 16.9527 10.7955 17.4129L13.6471 14.5613L10.0998 11.014C9.58964 11.324 8.97273 11.4305 8.37651 11.2966L7.08808 11.0071C6.44212 10.862 5.88822 10.4493 5.56438 9.87185L3.79035 6.70852C3.28975 5.81588 3.43019 4.70391 4.13004 3.9641L4.17558 3.91728L4.46338 3.62948C5.20319 2.92963 6.31581 2.78983 7.20845 3.29043L10.3718 5.06446C10.9492 5.3883 11.3619 5.9422 11.507 6.58816L11.7965 7.87659C11.9304 8.47277 11.8239 9.08962 11.514 9.59974L15.0613 13.1471L18.3402 9.86823C17.9085 8.43284 17.9189 6.06193 20.0216 3.9593C22.1569 1.82398 24.8576 2.20219 26.4257 2.81737C26.7327 2.93785 26.9607 3.20201 27.0348 3.52342C27.109 3.84484 27.0199 4.18216 26.7967 4.42502L24.0499 7.41333L23.9783 9.02055L25.428 9.0044L28.4758 6.09575C28.7155 5.86699 29.0529 5.77181 29.3768 5.84161ZM17.434 20.2327L20.7339 16.9329L26.7449 22.9439C27.3957 23.5947 27.3957 24.65 26.7449 25.3009L25.8021 26.2437C25.1512 26.8946 24.0959 26.8946 23.445 26.2437L17.434 20.2327ZM28.5968 8.74486L26.5237 10.7234C26.3405 10.8982 26.0977 10.9971 25.8444 10.9999L22.9433 11.0322C22.6685 11.0353 22.4045 10.925 22.2134 10.7275C22.0223 10.5299 21.9209 10.2623 21.9332 9.98773L22.0681 6.96031C22.0786 6.72522 22.1716 6.50136 22.3309 6.32811L24.1593 4.33898C23.2445 4.29432 22.2646 4.54468 21.4358 5.37351C19.6702 7.13913 20.0737 9.03253 20.3961 9.65195C20.5975 10.0391 20.5247 10.5121 20.2161 10.8207L11.7979 19.2389C11.5304 19.5065 11.1347 19.6001 10.7755 19.4808C9.25191 18.9746 7.49906 19.3103 6.31071 20.4986C4.61844 22.1909 4.61844 24.9346 6.31071 26.6269C8.00298 28.3191 10.7467 28.3191 12.439 26.6269C13.6273 25.4385 13.963 23.6857 13.4568 22.162C13.3375 21.8029 13.4311 21.4072 13.6987 21.1396L22.1169 12.7214C22.4255 12.4129 22.8985 12.34 23.2856 12.5415C23.905 12.8638 25.7984 13.2674 27.5641 11.5018C28.4028 10.663 28.649 9.66877 28.5968 8.74486ZM5.58979 5.33149C5.48421 5.43708 5.46172 5.6 5.53476 5.73024L7.30879 8.89356C7.35505 8.97606 7.43418 9.03501 7.52646 9.05574L8.81489 9.34519C8.92635 9.37023 9.04287 9.33645 9.12365 9.25567L9.75559 8.62373C9.83637 8.54295 9.87015 8.42643 9.84511 8.31496L9.55567 7.02654C9.53493 6.93426 9.47598 6.85513 9.39348 6.80886L6.23016 5.03484C6.09992 4.9618 5.937 4.98429 5.83141 5.08987L5.58979 5.33149Z" fill="#111928"/>
</svg>
