<svg width="17" height="16" viewBox="0 0 17 16" fill="none" xmlns="http://www.w3.org/2000/svg">
<path fill-rule="evenodd" clip-rule="evenodd" d="M1.66663 4.66667C1.66663 3.47005 2.63668 2.5 3.83329 2.5C5.02991 2.5 5.99996 3.47005 5.99996 4.66667V5.5H5.83329C4.45258 5.5 3.33329 6.61929 3.33329 8V11.3333C3.33329 12.714 4.45258 13.8333 5.83329 13.8333H11.1666C12.5473 13.8333 13.6666 12.714 13.6666 11.3333V8C13.6666 6.61929 12.5473 5.5 11.1666 5.5H6.99996V4.66667C6.99996 2.91777 5.58219 1.5 3.83329 1.5C2.08439 1.5 0.666626 2.91777 0.666626 4.66667V6C0.666626 6.27614 0.890484 6.5 1.16663 6.5C1.44277 6.5 1.66663 6.27614 1.66663 6V4.66667ZM6.50045 6.5H6.49996H6.49947H5.83329C5.00487 6.5 4.33329 7.17157 4.33329 8V11.3333C4.33329 12.1618 5.00487 12.8333 5.83329 12.8333H11.1666C11.9951 12.8333 12.6666 12.1618 12.6666 11.3333V8C12.6666 7.17157 11.9951 6.5 11.1666 6.5H6.50045ZM8.99996 10.5697C9.4886 10.372 9.83329 9.8929 9.83329 9.33333C9.83329 8.59695 9.23634 8 8.49996 8C7.76358 8 7.16663 8.59695 7.16663 9.33333C7.16663 9.8929 7.51132 10.372 7.99996 10.5697V11.3333C7.99996 11.6095 8.22382 11.8333 8.49996 11.8333C8.7761 11.8333 8.99996 11.6095 8.99996 11.3333V10.5697Z" fill="#853291"/>
</svg>
