<svg width="33" height="32" viewBox="0 0 33 32" fill="none" xmlns="http://www.w3.org/2000/svg">
<path fill-rule="evenodd" clip-rule="evenodd" d="M18.2059 4.66675C18.2059 4.11446 17.7582 3.66675 17.2059 3.66675C16.6536 3.66675 16.2059 4.11446 16.2059 4.66675V5.82618C11.2166 5.91257 7.99377 8.19827 6.05635 11.2426C4.1194 14.2862 3.5 18.0246 3.5 20.9413C3.5 21.3905 3.79952 21.7846 4.23233 21.9048C4.66514 22.025 5.12501 21.8419 5.3567 21.4571C5.55204 21.1327 5.96361 20.6031 6.51148 20.1656C7.06263 19.7255 7.65999 19.4499 8.25 19.4499C8.84001 19.4499 9.43737 19.7255 9.98852 20.1656C10.5364 20.6031 10.948 21.1327 11.1433 21.4571C11.3473 21.796 11.732 21.9827 12.1244 21.9335C12.5169 21.8843 12.8435 21.6083 12.9576 21.2296C12.9599 21.2239 12.9733 21.1912 13.0112 21.1314C13.0553 21.0619 13.1214 20.9736 13.2132 20.8719C13.3974 20.668 13.6603 20.4374 13.991 20.2212C14.5872 19.8313 15.3537 19.5198 16.2059 19.4602V25.3334C16.2059 26.2539 15.4597 27.0001 14.5392 27.0001H14.2255C13.305 27.0001 12.5588 26.2539 12.5588 25.3334V24.4707C12.5588 23.9184 12.1111 23.4707 11.5588 23.4707C11.0066 23.4707 10.5588 23.9184 10.5588 24.4707V25.3334C10.5588 27.3585 12.2005 29.0001 14.2255 29.0001H14.5392C16.5643 29.0001 18.2059 27.3585 18.2059 25.3334V19.8218C19.2045 20.2722 19.8826 21.0242 20.1433 21.4571C20.3473 21.796 20.732 21.9827 21.1244 21.9335C21.5169 21.8843 21.8435 21.6083 21.9576 21.2296C22.1148 20.7071 22.9003 19.4499 24.75 19.4499C26.1572 19.4499 26.7233 20.2314 27.268 20.9832C27.4264 21.2018 27.583 21.4179 27.7579 21.6115C28.0352 21.9186 28.4729 22.0232 28.8591 21.8746C29.2452 21.726 29.5 21.355 29.5 20.9413C29.5 18.0246 28.8806 14.2862 26.9436 11.2426C25.1955 8.4956 22.4007 6.36628 18.2059 5.91309V4.66675ZM5.6826 18.295C6.37834 17.8273 7.25216 17.4499 8.25 17.4499C9.45999 17.4499 10.4876 18.0048 11.2365 18.6028C11.5071 18.8188 11.7532 19.0499 11.9717 19.2807C12.2359 19.0254 12.5473 18.7756 12.8965 18.5473C13.82 17.9434 15.0697 17.4499 16.5 17.4499C18.4187 17.4499 19.894 18.3275 20.8434 19.2121C21.5942 18.3013 22.8555 17.4499 24.75 17.4499C25.8037 17.4499 26.6456 17.7709 27.3036 18.1971C27.0152 16.1896 26.3851 14.0901 25.2564 12.3164C23.6316 9.76332 20.9429 7.82365 16.5 7.82365C12.0571 7.82365 9.36842 9.76332 7.74365 12.3164C6.59651 14.119 5.96439 16.258 5.6826 18.295Z" fill="#111928"/>
</svg>
