<svg width="33" height="32" viewBox="0 0 33 32" fill="none" xmlns="http://www.w3.org/2000/svg">
<path fill-rule="evenodd" clip-rule="evenodd" d="M9.83331 7C7.07189 7 4.83331 9.23858 4.83331 12V20C4.83331 22.7614 7.07189 25 9.83331 25H17.8333C20.5469 25 22.7557 22.8382 22.8313 20.1429L24.4715 20.799C26.88 21.7624 29.5 19.9886 29.5 17.3946V14.6054C29.5 12.0114 26.88 10.2376 24.4715 11.201L22.8313 11.8571C22.7557 9.16176 20.5469 7 17.8333 7H9.83331ZM20.8333 13.3106C20.833 13.3259 20.833 13.3413 20.8333 13.3566V18.6434C20.833 18.6587 20.833 18.6741 20.8333 18.6894V20C20.8333 21.6569 19.4902 23 17.8333 23H9.83331C8.17646 23 6.83331 21.6569 6.83331 20V12C6.83331 10.3431 8.17646 9 9.83331 9H17.8333C19.4902 9 20.8333 10.3431 20.8333 12V13.3106ZM22.8333 17.9896V14.0104L25.2143 13.058C26.3091 12.6201 27.5 13.4263 27.5 14.6054V17.3946C27.5 18.5737 26.3091 19.3799 25.2143 18.942L22.8333 17.9896Z" fill="#111928"/>
</svg>
