<svg width="33" height="32" viewBox="0 0 33 32" fill="none" xmlns="http://www.w3.org/2000/svg">
<path fill-rule="evenodd" clip-rule="evenodd" d="M14.5 9.66675C12.8431 9.66675 11.5 11.0099 11.5 12.6667C11.5 14.3236 12.8431 15.6667 14.5 15.6667C16.1569 15.6667 17.5 14.3236 17.5 12.6667C17.5 11.0099 16.1569 9.66675 14.5 9.66675ZM13.5 12.6667C13.5 12.1145 13.9477 11.6667 14.5 11.6667C15.0523 11.6667 15.5 12.1145 15.5 12.6667C15.5 13.219 15.0523 13.6667 14.5 13.6667C13.9477 13.6667 13.5 13.219 13.5 12.6667Z" fill="#111928"/>
<path fill-rule="evenodd" clip-rule="evenodd" d="M21.1667 16.3334C19.5098 16.3334 18.1667 17.6766 18.1667 19.3334C18.1667 20.9903 19.5098 22.3334 21.1667 22.3334C22.8235 22.3334 24.1667 20.9903 24.1667 19.3334C24.1667 17.6766 22.8235 16.3334 21.1667 16.3334ZM20.1667 19.3334C20.1667 18.7811 20.6144 18.3334 21.1667 18.3334C21.719 18.3334 22.1667 18.7811 22.1667 19.3334C22.1667 19.8857 21.719 20.3334 21.1667 20.3334C20.6144 20.3334 20.1667 19.8857 20.1667 19.3334Z" fill="#111928"/>
<path d="M23.2071 10.6263C23.5976 11.0168 23.5976 11.65 23.2071 12.0405L14.5404 20.7072C14.1499 21.0977 13.5168 21.0977 13.1262 20.7072C12.7357 20.3167 12.7357 19.6835 13.1262 19.293L21.7929 10.6263C22.1834 10.2358 22.8166 10.2358 23.2071 10.6263Z" fill="#111928"/>
<path fill-rule="evenodd" clip-rule="evenodd" d="M8.5 5.66675C5.73858 5.66675 3.5 7.90532 3.5 10.6667V12.0001C3.5 12.5524 3.94772 13.0001 4.5 13.0001C6.15685 13.0001 7.5 14.3432 7.5 16.0001C7.5 17.6569 6.15685 19.0001 4.5 19.0001C3.94772 19.0001 3.5 19.4478 3.5 20.0001V21.3334C3.5 24.0948 5.73858 26.3334 8.5 26.3334H24.5C27.2614 26.3334 29.5 24.0948 29.5 21.3334V10.6667C29.5 7.90532 27.2614 5.66675 24.5 5.66675H8.5ZM5.5 10.6667C5.5 9.00989 6.84315 7.66675 8.5 7.66675H24.5C26.1569 7.66675 27.5 9.00989 27.5 10.6667V21.3334C27.5 22.9903 26.1569 24.3334 24.5 24.3334H8.5C6.84315 24.3334 5.5 22.9903 5.5 21.3334V20.9001C7.78224 20.4368 9.5 18.419 9.5 16.0001C9.5 13.5811 7.78224 11.5634 5.5 11.1001V10.6667Z" fill="#111928"/>
</svg>
