<svg width="33" height="32" viewBox="0 0 33 32" fill="none" xmlns="http://www.w3.org/2000/svg">
<path fill-rule="evenodd" clip-rule="evenodd" d="M7.42939 24.6142H25.5706C27.2701 24.6142 28.2837 22.7873 27.3411 21.4234L18.2704 8.29955C17.4282 7.08099 15.5718 7.08099 14.7296 8.29955L5.65898 21.4234C4.71629 22.7873 5.72995 24.6142 7.42939 24.6142ZM20.0408 7.1611C18.3564 4.72397 14.6436 4.72397 12.9592 7.1611L3.88856 20.2849C2.0032 23.0128 4.0305 26.6666 7.42939 26.6666H25.5706C28.9695 26.6666 30.9968 23.0128 29.1115 20.2849L20.0408 7.1611Z" fill="#111928"/>
<path d="M15.2994 13.3267C15.2283 12.6164 15.7861 12 16.5 12C17.2139 12 17.7717 12.6164 17.7007 13.3267L17.233 18.0033C17.1954 18.3799 16.8785 18.6667 16.5 18.6667C16.1216 18.6667 15.8047 18.3799 15.767 18.0033L15.2994 13.3267Z" fill="#111928"/>
<circle cx="16.5" cy="21.3333" r="1.33333" fill="#111928"/>
</svg>
