<svg width="33" height="32" viewBox="0 0 33 32" fill="none" xmlns="http://www.w3.org/2000/svg">
<path fill-rule="evenodd" clip-rule="evenodd" d="M9.78579 24.1108C10.4054 26.1681 12.3147 27.6667 14.5741 27.6667H23.1667C25.9281 27.6667 28.1667 25.4281 28.1667 22.6667V12.8889C28.1667 10.1775 26.0085 7.97018 23.3162 7.89107C22.8613 5.85501 21.0435 4.33325 18.8703 4.33325H9.83325C7.07182 4.33325 4.83325 6.57183 4.83325 9.33325V19.111C4.83325 21.8566 7.04622 24.0853 9.78579 24.1108ZM21.2228 7.88888H14.5741C11.8126 7.88888 9.57406 10.1275 9.57406 12.8889V22.1C8.03856 21.9686 6.83325 20.6806 6.83325 19.111V9.33325C6.83325 7.6764 8.1764 6.33325 9.83325 6.33325H18.8703C19.9268 6.33325 20.8336 6.97441 21.2228 7.88888ZM11.5741 12.8889C11.5741 11.232 12.9172 9.88888 14.5741 9.88888H23.1667C24.8235 9.88888 26.1667 11.232 26.1667 12.8889V22.6667C26.1667 24.3235 24.8235 25.6667 23.1667 25.6667H14.5741C12.9172 25.6667 11.5741 24.3235 11.5741 22.6667V12.8889Z" fill="#111928"/>
</svg>
