<svg width="33" height="32" viewBox="0 0 33 32" fill="none" xmlns="http://www.w3.org/2000/svg">
<path d="M16.2747 7.07528C18.4655 4.1839 22.5854 3.61591 25.4768 5.80666C28.3682 7.99742 28.9362 12.1174 26.7454 15.0088L20.477 23.2818C20.1435 23.722 20.23 24.3493 20.6702 24.6828C21.1103 25.0163 21.7376 24.9299 22.0711 24.4897L28.3395 16.2166C31.1974 12.4448 30.4564 7.07037 26.6846 4.21255C22.9128 1.35474 17.5384 2.09566 14.6806 5.86745L5.19608 18.3852C3.16739 21.0627 3.70495 24.8797 6.3942 26.8928C9.06144 28.8893 12.8403 28.3572 14.8524 25.7016L24.0206 13.6013C25.2324 12.0019 24.9182 9.72296 23.3188 8.51111C21.7194 7.29928 19.4405 7.61345 18.2286 9.21285L9.57771 20.6304C9.24422 21.0706 9.33068 21.6978 9.77087 22.0313C10.2111 22.3649 10.8383 22.2784 11.1718 21.8382L19.8227 10.4207C20.3675 9.70168 21.392 9.56045 22.111 10.1052C22.83 10.65 22.9713 11.6745 22.4265 12.3935L13.2583 24.4938C11.9105 26.2725 9.37931 26.629 7.59273 25.2917C5.79138 23.9433 5.43131 21.3865 6.7902 19.593L16.2747 7.07528Z" fill="#111928"/>
</svg>
