<svg width="33" height="32" viewBox="0 0 33 32" fill="none" xmlns="http://www.w3.org/2000/svg">
<path fill-rule="evenodd" clip-rule="evenodd" d="M21.8333 28.9999H11.1666C8.4052 28.9999 6.16663 26.7613 6.16663 23.9999V9.33325C6.16663 6.57183 8.4052 4.33325 11.1666 4.33325H18.8533C19.8411 4.33325 20.7872 4.73184 21.4772 5.43876L25.7905 9.8578C26.4591 10.5427 26.8333 11.4619 26.8333 12.419V23.9999C26.8333 26.7613 24.5947 28.9999 21.8333 28.9999ZM11.1666 26.9999H21.8333C23.4901 26.9999 24.8333 25.6568 24.8333 23.9999V12.419C24.8333 12.3903 24.8326 12.3617 24.8311 12.3333H22.5C20.4749 12.3333 18.8333 10.6916 18.8333 8.66659V6.33325L11.1666 6.33325C9.50977 6.33325 8.16663 7.6764 8.16663 9.33325L8.16663 23.9999C8.16663 25.6568 9.50977 26.9999 11.1666 26.9999ZM20.8333 7.64239V8.66659C20.8333 9.58706 21.5795 10.3333 22.5 10.3333H23.4598L20.8333 7.64239Z" fill="#111928"/>
<path fill-rule="evenodd" clip-rule="evenodd" d="M5.83333 14.6667C5.09695 14.6667 4.5 15.2637 4.5 16.0001V21.3334C4.5 22.0698 5.09695 22.6667 5.83333 22.6667H27.1667C27.903 22.6667 28.5 22.0698 28.5 21.3334V16.0001C28.5 15.2637 27.903 14.6667 27.1667 14.6667H5.83333ZM16.3993 21.2001C16.015 21.2001 15.6667 21.1307 15.3544 20.9918C15.047 20.8483 14.7804 20.6584 14.5546 20.4223C14.3336 20.1816 14.163 19.9131 14.0429 19.6168C13.9228 19.3158 13.8628 19.0057 13.8628 18.6862C13.8628 18.3575 13.9252 18.045 14.0501 17.7487C14.1799 17.4524 14.3576 17.1885 14.5834 16.957C14.814 16.7209 15.0854 16.5358 15.3977 16.4015C15.7099 16.2672 16.051 16.2001 16.4209 16.2001C16.8004 16.2001 17.1439 16.2719 17.4514 16.4154C17.7637 16.5543 18.0303 16.7441 18.2513 16.9848C18.4771 17.2256 18.65 17.4964 18.7701 17.7973C18.8902 18.0936 18.9503 18.3969 18.9503 18.707C18.9503 19.0358 18.8878 19.3483 18.7629 19.6445C18.638 19.9408 18.4602 20.207 18.2296 20.4432C17.9991 20.6746 17.7276 20.8598 17.4154 20.9987C17.1079 21.133 16.7692 21.2001 16.3993 21.2001ZM15.0662 18.7001C15.0662 18.8899 15.095 19.0751 15.1527 19.2557C15.2103 19.4316 15.2944 19.589 15.4049 19.7279C15.5202 19.8668 15.6619 19.9779 15.83 20.0612C15.9982 20.1445 16.1903 20.1862 16.4065 20.1862C16.6323 20.1862 16.8293 20.1445 16.9974 20.0612C17.1656 19.9733 17.3049 19.8575 17.4154 19.714C17.5259 19.5705 17.6075 19.4108 17.6604 19.2348C17.718 19.0543 17.7468 18.8714 17.7468 18.6862C17.7468 18.4964 17.718 18.3135 17.6604 18.1376C17.6027 17.9617 17.5162 17.8043 17.401 17.6654C17.2857 17.5219 17.1439 17.4108 16.9758 17.332C16.8077 17.2533 16.6179 17.214 16.4065 17.214C16.1807 17.214 15.9838 17.2557 15.8156 17.339C15.6523 17.4223 15.513 17.5358 15.3977 17.6793C15.2872 17.8182 15.2031 17.9779 15.1455 18.1584C15.0926 18.3344 15.0662 18.5149 15.0662 18.7001ZM9 21.1584V16.2279H10.9096C11.4717 16.2279 11.9401 16.339 12.3148 16.5612C12.6943 16.7788 12.9801 17.0751 13.1723 17.4501C13.3645 17.8205 13.4605 18.2325 13.4605 18.6862C13.4605 19.1862 13.3549 19.6214 13.1435 19.9918C12.9321 20.3621 12.6342 20.6492 12.2499 20.8529C11.8704 21.0566 11.4236 21.1584 10.9096 21.1584H9ZM12.2571 18.6862C12.2571 18.3992 12.2043 18.1469 12.0986 17.9293C11.9929 17.707 11.8392 17.5358 11.6374 17.4154C11.4356 17.2904 11.193 17.2279 10.9096 17.2279H10.1818V20.1584H10.9096C11.1978 20.1584 11.4404 20.0959 11.6374 19.9709C11.8392 19.8413 11.9929 19.6654 12.0986 19.4432C12.2043 19.2163 12.2571 18.964 12.2571 18.6862ZM19.5106 17.7695C19.3953 18.0566 19.3377 18.3506 19.3377 18.6515C19.3377 18.9663 19.3977 19.2765 19.5178 19.582C19.6427 19.883 19.8157 20.1561 20.0367 20.4015C20.2625 20.6422 20.5291 20.8367 20.8365 20.9848C21.1488 21.1283 21.4899 21.2001 21.8598 21.2001C22.1432 21.2001 22.4291 21.1561 22.7173 21.0682C23.0104 20.9756 23.2722 20.8436 23.5028 20.6723C23.7334 20.501 23.8991 20.295 24 20.0543L23.0344 19.5057C22.9671 19.6677 22.8687 19.7996 22.7389 19.9015C22.614 19.9987 22.4771 20.0705 22.3282 20.1168C22.1793 20.1631 22.0327 20.1862 21.8886 20.1862C21.6869 20.1862 21.5019 20.1469 21.3338 20.0682C21.1656 19.9848 21.0215 19.8737 20.9014 19.7348C20.7861 19.5959 20.6972 19.4362 20.6348 19.2557C20.5723 19.0751 20.5411 18.8876 20.5411 18.6932C20.5411 18.5172 20.5675 18.3413 20.6204 18.1654C20.6732 17.9895 20.7549 17.8297 20.8654 17.6862C20.9759 17.5427 21.1152 17.4293 21.2833 17.3459C21.4515 17.258 21.6484 17.214 21.8742 17.214C22.0135 17.214 22.1577 17.2348 22.3066 17.2765C22.4603 17.3135 22.5996 17.3807 22.7245 17.4779C22.8542 17.5751 22.9575 17.7117 23.0344 17.8876L23.9424 17.2765C23.7694 16.957 23.5052 16.6978 23.1497 16.4987C22.799 16.2996 22.3834 16.2001 21.903 16.2001C21.4995 16.2001 21.1392 16.2719 20.8221 16.4154C20.5051 16.5543 20.236 16.7418 20.0151 16.9779C19.7941 17.214 19.6259 17.4779 19.5106 17.7695Z" fill="#0457A5"/>
</svg>
