<svg width="33" height="32" viewBox="0 0 33 32" fill="none" xmlns="http://www.w3.org/2000/svg">
<mask id="mask0_470_1766" style="mask-type:alpha" maskUnits="userSpaceOnUse" x="0" y="0" width="33" height="32">
<rect x="0.5" width="32" height="32" fill="#D9D9D9"/>
</mask>
<g mask="url(#mask0_470_1766)">
<path fill-rule="evenodd" clip-rule="evenodd" d="M23.1884 3.90534C24.6153 2.4365 26.9287 2.4365 28.3556 3.90534C29.7825 5.37418 29.7825 7.75564 28.3556 9.22448L19.7762 18.0562L16.6511 18.786C15.0013 19.1712 13.5259 17.6524 13.9001 15.9541L14.609 12.7371L21.6189 5.52106C21.6541 5.4669 21.695 5.41546 21.7415 5.36761C21.788 5.31977 21.8379 5.2777 21.8905 5.24141L23.1884 3.90534ZM16.4051 13.7573L22.4515 7.53307L24.8315 9.9831L18.7851 16.2073L16.2151 16.8075C15.9794 16.8625 15.7687 16.6455 15.8221 16.4029L16.4051 13.7573ZM26.962 7.78992L26.2251 8.54854L23.8451 6.09851L24.582 5.3399C25.2392 4.66334 26.3048 4.66334 26.962 5.3399C27.6193 6.01645 27.6193 7.11337 26.962 7.78992Z" fill="#111928"/>
<path d="M5.5 9.33342C5.5 7.67657 6.84315 6.33342 8.5 6.33342H17.625C18.1773 6.33342 18.625 5.8857 18.625 5.33342C18.625 4.78113 18.1773 4.33342 17.625 4.33342H8.5C5.73858 4.33342 3.5 6.572 3.5 9.33342V22.6668C3.5 25.4282 5.73858 27.6668 8.5 27.6668H20.5C23.2614 27.6668 25.5 25.4282 25.5 22.6668V17.7779C25.5 17.2256 25.0523 16.7779 24.5 16.7779C23.9477 16.7779 23.5 17.2256 23.5 17.7779V22.6668C23.5 24.3236 22.1569 25.6668 20.5 25.6668H8.5C6.84315 25.6668 5.5 24.3236 5.5 22.6668V9.33342Z" fill="#111928"/>
</g>
</svg>
