<svg width="33" height="32" viewBox="0 0 33 32" fill="none" xmlns="http://www.w3.org/2000/svg">
<path d="M8.5 3C5.73858 3 3.5 5.23858 3.5 8V24C3.5 26.7614 5.73858 29 8.5 29H21.8333C24.5948 29 26.8333 26.7614 26.8333 24C26.8333 23.4477 26.3856 23 25.8333 23C25.281 23 24.8333 23.4477 24.8333 24C24.8333 25.6569 23.4902 27 21.8333 27H8.5C6.84315 27 5.5 25.6569 5.5 24V8C5.5 6.34315 6.84315 5 8.5 5H22.5C23.7887 5 24.8333 6.04467 24.8333 7.33333C24.8333 7.88562 25.281 8.33333 25.8333 8.33333C26.3856 8.33333 26.8333 7.88562 26.8333 7.33333C26.8333 4.9401 24.8932 3 22.5 3H8.5Z" fill="#111928"/>
<path d="M8.75 9C8.19772 9 7.75 9.44772 7.75 10C7.75 10.5523 8.19772 11 8.75 11H18.6667C19.219 11 19.6667 10.5523 19.6667 10C19.6667 9.44772 19.219 9 18.6667 9H8.75Z" fill="#111928"/>
<path d="M7.75 14.5C7.75 13.9477 8.19772 13.5 8.75 13.5H14.4167C14.969 13.5 15.4167 13.9477 15.4167 14.5C15.4167 15.0523 14.969 15.5 14.4167 15.5H8.75C8.19772 15.5 7.75 15.0523 7.75 14.5Z" fill="#111928"/>
<path d="M8.75 18C8.19772 18 7.75 18.4477 7.75 19C7.75 19.5523 8.19772 20 8.75 20H11.5833C12.1356 20 12.5833 19.5523 12.5833 19C12.5833 18.4477 12.1356 18 11.5833 18H8.75Z" fill="#111928"/>
<path fill-rule="evenodd" clip-rule="evenodd" d="M24.5218 10.5719C25.9486 9.1031 28.2621 9.1031 29.6889 10.5719C31.1158 12.0408 31.1158 14.4222 29.6889 15.8911L21.1095 24.7228L17.9844 25.4526C16.3347 25.8378 14.8592 24.319 15.2335 22.6207L15.9424 19.4037L22.9522 12.1877C22.9875 12.1335 23.0283 12.0821 23.0748 12.0342C23.1213 11.9864 23.1713 11.9443 23.2239 11.908L24.5218 10.5719ZM23.7848 14.1997L17.7384 20.4239L17.1554 23.0695C17.102 23.3121 17.3128 23.5291 17.5484 23.4741L20.1185 22.8739L26.1648 16.6497L23.7848 14.1997ZM27.5584 15.2151L25.1784 12.7651L25.9153 12.0065C26.5726 11.3299 27.6381 11.3299 28.2954 12.0065C28.9526 12.6831 28.9526 13.78 28.2954 14.4565L27.5584 15.2151Z" fill="#111928"/>
</svg>
