<svg width="33" height="32" viewBox="0 0 33 32" fill="none" xmlns="http://www.w3.org/2000/svg">
<path fill-rule="evenodd" clip-rule="evenodd" d="M20.5 4.66675H7.16663C6.06206 4.66675 5.16663 5.56218 5.16663 6.66675V25.3334C5.16663 26.438 6.06206 27.3334 7.16663 27.3334H18.4057C17.2268 26.1309 16.5 24.4837 16.5 22.6667C16.5 19.2098 19.1311 16.3675 22.5 16.033V6.66675C22.5 5.56218 21.6045 4.66675 20.5 4.66675ZM24.5 16.1334V6.66675C24.5 4.45761 22.7091 2.66675 20.5 2.66675H7.16663C4.95749 2.66675 3.16663 4.45761 3.16663 6.66675V25.3334C3.16663 27.5426 4.95749 29.3334 7.16663 29.3334H20.5C20.9035 29.3334 21.293 29.2737 21.6603 29.1625C22.1444 29.2743 22.6486 29.3334 23.1666 29.3334C26.8485 29.3334 29.8333 26.3486 29.8333 22.6667C29.8333 19.4415 27.5429 16.7511 24.5 16.1334ZM27.8333 22.6667C27.8333 25.2441 25.744 27.3334 23.1666 27.3334C20.5893 27.3334 18.5 25.2441 18.5 22.6667C18.5 20.0894 20.5893 18.0001 23.1666 18.0001C25.744 18.0001 27.8333 20.0894 27.8333 22.6667ZM23.1666 19.0001C23.7189 19.0001 24.1666 19.4478 24.1666 20.0001V22.2525L25.8737 23.9596C26.2643 24.3502 26.2643 24.9833 25.8737 25.3739C25.4832 25.7644 24.85 25.7644 24.4595 25.3739L22.4595 23.3739C22.272 23.1863 22.1666 22.932 22.1666 22.6667V20.0001C22.1666 19.4478 22.6143 19.0001 23.1666 19.0001ZM9.83329 9.66675C9.28101 9.66675 8.83329 10.1145 8.83329 10.6667C8.83329 11.219 9.28101 11.6667 9.83329 11.6667H17.8333C18.3856 11.6667 18.8333 11.219 18.8333 10.6667C18.8333 10.1145 18.3856 9.66675 17.8333 9.66675H9.83329ZM8.83329 16.0001C8.83329 15.4478 9.28101 15.0001 9.83329 15.0001H15.1666C15.7189 15.0001 16.1666 15.4478 16.1666 16.0001C16.1666 16.5524 15.7189 17.0001 15.1666 17.0001H9.83329C9.28101 17.0001 8.83329 16.5524 8.83329 16.0001ZM9.83329 20.3334C9.28101 20.3334 8.83329 20.7811 8.83329 21.3334C8.83329 21.8857 9.28101 22.3334 9.83329 22.3334H12.5C13.0522 22.3334 13.5 21.8857 13.5 21.3334C13.5 20.7811 13.0522 20.3334 12.5 20.3334H9.83329Z" fill="black"/>
</svg>
