<svg width="33" height="32" viewBox="0 0 33 32" fill="none" xmlns="http://www.w3.org/2000/svg">
<path d="M14.1667 17.3334C14.1667 16.7811 14.6144 16.3334 15.1667 16.3334H23.1667C23.719 16.3334 24.1667 16.7811 24.1667 17.3334C24.1667 17.8857 23.719 18.3334 23.1667 18.3334H15.1667C14.6144 18.3334 14.1667 17.8857 14.1667 17.3334Z" fill="#111928"/>
<path d="M15.1667 19.6667C14.6144 19.6667 14.1667 20.1145 14.1667 20.6667C14.1667 21.219 14.6144 21.6667 15.1667 21.6667H21.8333C22.3856 21.6667 22.8333 21.219 22.8333 20.6667C22.8333 20.1145 22.3856 19.6667 21.8333 19.6667H15.1667Z" fill="#111928"/>
<path fill-rule="evenodd" clip-rule="evenodd" d="M8.5 1.66675C5.73858 1.66675 3.5 3.90532 3.5 6.66675V21.3334C3.5 24.0948 5.73858 26.3334 8.5 26.3334H10.2667C10.73 28.6157 12.7477 30.3334 15.1667 30.3334H24.5C27.2614 30.3334 29.5 28.0948 29.5 25.3334V13.1047C29.5 12.1322 29.1137 11.1996 28.4261 10.5119L24.6548 6.74069C24.1508 6.23664 23.5151 5.8945 22.8285 5.74774C22.8317 5.71532 22.8333 5.68245 22.8333 5.6492C22.8333 3.44975 21.0503 1.66675 18.8509 1.66675H8.5ZM20.8335 5.66675L20.8333 5.6492C20.8333 4.55432 19.9458 3.66675 18.8509 3.66675H8.5C6.84315 3.66675 5.5 5.00989 5.5 6.66675V21.3334C5.5 22.9903 6.84315 24.3334 8.5 24.3334H10.1667V10.6668C10.1667 7.90533 12.4052 5.66675 15.1667 5.66675H20.8335ZM15.1667 7.66675C13.5098 7.66675 12.1667 9.0099 12.1667 10.6668V25.3334C12.1667 26.9903 13.5098 28.3334 15.1667 28.3334H24.5C26.1569 28.3334 27.5 26.9903 27.5 25.3334V13.1047C27.5 13.0697 27.4989 13.0348 27.4967 13.0001H24.5C22.475 13.0001 20.8333 11.3585 20.8333 9.33342V7.66675H15.1667ZM23.2406 8.1549L26.0858 11.0001H24.5C23.5795 11.0001 22.8333 10.2539 22.8333 9.33342V7.85592C22.9822 7.9336 23.1197 8.03401 23.2406 8.1549Z" fill="#111928"/>
</svg>
