<svg width="33" height="32" viewBox="0 0 33 32" fill="none" xmlns="http://www.w3.org/2000/svg">
<g clip-path="url(#clip0_470_1774)">
<path d="M8.83337 9.33333C8.83337 8.78105 9.28109 8.33333 9.83337 8.33333H17.8334C18.3857 8.33333 18.8334 8.78105 18.8334 9.33333C18.8334 9.88562 18.3857 10.3333 17.8334 10.3333H9.83337C9.28109 10.3333 8.83337 9.88562 8.83337 9.33333Z" fill="#111928"/>
<path d="M9.83337 12.3333C9.28109 12.3333 8.83337 12.781 8.83337 13.3333C8.83337 13.8856 9.28109 14.3333 9.83337 14.3333H15.1667C15.719 14.3333 16.1667 13.8856 16.1667 13.3333C16.1667 12.781 15.719 12.3333 15.1667 12.3333H9.83337Z" fill="#111928"/>
<path fill-rule="evenodd" clip-rule="evenodd" d="M9.83337 3C7.07195 3 4.83337 5.23858 4.83337 8V24C4.83337 26.7614 7.07195 29 9.83337 29H23.1667C25.9281 29 28.1667 26.7614 28.1667 24V8C28.1667 5.23858 25.9281 3 23.1667 3H9.83337ZM6.83337 8C6.83337 6.34315 8.17652 5 9.83337 5H20.8334V27H9.83337C8.17652 27 6.83337 25.6569 6.83337 24V8ZM22.8334 27H23.1667C24.8236 27 26.1667 25.6569 26.1667 24V8C26.1667 6.34315 24.8236 5 23.1667 5H22.8334V27Z" fill="#111928"/>
</g>
<defs>
<clipPath id="clip0_470_1774">
<rect width="32" height="32" fill="white" transform="translate(0.5)"/>
</clipPath>
</defs>
</svg>
