<svg width="33" height="32" viewBox="0 0 33 32" fill="none" xmlns="http://www.w3.org/2000/svg">
<path d="M19.1666 13.6666C19.7189 13.6666 20.1666 14.1143 20.1666 14.6666V18.8476L21.1119 17.8629C21.4944 17.4645 22.1274 17.4516 22.5258 17.8341C22.9243 18.2166 22.9372 18.8496 22.5547 19.248L19.888 22.0258C19.6995 22.2222 19.4389 22.3333 19.1666 22.3333C18.8944 22.3333 18.6338 22.2222 18.4453 22.0258L15.7786 19.248C15.3961 18.8496 15.409 18.2166 15.8074 17.8341C16.2059 17.4516 16.8389 17.4645 17.2214 17.8629L18.1666 18.8476V14.6666C18.1666 14.1143 18.6144 13.6666 19.1666 13.6666Z" fill="#111928"/>
<path d="M15.5 23.9999C15.5 23.4476 15.9477 22.9999 16.5 22.9999H21.8333C22.3856 22.9999 22.8333 23.4476 22.8333 23.9999C22.8333 24.5522 22.3856 24.9999 21.8333 24.9999H16.5C15.9477 24.9999 15.5 24.5522 15.5 23.9999Z" fill="#111928"/>
<path fill-rule="evenodd" clip-rule="evenodd" d="M8.83331 23.9999C8.83331 26.7613 11.0719 28.9999 13.8333 28.9999L24.5 28.9999C27.2614 28.9999 29.5 26.7613 29.5 23.9999L29.5 13.1045C29.5 12.132 29.1137 11.1994 28.426 10.5118L23.3215 5.40719C22.6338 4.71956 21.7012 4.33325 20.7287 4.33325H12.5C10.4749 4.33325 8.83331 5.97488 8.83331 7.99992V23.9999ZM13.8333 26.9999C12.1765 26.9999 10.8333 25.6568 10.8333 23.9999L10.8333 7.99992C10.8333 7.07944 11.5795 6.33325 12.5 6.33325L20.7287 6.33325C20.7637 6.33325 20.7986 6.33435 20.8333 6.33653V9.33325C20.8333 11.3583 22.4749 12.9999 24.5 12.9999H27.4967C27.4989 13.0346 27.5 13.0695 27.5 13.1045L27.5 23.9999C27.5 25.6568 26.1568 26.9999 24.5 26.9999L13.8333 26.9999ZM22.8333 9.33325V7.74747L26.0858 10.9999H24.5C23.5795 10.9999 22.8333 10.2537 22.8333 9.33325Z" fill="#111928"/>
<path d="M3.16669 5.33333C3.16669 4.59695 3.76364 4 4.50002 4H17.8334C18.5697 4 19.1667 4.59695 19.1667 5.33333V10.6667C19.1667 11.403 18.5697 12 17.8334 12H4.50002C3.76364 12 3.16669 11.403 3.16669 10.6667V5.33333Z" fill="#D73630"/>
<path d="M4.95331 10.6667V5.93335H6.97331C7.19998 5.93335 7.40664 5.98002 7.59331 6.07335C7.78442 6.16224 7.94886 6.28446 8.08664 6.44002C8.22442 6.59113 8.33109 6.76224 8.40664 6.95335C8.4822 7.14446 8.51998 7.34002 8.51998 7.54002C8.51998 7.81113 8.45553 8.06891 8.32664 8.31335C8.2022 8.55779 8.02664 8.75779 7.79998 8.91335C7.57775 9.06446 7.31331 9.14002 7.00664 9.14002H6.04664V10.6667H4.95331ZM6.04664 8.18668H6.93998C7.02442 8.18668 7.1022 8.16224 7.17331 8.11335C7.24442 8.06446 7.3022 7.99113 7.34664 7.89335C7.39109 7.79557 7.41331 7.67557 7.41331 7.53335C7.41331 7.38668 7.38664 7.26668 7.33331 7.17335C7.28442 7.07557 7.21997 7.00446 7.13998 6.96002C7.06442 6.91557 6.98442 6.89335 6.89997 6.89335H6.04664V8.18668Z" fill="white"/>
<path d="M9.10695 10.6667V5.93335H10.8736C11.3936 5.93335 11.827 6.04002 12.1736 6.25335C12.5247 6.46224 12.7892 6.74668 12.967 7.10668C13.1447 7.46224 13.2336 7.85779 13.2336 8.29335C13.2336 8.77335 13.1358 9.19113 12.9403 9.54668C12.7447 9.90224 12.4692 10.1778 12.1136 10.3734C11.7625 10.5689 11.3492 10.6667 10.8736 10.6667H9.10695ZM12.1203 8.29335C12.1203 8.01779 12.0714 7.77557 11.9736 7.56668C11.8758 7.35335 11.7336 7.18891 11.547 7.07335C11.3603 6.95335 11.1358 6.89335 10.8736 6.89335H10.2003V9.70668H10.8736C11.1403 9.70668 11.3647 9.64668 11.547 9.52668C11.7336 9.40224 11.8758 9.23335 11.9736 9.02002C12.0714 8.80224 12.1203 8.56002 12.1203 8.29335Z" fill="white"/>
<path d="M13.8791 10.6667V5.93335H17.0924V6.89335H14.9724V7.91335H16.7191V8.80002H14.9724V10.6667H13.8791Z" fill="white"/>
</svg>
