<svg width="33" height="32" viewBox="0 0 33 32" fill="none" xmlns="http://www.w3.org/2000/svg">
<mask id="mask0_470_2449" style="mask-type:alpha" maskUnits="userSpaceOnUse" x="0" y="0" width="33" height="32">
<rect x="0.5" width="32" height="32" fill="#D9D9D9"/>
</mask>
<g mask="url(#mask0_470_2449)">
<path d="M6.16663 8C6.16663 5.23858 8.4052 3 11.1666 3H24.5C27.2614 3 29.5 5.23858 29.5 8V24C29.5 26.7614 27.2614 29 24.5 29H11.1666C8.4052 29 6.16663 26.7614 6.16663 24V23.3333C6.16663 22.781 6.61434 22.3333 7.16663 22.3333C7.71891 22.3333 8.16663 22.781 8.16663 23.3333V24C8.16663 25.6569 9.50977 27 11.1666 27H24.5C26.1568 27 27.5 25.6569 27.5 24V8C27.5 6.34315 26.1568 5 24.5 5H11.1666C9.50977 5 8.16663 6.34315 8.16663 8V8.66667C8.16663 9.21895 7.71891 9.66667 7.16663 9.66667C6.61434 9.66667 6.16663 9.21895 6.16663 8.66667V8Z" fill="#111928"/>
<path fill-rule="evenodd" clip-rule="evenodd" d="M17.8333 8.33333C15.8082 8.33333 14.1666 9.97496 14.1666 12C14.1666 13.6288 15.2279 15.007 16.694 15.4859C17.0539 15.6035 17.4372 15.6667 17.8333 15.6667C18.2294 15.6667 18.6127 15.6035 18.9725 15.4859C20.4387 15.007 21.5 13.6288 21.5 12C21.5 9.97496 19.8583 8.33333 17.8333 8.33333ZM16.1666 12C16.1666 11.0795 16.9128 10.3333 17.8333 10.3333C18.7538 10.3333 19.5 11.0795 19.5 12C19.5 12.7381 19.0195 13.3666 18.3515 13.5848C18.1897 13.6377 18.0159 13.6667 17.8333 13.6667C17.6507 13.6667 17.4769 13.6377 17.3151 13.5848C16.6471 13.3666 16.1666 12.7381 16.1666 12Z" fill="#111928"/>
<path d="M15.053 19.2276C15.6464 18.7224 16.5143 18.3333 17.8333 18.3333C19.6407 18.3333 20.6738 19.064 21.2884 19.9176C21.9397 20.8222 22.1666 21.9378 22.1666 22.6667C22.1666 23.219 22.6143 23.6667 23.1666 23.6667C23.7189 23.6667 24.1666 23.219 24.1666 22.6667C24.1666 21.6178 23.8602 20.0666 22.9115 18.749C21.9261 17.3804 20.2925 16.3333 17.8333 16.3333C16.0813 16.3333 14.7425 16.8653 13.7564 17.7048C12.0472 19.1601 11.5976 21.3586 11.5029 22.59C11.4605 23.1406 11.8726 23.6214 12.4233 23.6637C12.9739 23.7061 13.4547 23.294 13.497 22.7434C13.5774 21.6987 13.9528 20.1644 15.053 19.2276Z" fill="#111928"/>
<path d="M4.49996 10.6667C3.76358 10.6667 3.16663 11.2636 3.16663 12C3.16663 12.7364 3.76358 13.3333 4.49996 13.3333H7.16663C7.90301 13.3333 8.49996 12.7364 8.49996 12C8.49996 11.2636 7.90301 10.6667 7.16663 10.6667H4.49996Z" fill="#111928"/>
<path d="M3.16663 16C3.16663 15.2636 3.76358 14.6667 4.49996 14.6667H7.16663C7.90301 14.6667 8.49996 15.2636 8.49996 16C8.49996 16.7364 7.90301 17.3333 7.16663 17.3333H4.49996C3.76358 17.3333 3.16663 16.7364 3.16663 16Z" fill="#111928"/>
<path d="M4.49996 18.6667C3.76358 18.6667 3.16663 19.2636 3.16663 20C3.16663 20.7364 3.76358 21.3333 4.49996 21.3333H7.16663C7.90301 21.3333 8.49996 20.7364 8.49996 20C8.49996 19.2636 7.90301 18.6667 7.16663 18.6667H4.49996Z" fill="#111928"/>
</g>
</svg>
