<svg width="33" height="32" viewBox="0 0 33 32" fill="none" xmlns="http://www.w3.org/2000/svg">
<path fill-rule="evenodd" clip-rule="evenodd" d="M21.8333 28.9999H11.1666C8.4052 28.9999 6.16663 26.7613 6.16663 23.9999V9.33325C6.16663 6.57183 8.4052 4.33325 11.1666 4.33325H18.8533C19.8411 4.33325 20.7872 4.73184 21.4772 5.43876L25.7905 9.85781C26.4591 10.5427 26.8333 11.4619 26.8333 12.419V23.9999C26.8333 26.7613 24.5947 28.9999 21.8333 28.9999ZM11.1666 26.9999H21.8333C23.4901 26.9999 24.8333 25.6568 24.8333 23.9999V12.419C24.8333 12.3903 24.8326 12.3617 24.8311 12.3333H22.5C20.4749 12.3333 18.8333 10.6916 18.8333 8.66659V6.33325L11.1666 6.33325C9.50977 6.33325 8.16663 7.6764 8.16663 9.33325L8.16663 23.9999C8.16663 25.6568 9.50977 26.9999 11.1666 26.9999ZM20.8333 7.64239V8.66659C20.8333 9.58706 21.5795 10.3333 22.5 10.3333H23.4598L20.8333 7.64239Z" fill="#111928"/>
<path d="M4.5 16.0001C4.5 15.2637 5.09695 14.6667 5.83333 14.6667H27.1667C27.903 14.6667 28.5 15.2637 28.5 16.0001V21.3334C28.5 22.0698 27.903 22.6667 27.1667 22.6667H5.83333C5.09695 22.6667 4.5 22.0698 4.5 21.3334V16.0001Z" fill="#D73630"/>
<path d="M10.3138 21.3333V16.3159H12.455C12.6953 16.3159 12.9144 16.3654 13.1122 16.4643C13.3148 16.5585 13.4891 16.6881 13.6352 16.853C13.7812 17.0132 13.8943 17.1945 13.9744 17.3971C14.0545 17.5997 14.0945 17.807 14.0945 18.019C14.0945 18.3064 14.0262 18.5796 13.8896 18.8387C13.7577 19.0978 13.5716 19.3098 13.3313 19.4747C13.0958 19.6349 12.8154 19.715 12.4904 19.715H11.4728V21.3333H10.3138ZM11.4728 18.7045H12.4197C12.5092 18.7045 12.5917 18.6785 12.667 18.6267C12.7424 18.5749 12.8037 18.4972 12.8508 18.3935C12.8979 18.2899 12.9214 18.1627 12.9214 18.0119C12.9214 17.8565 12.8932 17.7293 12.8366 17.6303C12.7848 17.5267 12.7165 17.4513 12.6317 17.4042C12.5516 17.3571 12.4668 17.3335 12.3773 17.3335H11.4728V18.7045Z" fill="white"/>
<path d="M14.7167 21.3333V16.3159H16.5894C17.1406 16.3159 17.5999 16.429 17.9674 16.6551C18.3396 16.8765 18.6199 17.1781 18.8083 17.5597C18.9968 17.9365 19.091 18.3558 19.091 18.8175C19.091 19.3263 18.9873 19.7692 18.78 20.1461C18.5728 20.5229 18.2807 20.815 17.9038 21.0223C17.5316 21.2296 17.0935 21.3333 16.5894 21.3333H14.7167ZM17.9108 18.8175C17.9108 18.5254 17.859 18.2687 17.7554 18.0473C17.6517 17.8211 17.501 17.6468 17.3031 17.5243C17.1052 17.3971 16.8673 17.3335 16.5894 17.3335H15.8756V20.3157H16.5894C16.872 20.3157 17.11 20.2521 17.3031 20.1249C17.501 19.9929 17.6517 19.8139 17.7554 19.5878C17.859 19.3569 17.9108 19.1002 17.9108 18.8175Z" fill="white"/>
<path d="M19.7752 21.3333V16.3159H23.1813V17.3335H20.9341V18.4147H22.7856V19.3546H20.9341V21.3333H19.7752Z" fill="white"/>
</svg>
