<svg width="33" height="32" viewBox="0 0 33 32" fill="none" xmlns="http://www.w3.org/2000/svg">
<g>
<path fill-rule="evenodd" clip-rule="evenodd" d="M11.3387 5C9.7353 5 8.43548 6.34314 8.43548 8V24C8.43548 25.6569 9.7353 27 11.3387 27H21.6613C23.2647 27 24.5645 25.6569 24.5645 24L24.5645 11.7712C24.5645 11.3292 24.3946 10.9053 24.0921 10.5927L19.1522 5.48816C18.8497 5.17559 18.4395 5 18.0117 5H11.3387ZM6.5 8C6.5 5.23857 8.66637 3 11.3387 3H18.0117C18.9528 3 19.8553 3.38631 20.5208 4.07394L25.4607 9.17851C26.1262 9.86615 26.5 10.7988 26.5 11.7712L26.5 24C26.5 26.7614 24.3336 29 21.6613 29H11.3387C8.66636 29 6.5 26.7614 6.5 24V8Z" fill="#111928"/>
<path fill-rule="evenodd" clip-rule="evenodd" d="M20.3261 8.17391C20.3261 9.13441 21.0074 9.91304 21.8478 9.91304L25.5 9.91304L25.5 12L21.8478 12C19.9989 12 18.5 10.287 18.5 8.17391L18.5 4L20.3261 4L20.3261 8.17391Z" fill="#111928"/>
<path fill-rule="evenodd" clip-rule="evenodd" d="M11.5 15C11.5 14.4477 11.9477 14 12.5 14H20.5C21.0523 14 21.5 14.4477 21.5 15C21.5 15.5523 21.0523 16 20.5 16H12.5C11.9477 16 11.5 15.5523 11.5 15Z" fill="#111928"/>
<path fill-rule="evenodd" clip-rule="evenodd" d="M11.5 19C11.5 18.4477 11.9477 18 12.5 18H20.5C21.0523 18 21.5 18.4477 21.5 19C21.5 19.5523 21.0523 20 20.5 20H12.5C11.9477 20 11.5 19.5523 11.5 19Z" fill="#111928"/>
</g>
</svg>
