<svg width="33" height="32" viewBox="0 0 33 32" fill="none" xmlns="http://www.w3.org/2000/svg">
<path fill-rule="evenodd" clip-rule="evenodd" d="M28.1633 3.2826C29.6654 4.39052 30.0066 6.52436 28.9703 8.06751C30.0601 9.09204 29.9727 10.4934 29.7439 11.4005C29.4949 12.3878 29.0037 13.1633 28.9787 13.2026L28.9767 13.2058L26.9482 16.3833C26.6511 16.8488 26.0328 16.9853 25.5673 16.6881C25.1017 16.3909 24.9653 15.7726 25.2625 15.3071L27.2904 12.1304C27.29 12.1311 27.2901 12.131 27.2904 12.1304C27.3033 12.1095 27.6401 11.5638 27.8046 10.9114C27.9226 10.4437 27.9209 10.0799 27.795 9.8027L18.8341 23.0315C18.7271 23.1894 18.5773 23.3134 18.4021 23.3889L15.3041 24.7248C14.1711 25.2133 12.9185 24.3442 12.9796 23.1119L13.1546 19.5795C13.1636 19.3966 13.2227 19.2198 13.3254 19.0682L23.4537 4.11589C24.5163 2.54723 26.6308 2.15233 28.1633 3.2826ZM25.1096 5.23753C25.551 4.58581 26.3807 4.45302 26.9761 4.89216C27.5812 5.33846 27.7553 6.23132 27.3423 6.90221L25.0546 5.31878L25.1096 5.23753ZM23.9329 6.97473L26.2218 8.55898L22.0886 14.6607L19.8466 13.0071L23.9329 6.97473ZM18.7241 14.6643L20.9661 16.3179L17.342 21.668L15.0036 22.6764L15.1383 19.9581L18.7241 14.6643Z" fill="#111928"/>
<path d="M6.88948 15.5885C7.28238 15.5322 7.70966 15.4984 8.07037 15.5632C8.41096 15.6245 8.56326 15.7448 8.64804 15.9062C8.94994 16.4809 8.78471 17.0146 8.38277 17.8021C8.00358 18.5451 7.45742 19.1786 6.8373 19.8979C6.68727 20.072 6.53283 20.2511 6.37546 20.438C5.89526 21.0081 5.2241 21.8292 4.82282 22.7467C4.41153 23.6872 4.2174 24.8979 4.97211 26.0611C5.63317 27.08 6.75895 27.6129 7.73648 27.7853C8.66882 27.9498 9.58393 27.7604 10.3601 27.5196C10.7547 27.3972 11.1384 27.2532 11.4906 27.1173L11.7228 27.0274C11.9914 26.9231 12.2365 26.8279 12.4752 26.744C12.9918 26.5624 13.2575 25.9904 13.0687 25.4665C12.8799 24.9425 12.308 24.665 11.7914 24.8467C11.5201 24.9421 11.2362 25.0523 10.9632 25.1583L10.7518 25.2402C10.4065 25.3734 10.0738 25.4975 9.74548 25.5994C9.07579 25.8071 8.51829 25.8904 8.04775 25.8074C7.43447 25.6992 6.89516 25.3849 6.63355 24.9817C6.3941 24.6126 6.38415 24.1848 6.64756 23.5825C6.92098 22.9574 7.41503 22.3316 7.90275 21.7526C8.02405 21.6086 8.15384 21.4587 8.28867 21.303C8.9188 20.5752 9.65898 19.7204 10.1571 18.7444C10.5577 17.9594 11.2286 16.5577 10.4048 14.9897C9.92681 14.0797 9.09652 13.7138 8.38819 13.5865C7.69998 13.4627 7.01198 13.5379 6.57672 13.6003C4.83546 13.85 3.20897 14.7743 1.90019 15.529C1.42622 15.8023 1.26822 16.415 1.5473 16.8975C1.82637 17.38 2.43684 17.5496 2.91081 17.2763C4.26969 16.4927 5.57974 15.7763 6.88948 15.5885Z" fill="#111928"/>
</svg>
