<svg width="33" height="32" viewBox="0 0 33 32" fill="none" xmlns="http://www.w3.org/2000/svg">
<path fill-rule="evenodd" clip-rule="evenodd" d="M17.0758 4.14836C18.0895 2.71771 20.0712 2.37977 21.5018 3.39355C22.9325 4.40733 23.2704 6.38894 22.2566 7.81959L22.0394 8.1262L21.8335 8.41349C24.0113 10.036 26.8329 12.1285 28.9872 13.718C30.0339 14.4902 30.8798 15.7323 30.826 17.2241C30.7439 19.4992 29.9861 21.7036 29.1871 23.3829C28.228 25.3986 25.9505 26.1331 23.97 25.5318C23.1873 25.2942 22.3587 25.0299 21.6308 24.7719C21.6243 24.7697 21.6178 24.7675 21.6113 24.7652C20.8743 24.5034 20.0341 24.1454 19.2292 23.8025C18.8436 23.6382 18.4661 23.4773 18.112 23.3322C17.545 23.0998 17.0242 22.9009 16.5692 22.7609C16.1769 22.6401 15.8829 22.5791 15.6784 22.5623C15.6384 22.559 15.6018 22.5574 15.5686 22.5574C15.5035 22.5574 15.3276 22.5781 14.9937 22.6459C14.6814 22.7092 14.3017 22.7982 13.8606 22.9023L13.7808 22.9212C12.9619 23.1146 11.968 23.3493 10.9806 23.5152L9.50868 25.4898C9.4517 25.5662 9.38407 25.6342 9.30786 25.6914L5.97475 28.1974C4.73071 29.1327 2.99733 28.0037 3.34984 26.4877L4.33365 22.2569C4.36139 22.1376 4.41079 22.0245 4.47933 21.9231C4.06933 21.9737 3.66224 21.8928 3.30958 21.6589C2.9386 21.4128 2.72028 21.0591 2.5939 20.743C2.34785 20.1276 2.34224 19.3962 2.45249 18.8088L2.84426 16.7214C2.90002 16.4243 3.01299 16.1409 3.17688 15.8869L6.7514 10.3466C6.95879 10.0251 7.24329 9.75628 7.58604 9.56911C9.7308 8.39787 13.344 6.59969 15.7513 5.93787C15.7739 5.93167 15.7964 5.9263 15.819 5.92173L17.0758 4.14836ZM8.25684 23.7167C8.20614 23.7134 8.15579 23.7095 8.1058 23.7051C7.9809 23.6939 7.85829 23.6791 7.7385 23.6602C7.21656 23.578 6.65597 23.3984 6.20291 23.0486L5.50545 26.048L7.99109 24.1792L8.33251 23.7212C8.3072 23.7199 8.28198 23.7184 8.25684 23.7167ZM14.2578 15.5825C13.7699 15.6558 13.2816 15.7149 12.8261 15.77L12.6958 15.7858C12.3576 15.8268 12.0327 15.8671 11.757 15.9098C11.5405 15.9434 11.302 15.9859 11.0945 16.0473L18.7076 5.3047C19.0828 4.77528 19.8161 4.65023 20.3455 5.02538C20.8749 5.40053 20.9999 6.13383 20.6248 6.66325L20.4137 6.96122L20.4106 6.96554L14.3538 15.4175C14.316 15.4704 14.284 15.5256 14.2578 15.5825ZM15.8271 20.5679C15.7395 20.561 15.6529 20.5574 15.5679 20.5574C15.2787 20.5574 14.9231 20.6192 14.5953 20.6857C14.246 20.7566 13.834 20.8534 13.4003 20.9558L13.3434 20.9692C12.4752 21.1742 11.492 21.4063 10.5356 21.5614C9.6847 21.6994 8.92702 21.7633 8.33547 21.7175C8.23566 21.7097 8.14058 21.6988 8.05059 21.6847C7.42502 21.5861 7.34743 21.3947 7.32163 21.2984C7.23258 20.9663 7.29374 20.6707 7.51247 20.3452C7.75131 19.9896 8.16372 19.6301 8.70567 19.2879C9.71416 18.651 10.9137 18.2286 11.5248 18.0134L11.6512 17.9687C11.6866 17.9562 11.808 17.926 12.0643 17.8863C12.3021 17.8494 12.5945 17.8129 12.9374 17.7713L13.0778 17.7543C13.7243 17.6762 14.5059 17.5817 15.2611 17.4437C16.0576 17.2982 16.9125 17.09 17.5903 16.7544C18.2293 16.438 19.049 15.8287 19.049 14.7609C19.049 14.2585 18.927 13.7578 18.5925 13.3452C18.5401 13.2806 18.485 13.2211 18.4275 13.1663L20.6683 10.0395C22.8446 11.6607 25.6529 13.7433 27.7998 15.3274C28.4789 15.8284 28.8508 16.5006 28.8273 17.152C28.7585 19.0581 28.1128 20.9859 27.3811 22.5236C26.9152 23.5028 25.7443 23.9803 24.551 23.6181C23.7768 23.3831 22.9733 23.1263 22.2815 22.8806C21.6007 22.6388 20.8644 22.3248 20.0962 21.9972C19.6955 21.8263 19.286 21.6517 18.8712 21.4817C18.2866 21.2421 17.7001 21.0162 17.1584 20.8495C16.7199 20.7145 16.2604 20.6019 15.8271 20.5679ZM13.8075 8.76008L10.1569 13.9114C10.0932 13.951 10.0331 13.9985 9.97774 14.0538C8.88675 15.1448 8.34732 15.7972 7.26743 17.1034C6.98684 17.4428 6.66925 17.8269 6.29653 18.2737C5.40754 19.3395 4.77916 19.7441 4.41636 19.8838C4.40264 19.8217 4.39152 19.745 4.38652 19.6548C4.37789 19.4988 4.38923 19.3319 4.41816 19.1777L4.80994 17.0904C4.8179 17.0479 4.83404 17.0074 4.85745 16.9711L8.43197 11.4308C8.4628 11.3831 8.50171 11.3479 8.54461 11.3244C9.97883 10.5412 11.9879 9.52508 13.8075 8.76008Z" fill="#111928"/>
</svg>
