<svg width="33" height="32" viewBox="0 0 33 32" fill="none" xmlns="http://www.w3.org/2000/svg">
<path d="M19.1667 19.6667C19.719 19.6667 20.1667 19.219 20.1667 18.6667V13.081L21.7929 14.7072C22.1834 15.0977 22.8166 15.0977 23.2071 14.7072C23.5976 14.3167 23.5976 13.6835 23.2071 13.293L19.8738 9.95964C19.4832 9.56912 18.8501 9.56912 18.4596 9.95964L15.1262 13.293C14.7357 13.6835 14.7357 14.3167 15.1262 14.7072C15.5168 15.0977 16.1499 15.0977 16.5404 14.7072L18.1667 13.081V18.6667C18.1667 19.219 18.6144 19.6667 19.1667 19.6667Z" fill="#111928"/>
<path d="M16.5 21.0001C15.9477 21.0001 15.5 21.4478 15.5 22.0001C15.5 22.5524 15.9477 23.0001 16.5 23.0001H21.8333C22.3856 23.0001 22.8333 22.5524 22.8333 22.0001C22.8333 21.4478 22.3856 21.0001 21.8333 21.0001H16.5Z" fill="#111928"/>
<path fill-rule="evenodd" clip-rule="evenodd" d="M8.5 1.66675C5.73858 1.66675 3.5 3.90532 3.5 6.66675V21.3334C3.5 24.0948 5.73858 26.3334 8.5 26.3334H8.93335C9.39662 28.6157 11.4144 30.3334 13.8333 30.3334H22.4172C23.5625 30.3334 24.673 29.9402 25.5632 29.2196L27.646 27.5336C28.8187 26.5842 29.5 25.1561 29.5 23.6473V10.6667C29.5 7.90532 27.2614 5.66675 24.5 5.66675H24.0667C23.6034 3.38451 21.5856 1.66675 19.1667 1.66675H8.5ZM21.996 5.66675C21.5841 4.50156 20.4729 3.66675 19.1667 3.66675H8.5C6.84315 3.66675 5.5 5.00989 5.5 6.66675V21.3334C5.5 22.9903 6.84315 24.3334 8.5 24.3334H8.83333V10.6667C8.83333 7.90532 11.0719 5.66675 13.8333 5.66675H21.996ZM10.8333 25.3334C10.8333 26.9903 12.1765 28.3334 13.8333 28.3334H22.1667V26.6667C22.1667 24.6417 23.8083 23.0001 25.8333 23.0001H27.5V10.6667C27.5 9.00989 26.1569 7.66675 24.5 7.66675H13.8333C12.1765 7.66675 10.8333 9.00989 10.8333 10.6667V25.3334ZM24.3048 27.6652C24.2597 27.7017 24.2136 27.7368 24.1667 27.7705V26.6667C24.1667 25.7463 24.9129 25.0001 25.8333 25.0001H27.1777C26.9888 25.3741 26.7214 25.7089 26.3876 25.9791L24.3048 27.6652Z" fill="#111928"/>
</svg>
