<svg width="33" height="32" viewBox="0 0 33 32" fill="none" xmlns="http://www.w3.org/2000/svg">
<path d="M31.1667 22.3332V9.6665C31.1667 8.00965 29.8236 6.6665 28.1667 6.6665H4.83337C3.17652 6.6665 1.83337 8.00965 1.83337 9.6665V22.3332C1.83337 23.99 3.17652 25.3332 4.83338 25.3332H28.1667C29.8236 25.3332 31.1667 23.99 31.1667 22.3332Z" stroke="#853291" stroke-width="2" stroke-linecap="round"/>
<path d="M16.4336 19.2095H14.2148L12.5507 16.8715H11.8527V19.2095H9.83337V12H13.3173C15.1372 12 16.0845 13.1848 16.0845 14.483C16.1071 14.9632 15.9712 15.4374 15.6982 15.831C15.4251 16.2246 15.0305 16.5152 14.5763 16.6572L16.446 19.0898L16.4336 19.2095ZM11.8527 13.6322V15.359H13.336C13.4424 15.3622 13.5483 15.3425 13.6465 15.301C13.7447 15.2596 13.8331 15.1974 13.9057 15.1186C13.9782 15.0399 14.0333 14.9464 14.0673 14.8444C14.1012 14.7424 14.1133 14.6342 14.1026 14.5271C14.1138 14.4153 14.102 14.3023 14.0678 14.1953C14.0336 14.0883 13.9779 13.9896 13.9041 13.9055C13.8303 13.8214 13.74 13.7537 13.639 13.7066C13.538 13.6596 13.4285 13.6343 13.3173 13.6322H11.8527Z" fill="#853291"/>
<path d="M19.3125 21.3333H17.4428V14.1238H19.1131L19.1941 14.6721C19.4088 14.4501 19.6691 14.2785 19.9567 14.1696C20.2443 14.0607 20.552 14.0171 20.8582 14.0419C22.3352 14.1364 23.1579 15.0754 23.1579 16.6824C23.1867 17.0227 23.1446 17.3653 23.0344 17.6882C22.9243 18.011 22.7485 18.307 22.5183 18.5569C22.2881 18.8069 22.0087 19.0053 21.6981 19.1394C21.3875 19.2735 21.0525 19.3404 20.7148 19.3356C20.4569 19.356 20.1977 19.3179 19.9562 19.2241C19.7147 19.1304 19.4969 18.9833 19.3187 18.7936L19.3125 21.3333ZM21.2882 16.6698C21.302 16.5305 21.2871 16.3897 21.2444 16.2565C21.2018 16.1232 21.1324 16.0003 21.0404 15.8955C20.9485 15.7907 20.8361 15.7063 20.7104 15.6476C20.5846 15.5889 20.4482 15.5572 20.3097 15.5544C20.1736 15.5551 20.0391 15.5835 19.914 15.6379C19.789 15.6922 19.6761 15.7714 19.5819 15.8707C19.4877 15.9701 19.4142 16.0875 19.3658 16.2162C19.3174 16.3448 19.295 16.4819 19.3 16.6194C19.2845 16.7645 19.2988 16.9113 19.3421 17.0506C19.3853 17.1899 19.4566 17.3186 19.5514 17.4287C19.6463 17.5388 19.7626 17.6278 19.893 17.6903C20.0235 17.7527 20.1654 17.7872 20.3097 17.7916C20.4485 17.7879 20.585 17.7554 20.7108 17.696C20.8366 17.6366 20.9489 17.5516 21.0407 17.4463C21.1325 17.3411 21.2019 17.2178 21.2445 17.0842C21.2871 16.9506 21.3019 16.8095 21.2882 16.6698Z" fill="#853291"/>
</svg>
