<svg width="33" height="32" viewBox="0 0 33 32" fill="none" xmlns="http://www.w3.org/2000/svg">
<circle cx="12.5" cy="12" r="10" stroke="#853291" stroke-width="2"/>
<path d="M12.4208 17H8.65732V6.81818H12.4158C13.4532 6.81818 14.3465 7.02202 15.0955 7.42969C15.8479 7.83404 16.4279 8.41738 16.8356 9.17969C17.2433 9.93868 17.4471 10.8468 17.4471 11.9041C17.4471 12.9647 17.2433 13.8762 16.8356 14.6385C16.4312 15.4008 15.8529 15.9858 15.1005 16.3935C14.3481 16.7978 13.4549 17 12.4208 17ZM11.1183 14.902H12.3263C12.8964 14.902 13.3787 14.8059 13.7731 14.6136C14.1708 14.4181 14.4708 14.1016 14.6729 13.6641C14.8784 13.2232 14.9812 12.6366 14.9812 11.9041C14.9812 11.1716 14.8784 10.5883 14.6729 10.1541C14.4674 9.71662 14.1642 9.40175 13.7631 9.20952C13.3654 9.01397 12.8749 8.91619 12.2915 8.91619H11.1183V14.902Z" fill="#853291"/>
</svg>
