<svg width="32" height="32" viewBox="0 0 32 32" fill="none" xmlns="http://www.w3.org/2000/svg">
<path fill-rule="evenodd" clip-rule="evenodd" d="M15.6667 5.33325C15.1144 5.33325 14.6667 5.78097 14.6667 6.33325V14.6666H6.33337C5.78109 14.6666 5.33337 15.1143 5.33337 15.6666C5.33337 16.2189 5.78109 16.6666 6.33338 16.6666H14.6667V25.6666C14.6667 26.2189 15.1144 26.6666 15.6667 26.6666C16.219 26.6666 16.6667 26.2189 16.6667 25.6666V16.6666H25.6667C26.219 16.6666 26.6667 16.2189 26.6667 15.6666C26.6667 15.1143 26.219 14.6666 25.6667 14.6666H16.6667V6.33325C16.6667 5.78097 16.219 5.33325 15.6667 5.33325Z" fill="black"/>
</svg>
