<svg width="33" height="32" viewBox="0 0 33 32" fill="none" xmlns="http://www.w3.org/2000/svg">
<path d="M9.20711 7.29289C8.81658 6.90237 8.18342 6.90237 7.79289 7.29289C7.40237 7.68342 7.40237 8.31658 7.79289 8.70711L15.0858 16L7.79289 23.2929C7.40237 23.6834 7.40237 24.3166 7.79289 24.7071C8.18342 25.0976 8.81658 25.0976 9.20711 24.7071L16.5 17.4142L23.7929 24.7071C24.1834 25.0976 24.8166 25.0976 25.2071 24.7071C25.5976 24.3166 25.5976 23.6834 25.2071 23.2929L17.9142 16L25.2071 8.70711C25.5976 8.31658 25.5976 7.68342 25.2071 7.29289C24.8166 6.90237 24.1834 6.90237 23.7929 7.29289L16.5 14.5858L9.20711 7.29289Z" fill="#111928"/>
</svg>
