<svg width="33" height="32" viewBox="0 0 33 32" fill="none" xmlns="http://www.w3.org/2000/svg">
<path d="M17.5 12C17.5 11.4477 17.0523 11 16.5 11C15.9477 11 15.5 11.4477 15.5 12V19.1591L13.1508 17.1455C12.7314 16.7861 12.1001 16.8347 11.7407 17.254C11.3813 17.6733 11.4299 18.3046 11.8492 18.664L15.8492 22.0926C16.2237 22.4136 16.7763 22.4136 17.1508 22.0926L21.1508 18.664C21.5701 18.3046 21.6187 17.6733 21.2592 17.254C20.8998 16.8347 20.2685 16.7861 19.8492 17.1455L17.5 19.1591V12Z" fill="#111928"/>
<path fill-rule="evenodd" clip-rule="evenodd" d="M16.5 5.66669C11.8674 5.66669 8.05235 9.16674 7.55491 13.6667H7.16665C3.66884 13.6667 0.833313 16.5022 0.833313 20C0.833313 23.4978 3.66884 26.3334 7.16665 26.3334H25.8333C29.3311 26.3334 32.1666 23.4978 32.1666 20C32.1666 16.5022 29.3311 13.6667 25.8333 13.6667H25.445C24.9476 9.16674 21.1325 5.66669 16.5 5.66669ZM9.49998 14.6667C9.49998 10.8007 12.634 7.66669 16.5 7.66669C20.366 7.66669 23.5 10.8007 23.5 14.6667C23.5 15.219 23.9477 15.6667 24.5 15.6667H25.8333C28.2265 15.6667 30.1666 17.6068 30.1666 20C30.1666 22.3933 28.2265 24.3334 25.8333 24.3334H7.16665C4.77341 24.3334 2.83331 22.3933 2.83331 20C2.83331 17.6068 4.77341 15.6667 7.16665 15.6667H8.49998C9.05226 15.6667 9.49998 15.219 9.49998 14.6667Z" fill="#111928"/>
</svg>
