<svg width="33" height="32" viewBox="0 0 33 32" fill="none" xmlns="http://www.w3.org/2000/svg">
<path fill-rule="evenodd" clip-rule="evenodd" d="M16.5 28C23.1274 28 28.5 22.6274 28.5 16C28.5 9.37258 23.1274 4 16.5 4C9.87258 4 4.5 9.37258 4.5 16C4.5 22.6274 9.87258 28 16.5 28ZM11.7929 11.2929C12.1834 10.9024 12.8166 10.9024 13.2071 11.2929L16.5 14.5858L19.7929 11.2929C20.1834 10.9024 20.8166 10.9024 21.2071 11.2929C21.5976 11.6834 21.5976 12.3166 21.2071 12.7071L17.9142 16L21.2071 19.2929C21.5976 19.6834 21.5976 20.3166 21.2071 20.7071C20.8166 21.0976 20.1834 21.0976 19.7929 20.7071L16.5 17.4142L13.2071 20.7071C12.8166 21.0976 12.1834 21.0976 11.7929 20.7071C11.4024 20.3166 11.4024 19.6834 11.7929 19.2929L15.0858 16L11.7929 12.7071C11.4024 12.3166 11.4024 11.6834 11.7929 11.2929Z" fill="#111928"/>
</svg>
