<svg width="33" height="32" viewBox="0 0 33 32" fill="none" xmlns="http://www.w3.org/2000/svg">
<path fill-rule="evenodd" clip-rule="evenodd" d="M16.5 28C23.1274 28 28.5 22.6274 28.5 16C28.5 9.37258 23.1274 4 16.5 4C9.87258 4 4.5 9.37258 4.5 16C4.5 22.6274 9.87258 28 16.5 28ZM21.7929 11.2929C22.1834 10.9024 22.8166 10.9024 23.2071 11.2929C23.5976 11.6834 23.5976 12.3166 23.2071 12.7071L15.2071 20.7071C14.8166 21.0976 14.1834 21.0976 13.7929 20.7071L9.79289 16.7071C9.40237 16.3166 9.40237 15.6834 9.79289 15.2929C10.1834 14.9024 10.8166 14.9024 11.2071 15.2929L14.5 18.5858L21.7929 11.2929Z" fill="#111928"/>
</svg>
