<svg width="33" height="32" viewBox="0 0 33 32" fill="none" xmlns="http://www.w3.org/2000/svg">
<path d="M17.5 5.33331C17.5 4.78103 17.0522 4.33331 16.5 4.33331C15.9477 4.33331 15.5 4.78103 15.5 5.33331V16.4021L11.8403 13.0665C11.4321 12.6944 10.7996 12.7237 10.4276 13.1319C10.0555 13.5401 10.0848 14.1726 10.493 14.5446L15.8263 19.4057C16.208 19.7536 16.7919 19.7536 17.1736 19.4057L22.5069 14.5446C22.9151 14.1726 22.9444 13.5401 22.5724 13.1319C22.2003 12.7237 21.5678 12.6944 21.1597 13.0665L17.5 16.4021V5.33331Z" fill="#111928"/>
<path d="M8.16663 20C8.16663 19.4477 7.71891 19 7.16663 19C6.61434 19 6.16663 19.4477 6.16663 20V21.3333C6.16663 24.0947 8.4052 26.3333 11.1666 26.3333H21.8333C24.5947 26.3333 26.8333 24.0947 26.8333 21.3333V20C26.8333 19.4477 26.3856 19 25.8333 19C25.281 19 24.8333 19.4477 24.8333 20V21.3333C24.8333 22.9902 23.4901 24.3333 21.8333 24.3333H11.1666C9.50977 24.3333 8.16663 22.9902 8.16663 21.3333V20Z" fill="#111928"/>
</svg>
