<svg width="33" height="32" viewBox="0 0 33 32" fill="none" xmlns="http://www.w3.org/2000/svg">
<path d="M16.5 20C18.7092 20 20.5 18.2091 20.5 16C20.5 13.7909 18.7092 12 16.5 12C14.2909 12 12.5 13.7909 12.5 16C12.5 18.2091 14.2909 20 16.5 20Z" fill="#111928"/>
<path fill-rule="evenodd" clip-rule="evenodd" d="M16.5 7C13.3214 7 10.5341 8.29558 8.38455 9.90393C6.24218 11.5069 4.65666 13.4766 3.87767 14.967C3.51627 15.6584 3.58748 16.4542 3.96961 17.0695C4.85397 18.4935 6.39419 20.4556 8.49161 22.0717C10.5925 23.6906 13.3043 25 16.5 25C19.6787 25 22.4659 23.7044 24.6155 22.0961C26.7579 20.4931 28.3434 18.5234 29.1224 17.033C29.4838 16.3416 29.4126 15.5458 29.0305 14.9305C28.1461 13.5065 26.6059 11.5444 24.5085 9.92827C22.4076 8.30942 19.6958 7 16.5 7ZM5.65015 15.8934C6.27962 14.6892 7.66015 12.9438 9.58272 11.5053C11.4981 10.0722 13.8746 9 16.5 9C19.1284 9 21.4219 10.0748 23.2878 11.5125C25.1572 12.953 26.5454 14.7199 27.3315 15.9857C27.3504 16.0162 27.3572 16.0439 27.3583 16.0637C27.3593 16.0821 27.3558 16.0953 27.3499 16.1066C26.7205 17.3108 25.3399 19.0562 23.4174 20.4947C21.502 21.9278 19.1255 23 16.5 23C13.8717 23 11.5782 21.9252 9.71233 20.4875C7.84293 19.047 6.45473 17.2801 5.6686 16.0143C5.64965 15.9838 5.64286 15.9561 5.64176 15.9363C5.64074 15.9179 5.6443 15.9047 5.65015 15.8934Z" fill="#111928"/>
</svg>
