<svg width="33" height="32" viewBox="0 0 33 32" fill="none" xmlns="http://www.w3.org/2000/svg">
<path d="M28.8356 9.72465C29.3558 9.90999 29.6273 10.482 29.442 11.0022C28.8765 12.5897 27.5093 14.849 25.2517 16.6625L27.3696 18.7554C27.7624 19.1436 27.7661 19.7767 27.3779 20.1696C26.9897 20.5624 26.3566 20.5661 25.9637 20.1779L23.5741 17.8164C22.7364 18.3043 21.8089 18.7231 20.7888 19.0383C20.7914 19.0468 20.7939 19.0553 20.7963 19.0638L21.6297 22.0416C21.7785 22.5734 21.468 23.1252 20.9362 23.2741C20.4043 23.4229 19.8525 23.1124 19.7037 22.5806L18.8703 19.6028C18.8596 19.5644 18.8512 19.5258 18.8452 19.4873C18.104 19.6036 17.3226 19.6667 16.5 19.6667C15.9537 19.6667 15.4236 19.638 14.9099 19.5836C14.9045 19.6295 14.8957 19.6756 14.8836 19.7216L14.1336 22.566C13.9928 23.1001 13.4457 23.4188 12.9117 23.278C12.3777 23.1372 12.0589 22.5901 12.1997 22.0561L12.9431 19.2366C11.6829 18.9216 10.5426 18.4511 9.52627 17.8837L7.98039 20.0479C7.65938 20.4973 7.03483 20.6014 6.58542 20.2804C6.13601 19.9594 6.03192 19.3348 6.35293 18.8854L7.85234 16.7862C7.70209 16.6717 7.55562 16.5554 7.41295 16.4375C5.26995 14.6664 3.92583 12.4931 3.52985 10.9092C3.3959 10.3734 3.72166 9.83046 4.25746 9.69651C4.79325 9.56256 5.33619 9.88832 5.47013 10.4241C5.74082 11.5069 6.79671 13.3336 8.68704 14.8958C10.5485 16.4342 13.1619 17.6667 16.5 17.6667C23.152 17.6667 26.6528 12.872 27.558 10.3311C27.7433 9.81081 28.3153 9.5393 28.8356 9.72465Z" fill="#111928"/>
</svg>
