<svg width="33" height="32" viewBox="0 0 33 32" fill="none" xmlns="http://www.w3.org/2000/svg">
<path fill-rule="evenodd" clip-rule="evenodd" d="M7.63806 8.33335H5.83337C5.28109 8.33335 4.83337 8.78107 4.83337 9.33335C4.83337 9.88564 5.28109 10.3334 5.83337 10.3334H7.63806C8.07335 11.8724 9.48834 13 11.1667 13C12.8451 13 14.2601 11.8724 14.6954 10.3334H27.1667C27.719 10.3334 28.1667 9.88564 28.1667 9.33335C28.1667 8.78107 27.719 8.33335 27.1667 8.33335H14.6954C14.2601 6.79435 12.8451 5.66669 11.1667 5.66669C9.48834 5.66669 8.07335 6.79435 7.63806 8.33335ZM9.50004 9.33335C9.50004 8.41288 10.2462 7.66669 11.1667 7.66669C12.0872 7.66669 12.8334 8.41288 12.8334 9.33335C12.8334 10.2538 12.0872 11 11.1667 11C10.2462 11 9.50004 10.2538 9.50004 9.33335Z" fill="#111928"/>
<path fill-rule="evenodd" clip-rule="evenodd" d="M5.83337 15C5.28109 15 4.83337 15.4477 4.83337 16C4.83337 16.5523 5.28109 17 5.83337 17H18.3047C18.74 18.539 20.155 19.6667 21.8334 19.6667C23.5117 19.6667 24.9267 18.539 25.362 17H27.1667C27.719 17 28.1667 16.5523 28.1667 16C28.1667 15.4477 27.719 15 27.1667 15H25.362C24.9267 13.461 23.5117 12.3334 21.8334 12.3334C20.155 12.3334 18.74 13.461 18.3047 15H5.83337ZM21.8334 14.3334C22.7538 14.3334 23.5 15.0795 23.5 16C23.5 16.9205 22.7538 17.6667 21.8334 17.6667C20.9129 17.6667 20.1667 16.9205 20.1667 16C20.1667 15.0795 20.9129 14.3334 21.8334 14.3334Z" fill="#111928"/>
<path fill-rule="evenodd" clip-rule="evenodd" d="M4.83337 22.6667C4.83337 22.1144 5.28109 21.6667 5.83337 21.6667H11.6381C12.0733 20.1277 13.4883 19 15.1667 19C16.8451 19 18.2601 20.1277 18.6954 21.6667H27.1667C27.719 21.6667 28.1667 22.1144 28.1667 22.6667C28.1667 23.219 27.719 23.6667 27.1667 23.6667H18.6954C18.2601 25.2057 16.8451 26.3334 15.1667 26.3334C13.4883 26.3334 12.0733 25.2057 11.6381 23.6667H5.83337C5.28109 23.6667 4.83337 23.219 4.83337 22.6667ZM16.8334 22.6667C16.8334 21.7462 16.0872 21 15.1667 21C14.2462 21 13.5 21.7462 13.5 22.6667C13.5 23.5872 14.2462 24.3334 15.1667 24.3334C16.0872 24.3334 16.8334 23.5872 16.8334 22.6667Z" fill="#111928"/>
</svg>
