<svg width="33" height="32" viewBox="0 0 33 32" fill="none" xmlns="http://www.w3.org/2000/svg">
<mask id="mask0_470_5234" style="mask-type:alpha" maskUnits="userSpaceOnUse" x="0" y="0" width="33" height="32">
<rect x="0.5" width="32" height="32" fill="black"/>
</mask>
<g mask="url(#mask0_470_5234)">
<path fill-rule="evenodd" clip-rule="evenodd" d="M9.83333 16C9.83333 17.4727 8.63943 18.6666 7.16667 18.6666C5.69391 18.6666 4.5 17.4727 4.5 16C4.5 14.5272 5.69391 13.3333 7.16667 13.3333C8.63943 13.3333 9.83333 14.5272 9.83333 16ZM19.1667 16C19.1667 17.4727 17.9728 18.6666 16.5 18.6666C15.0272 18.6666 13.8333 17.4727 13.8333 16C13.8333 14.5272 15.0272 13.3333 16.5 13.3333C17.9728 13.3333 19.1667 14.5272 19.1667 16ZM25.8333 18.6666C27.3061 18.6666 28.5 17.4727 28.5 16C28.5 14.5272 27.3061 13.3333 25.8333 13.3333C24.3606 13.3333 23.1667 14.5272 23.1667 16C23.1667 17.4727 24.3606 18.6666 25.8333 18.6666Z" fill="#111928"/>
</g>
</svg>
