<svg width="33" height="32" viewBox="0 0 33 32" fill="none" xmlns="http://www.w3.org/2000/svg">
<mask id="mask0_470_4593" style="mask-type:alpha" maskUnits="userSpaceOnUse" x="0" y="0" width="33" height="32">
<rect x="0.5" width="32" height="32" fill="black"/>
</mask>
<g mask="url(#mask0_470_4593)">
<path fill-rule="evenodd" clip-rule="evenodd" d="M16.5 9.33333C15.0272 9.33333 13.8333 8.13943 13.8333 6.66667C13.8333 5.19391 15.0272 4 16.5 4C17.9727 4 19.1666 5.19391 19.1666 6.66667C19.1666 8.13943 17.9727 9.33333 16.5 9.33333ZM16.5 18.6667C15.0272 18.6667 13.8333 17.4728 13.8333 16C13.8333 14.5272 15.0272 13.3333 16.5 13.3333C17.9727 13.3333 19.1666 14.5272 19.1666 16C19.1666 17.4728 17.9727 18.6667 16.5 18.6667ZM13.8333 25.3333C13.8333 26.8061 15.0272 28 16.5 28C17.9727 28 19.1666 26.8061 19.1666 25.3333C19.1666 23.8606 17.9727 22.6667 16.5 22.6667C15.0272 22.6667 13.8333 23.8606 13.8333 25.3333Z" fill="#111928"/>
</g>
</svg>
