<svg width="33" height="32" viewBox="0 0 33 32" fill="none" xmlns="http://www.w3.org/2000/svg">
<path fill-rule="evenodd" clip-rule="evenodd" d="M7.16667 3C5.14162 3 3.5 4.64162 3.5 6.66667V16C3.5 18.025 5.14162 19.6667 7.16667 19.6667H12.5C14.525 19.6667 16.1667 18.025 16.1667 16V6.66667C16.1667 4.64162 14.525 3 12.5 3H7.16667ZM5.5 6.66667C5.5 5.74619 6.24619 5 7.16667 5H12.5C13.4205 5 14.1667 5.74619 14.1667 6.66667V16C14.1667 16.9205 13.4205 17.6667 12.5 17.6667H7.16667C6.24619 17.6667 5.5 16.9205 5.5 16V6.66667Z" fill="#111928"/>
<path fill-rule="evenodd" clip-rule="evenodd" d="M21.8333 3C19.8083 3 18.1667 4.64162 18.1667 6.66667C18.1667 8.69171 19.8083 10.3333 21.8333 10.3333H25.8333C27.8584 10.3333 29.5 8.69171 29.5 6.66667C29.5 4.64162 27.8584 3 25.8333 3H21.8333ZM20.1667 6.66667C20.1667 5.74619 20.9129 5 21.8333 5H25.8333C26.7538 5 27.5 5.74619 27.5 6.66667C27.5 7.58714 26.7538 8.33333 25.8333 8.33333H21.8333C20.9129 8.33333 20.1667 7.58714 20.1667 6.66667Z" fill="#111928"/>
<path fill-rule="evenodd" clip-rule="evenodd" d="M18.1667 16C18.1667 13.975 19.8083 12.3333 21.8333 12.3333H25.8333C27.8584 12.3333 29.5 13.975 29.5 16C29.5 18.025 27.8584 19.6667 25.8333 19.6667H21.8333C19.8083 19.6667 18.1667 18.025 18.1667 16ZM21.8333 14.3333C20.9129 14.3333 20.1667 15.0795 20.1667 16C20.1667 16.9205 20.9129 17.6667 21.8333 17.6667H25.8333C26.7538 17.6667 27.5 16.9205 27.5 16C27.5 15.0795 26.7538 14.3333 25.8333 14.3333H21.8333Z" fill="#111928"/>
<path fill-rule="evenodd" clip-rule="evenodd" d="M7.16667 21.6667C5.14162 21.6667 3.5 23.3083 3.5 25.3333C3.5 27.3584 5.14162 29 7.16667 29H25.8333C27.8584 29 29.5 27.3584 29.5 25.3333C29.5 23.3083 27.8584 21.6667 25.8333 21.6667H7.16667ZM5.5 25.3333C5.5 24.4129 6.24619 23.6667 7.16667 23.6667H25.8333C26.7538 23.6667 27.5 24.4129 27.5 25.3333C27.5 26.2538 26.7538 27 25.8333 27H7.16667C6.24619 27 5.5 26.2538 5.5 25.3333Z" fill="#111928"/>
</svg>
