<svg width="33" height="32" viewBox="0 0 33 32" fill="none" xmlns="http://www.w3.org/2000/svg">
<path fill-rule="evenodd" clip-rule="evenodd" d="M16.3999 27.3893C15.2264 29.0869 12.5887 28.5374 12.1909 26.5124L11.2942 21.9486C11.2904 21.929 11.2871 21.9092 11.2845 21.8895L10.6222 16.9799L2.59388 9.84998C1.02263 8.45457 1.95218 5.85598 4.05203 5.77379L30.0787 4.75508C30.3713 4.73726 30.6659 4.84849 30.8752 5.07546C31.0968 5.31581 31.1812 5.64106 31.1212 5.94649C31.1063 6.02218 31.0826 6.09664 31.0498 6.1683C31.0228 6.22754 30.9901 6.2842 30.9518 6.33738L16.3999 27.3893ZM26.7884 8.84314L14.7547 26.2521C14.587 26.4946 14.2102 26.4161 14.1534 26.1268L13.2625 21.5924L12.6443 17.0093L26.7884 8.84314ZM26.1347 6.91099L4.13025 7.77226C3.83028 7.784 3.69747 8.15522 3.92195 8.35457L11.6882 15.2517L26.1347 6.91099Z" fill="#111928"/>
</svg>
