<svg width="33" height="32" viewBox="0 0 33 32" fill="none" xmlns="http://www.w3.org/2000/svg">
<path fill-rule="evenodd" clip-rule="evenodd" d="M11.1667 6H8.5C7.39543 6 6.5 6.89543 6.5 8V10.6667C6.5 11.7712 7.39543 12.6667 8.5 12.6667H11.1667C12.2712 12.6667 13.1667 11.7712 13.1667 10.6667V8C13.1667 6.89543 12.2712 6 11.1667 6ZM8.5 4C6.29086 4 4.5 5.79086 4.5 8V10.6667C4.5 12.8758 6.29086 14.6667 8.5 14.6667H11.1667C13.3758 14.6667 15.1667 12.8758 15.1667 10.6667V8C15.1667 5.79086 13.3758 4 11.1667 4H8.5ZM8.5 9.33333C8.5 8.59695 9.09695 8 9.83333 8C10.5697 8 11.1667 8.59695 11.1667 9.33333C11.1667 10.0697 10.5697 10.6667 9.83333 10.6667C9.09695 10.6667 8.5 10.0697 8.5 9.33333ZM19.8333 21.3333C19.8333 20.2288 20.7288 19.3333 21.8333 19.3333H24.5C25.6046 19.3333 26.5 20.2288 26.5 21.3333V24C26.5 25.1046 25.6046 26 24.5 26H21.8333C20.7288 26 19.8333 25.1046 19.8333 24V21.3333ZM17.8333 21.3333C17.8333 19.1242 19.6242 17.3333 21.8333 17.3333H24.5C26.7091 17.3333 28.5 19.1242 28.5 21.3333V24C28.5 26.2091 26.7091 28 24.5 28H21.8333C19.6242 28 17.8333 26.2091 17.8333 24V21.3333ZM11.1667 19.3333C12.2712 19.3333 13.1667 20.2288 13.1667 21.3333V24C13.1667 25.1046 12.2712 26 11.1667 26H8.5C7.39543 26 6.5 25.1046 6.5 24V21.3333C6.5 20.2288 7.39543 19.3333 8.5 19.3333H11.1667ZM4.5 21.3333C4.5 19.1242 6.29086 17.3333 8.5 17.3333H11.1667C13.3758 17.3333 15.1667 19.1242 15.1667 21.3333V24C15.1667 26.2091 13.3758 28 11.1667 28H8.5C6.29086 28 4.5 26.2091 4.5 24V21.3333ZM9.83333 21.3333C9.09695 21.3333 8.5 21.9303 8.5 22.6667C8.5 23.403 9.09695 24 9.83333 24C10.5697 24 11.1667 23.403 11.1667 22.6667C11.1667 21.9303 10.5697 21.3333 9.83333 21.3333ZM24.5 6H21.8333C20.7288 6 19.8333 6.89543 19.8333 8V10.6667C19.8333 11.7712 20.7288 12.6667 21.8333 12.6667H24.5C25.6046 12.6667 26.5 11.7712 26.5 10.6667V8C26.5 6.89543 25.6046 6 24.5 6ZM21.8333 4C19.6242 4 17.8333 5.79086 17.8333 8V10.6667C17.8333 12.8758 19.6242 14.6667 21.8333 14.6667H24.5C26.7091 14.6667 28.5 12.8758 28.5 10.6667V8C28.5 5.79086 26.7091 4 24.5 4H21.8333ZM21.8333 9.33333C21.8333 8.59695 22.4303 8 23.1667 8C23.903 8 24.5 8.59695 24.5 9.33333C24.5 10.0697 23.903 10.6667 23.1667 10.6667C22.4303 10.6667 21.8333 10.0697 21.8333 9.33333Z" fill="#111928"/>
</svg>
