<svg width="33" height="32" viewBox="0 0 33 32" fill="none" xmlns="http://www.w3.org/2000/svg">
<path fill-rule="evenodd" clip-rule="evenodd" d="M7.5 4C5.84314 4 4.5 5.34315 4.5 7V11.7981C4.5 13.455 5.84315 14.7981 7.5 14.7981H12.2981C13.955 14.7981 15.2981 13.455 15.2981 11.7981V7C15.2981 5.34314 13.955 4 12.2981 4H7.5ZM6.5 7C6.5 6.44772 6.94772 6 7.5 6H12.2981C12.8504 6 13.2981 6.44772 13.2981 7V11.7981C13.2981 12.3504 12.8504 12.7981 12.2981 12.7981H7.5C6.94772 12.7981 6.5 12.3504 6.5 11.7981V7Z" fill="#111928"/>
<path d="M8.43268 21.1299H11.3654V24.0626H8.43268V21.1299Z" fill="#111928"/>
<path fill-rule="evenodd" clip-rule="evenodd" d="M4.5 20.1971C4.5 18.5403 5.84315 17.1971 7.5 17.1971H12.2981C13.955 17.1971 15.2981 18.5403 15.2981 20.1971V24.9952C15.2981 26.6521 13.955 27.9952 12.2981 27.9952H7.5C5.84315 27.9952 4.5 26.6521 4.5 24.9952V20.1971ZM7.5 19.1971C6.94772 19.1971 6.5 19.6448 6.5 20.1971V24.9952C6.5 25.5475 6.94772 25.9952 7.5 25.9952H12.2981C12.8504 25.9952 13.2981 25.5475 13.2981 24.9952V20.1971C13.2981 19.6448 12.8504 19.1971 12.2981 19.1971H7.5Z" fill="#111928"/>
<path d="M24.5625 7.93276H21.6298V10.8655H24.5625V7.93276Z" fill="#111928"/>
<path fill-rule="evenodd" clip-rule="evenodd" d="M20.6971 4C19.0403 4 17.6971 5.34315 17.6971 7V11.7981C17.6971 13.455 19.0403 14.7981 20.6971 14.7981H25.4952C27.1521 14.7981 28.4952 13.455 28.4952 11.7981V7C28.4952 5.34315 27.1521 4 25.4952 4H20.6971ZM19.6971 7C19.6971 6.44772 20.1448 6 20.6971 6H25.4952C26.0475 6 26.4952 6.44772 26.4952 7V11.7981C26.4952 12.3504 26.0475 12.7981 25.4952 12.7981H20.6971C20.1448 12.7981 19.6971 12.3504 19.6971 11.7981V7Z" fill="#111928"/>
<path d="M21.6298 18.1971H18.6971V21.1298H21.6298V18.1971Z" fill="#111928"/>
<path d="M24.5626 21.1299L21.6298 21.1298L21.6299 24.0626H24.5626V26.9953H27.4953V24.0626L24.5626 24.0626L24.5626 21.1299Z" fill="#111928"/>
<path d="M21.6299 24.0626L18.6971 24.0626V26.9953H21.6298L21.6299 24.0626Z" fill="#111928"/>
<path d="M24.5626 18.1971H27.4953V21.1298L24.5626 21.1299L24.5626 18.1971Z" fill="#111928"/>
</svg>
