<svg width="33" height="32" viewBox="0 0 33 32" fill="none" xmlns="http://www.w3.org/2000/svg">
<g>
<path d="M16.5066 6.33331C14.8135 6.33331 13.2249 6.76711 11.8428 7.52875C10.883 8.0577 10.0222 8.74517 9.29605 9.55601C8.9276 9.96742 8.29539 10.0023 7.88398 9.6338C7.47256 9.26535 7.43773 8.63314 7.80618 8.22173C8.68131 7.24456 9.7191 6.41553 10.8775 5.77713C12.5478 4.85668 14.4675 4.33331 16.5066 4.33331C21.9467 4.33331 26.516 8.05192 27.8119 13.0839L27.8229 13.1267L28.0602 14.5624L29.284 11.9535C29.5182 11.4542 30.1122 11.2436 30.6107 11.4831C31.1091 11.7226 31.3234 12.3216 31.0891 12.8209L29.1317 16.9938C28.6879 17.9398 27.494 18.2386 26.65 17.6149L23.0776 14.9749C22.6322 14.6457 22.5336 14.0178 22.8574 13.5725C23.1813 13.1272 23.8049 13.0331 24.2504 13.3623L26.0552 14.6959L25.8643 13.541C24.7761 9.39299 20.9979 6.33331 16.5066 6.33331Z" fill="#111928"/>
<path d="M4.85976 16.7904L3.93892 19.1751C3.73865 19.6937 3.16533 19.9443 2.65838 19.7347C2.15144 19.5252 1.90284 18.9348 2.10311 18.4161L3.84494 13.9053C4.27928 12.7805 5.69688 12.4879 6.5349 13.3502L9.99844 16.9139C10.3849 17.3115 10.3865 17.9529 10.002 18.3464C9.61762 18.7399 8.99272 18.7366 8.60631 18.339L6.84766 16.5294C7.12273 21.6215 11.3415 25.6666 16.5066 25.6666C19.2548 25.6666 21.7339 24.5226 23.496 22.6826C24.0299 22.1252 24.4975 21.5042 24.8864 20.8324C25.1631 20.3544 25.7748 20.1912 26.2528 20.4678C26.7308 20.7445 26.894 21.3563 26.6173 21.8343C26.148 22.6452 25.5839 23.3941 24.9405 24.066C22.8166 26.2837 19.8223 27.6666 16.5066 27.6666C10.326 27.6666 5.26638 22.8656 4.85976 16.7904Z" fill="#111928"/>
</g>
</svg>
