<svg width="33" height="32" viewBox="0 0 33 32" fill="none" xmlns="http://www.w3.org/2000/svg">
<path d="M8.16663 9.33331C8.16663 7.67646 9.50977 6.33331 11.1666 6.33331H15.1666C16.8235 6.33331 18.1666 7.67646 18.1666 9.33331V10.6666C18.1666 11.2189 18.6143 11.6666 19.1666 11.6666C19.7189 11.6666 20.1666 11.2189 20.1666 10.6666V9.33331C20.1666 6.57189 17.9281 4.33331 15.1666 4.33331H11.1666C8.4052 4.33331 6.16663 6.57189 6.16663 9.33331V22.6666C6.16663 25.4281 8.4052 27.6666 11.1666 27.6666H15.1666C17.9281 27.6666 20.1666 25.4281 20.1666 22.6666V21.3333C20.1666 20.781 19.7189 20.3333 19.1666 20.3333C18.6143 20.3333 18.1666 20.781 18.1666 21.3333V22.6666C18.1666 24.3235 16.8235 25.6666 15.1666 25.6666H11.1666C9.50977 25.6666 8.16663 24.3235 8.16663 22.6666V9.33331Z" fill="#111928"/>
<path d="M23.2024 11.9548C22.8093 11.5668 22.1762 11.5709 21.7882 11.964C21.4003 12.3571 21.4044 12.9902 21.7975 13.3782L23.3965 14.9564H15.1666C14.6143 14.9564 14.1666 15.4042 14.1666 15.9564C14.1666 16.5087 14.6143 16.9564 15.1666 16.9564H23.441L21.7883 18.6306C21.4003 19.0237 21.4044 19.6568 21.7974 20.0448C22.1905 20.4328 22.8236 20.4287 23.2116 20.0357L26.545 16.659C26.7313 16.4702 26.835 16.2152 26.8333 15.9499C26.8315 15.6847 26.7245 15.431 26.5358 15.2447L23.2024 11.9548Z" fill="#111928"/>
</svg>
