<svg width="33" height="32" viewBox="0 0 33 32" fill="none" xmlns="http://www.w3.org/2000/svg">
<path fill-rule="evenodd" clip-rule="evenodd" d="M18.1667 8.66665C18.1667 6.27341 20.1068 4.33331 22.5 4.33331C24.8933 4.33331 26.8334 6.27341 26.8334 8.66665C26.8334 11.0599 24.8933 13 22.5 13C21.2845 13 20.1859 12.4995 19.399 11.6934L13.2977 15.3542C13.4291 15.7682 13.5 16.2091 13.5 16.6666C13.5 17.1011 13.4361 17.5207 13.3171 17.9164L19.3693 20.3373C20.1581 19.5132 21.2691 19 22.5 19C24.8933 19 26.8334 20.9401 26.8334 23.3333C26.8334 25.7265 24.8933 27.6666 22.5 27.6666C20.1068 27.6666 18.1667 25.7265 18.1667 23.3333C18.1667 22.8988 18.2307 22.4793 18.3497 22.0835L12.2975 19.6627C11.5086 20.4868 10.3976 21 9.16671 21C6.77347 21 4.83337 19.0599 4.83337 16.6666C4.83337 14.2734 6.77347 12.3333 9.16671 12.3333C10.3822 12.3333 11.4808 12.8338 12.2677 13.6398L18.369 9.97907C18.2376 9.56508 18.1667 9.12414 18.1667 8.66665ZM22.5 6.33331C21.2114 6.33331 20.1667 7.37798 20.1667 8.66665C20.1667 9.95531 21.2114 11 22.5 11C23.7887 11 24.8334 9.95531 24.8334 8.66665C24.8334 7.37798 23.7887 6.33331 22.5 6.33331ZM22.5 21C21.2114 21 20.1667 22.0446 20.1667 23.3333C20.1667 24.622 21.2114 25.6666 22.5 25.6666C23.7887 25.6666 24.8334 24.622 24.8334 23.3333C24.8334 22.0446 23.7887 21 22.5 21ZM6.83337 16.6666C6.83337 15.378 7.87804 14.3333 9.16671 14.3333C10.4554 14.3333 11.5 15.378 11.5 16.6666C11.5 17.9553 10.4554 19 9.16671 19C7.87804 19 6.83337 17.9553 6.83337 16.6666Z" fill="#111928"/>
</svg>
