<svg width="33" height="32" viewBox="0 0 33 32" fill="none" xmlns="http://www.w3.org/2000/svg">
<path d="M4.83331 8C4.83331 7.44772 5.28103 7 5.83331 7H17.3228C17.8751 7 18.3228 7.44772 18.3228 8C18.3228 8.55228 17.8751 9 17.3228 9H5.83331C5.28103 9 4.83331 8.55228 4.83331 8Z" fill="#111928"/>
<path d="M23.0675 7C23.6198 7 24.0675 7.44772 24.0675 8V21.3463L26.4154 18.6734C26.7799 18.2584 27.4118 18.2175 27.8267 18.582C28.2416 18.9465 28.2825 19.5784 27.918 19.9933L23.8188 24.66C23.6298 24.8752 23.3575 24.999 23.0711 25C22.7846 25.001 22.5115 24.8792 22.3209 24.6653L18.1621 19.9987C17.7947 19.5863 17.831 18.9542 18.2434 18.5868C18.6557 18.2193 19.2878 18.2557 19.6552 18.668L22.0675 21.3749V8C22.0675 7.44772 22.5152 7 23.0675 7Z" fill="#111928"/>
<path d="M5.83331 12.3332C5.28103 12.3332 4.83331 12.7809 4.83331 13.3332C4.83331 13.8855 5.28103 14.3332 5.83331 14.3332H15.4079C15.9602 14.3332 16.4079 13.8855 16.4079 13.3332C16.4079 12.7809 15.9602 12.3332 15.4079 12.3332H5.83331Z" fill="#111928"/>
<path d="M4.83331 18.6668C4.83331 18.1145 5.28103 17.6668 5.83331 17.6668H13.493C14.0453 17.6668 14.493 18.1145 14.493 18.6668C14.493 19.2191 14.0453 19.6668 13.493 19.6668H5.83331C5.28103 19.6668 4.83331 19.2191 4.83331 18.6668Z" fill="#111928"/>
<path d="M5.83331 23C5.28103 23 4.83331 23.4477 4.83331 24C4.83331 24.5523 5.28103 25 5.83331 25H11.5781C12.1303 25 12.5781 24.5523 12.5781 24C12.5781 23.4477 12.1303 23 11.5781 23H5.83331Z" fill="#111928"/>
</svg>
