<svg width="33" height="32" viewBox="0 0 33 32" fill="none" xmlns="http://www.w3.org/2000/svg">
<path fill-rule="evenodd" clip-rule="evenodd" d="M4.83337 7.99998C4.83337 5.97494 6.475 4.33331 8.50004 4.33331H12.5C13.0523 4.33331 13.5 4.78103 13.5 5.33331C13.5 5.8856 13.0523 6.33331 12.5 6.33331H8.50004C7.57957 6.33331 6.83337 7.0795 6.83337 7.99998V12C6.83337 12.5523 6.38566 13 5.83337 13C5.28109 13 4.83337 12.5523 4.83337 12V7.99998ZM5.83337 19C6.38566 19 6.83337 19.4477 6.83337 20V24C6.83337 24.9205 7.57957 25.6666 8.50004 25.6666H12.5C13.0523 25.6666 13.5 26.1144 13.5 26.6666C13.5 27.2189 13.0523 27.6666 12.5 27.6666H8.50004C6.475 27.6666 4.83337 26.025 4.83337 24V20C4.83337 19.4477 5.28109 19 5.83337 19ZM28.1667 20C28.1667 19.4477 27.719 19 27.1667 19C26.6144 19 26.1667 19.4477 26.1667 20V24C26.1667 24.9205 25.4205 25.6666 24.5 25.6666H20.5C19.9478 25.6666 19.5 26.1144 19.5 26.6666C19.5 27.2189 19.9478 27.6666 20.5 27.6666H24.5C26.5251 27.6666 28.1667 26.025 28.1667 24V20ZM7.50004 16C7.50004 15.4477 7.94776 15 8.50004 15H24.5C25.0523 15 25.5 15.4477 25.5 16C25.5 16.5523 25.0523 17 24.5 17H8.50004C7.94776 17 7.50004 16.5523 7.50004 16ZM20.5 4.33331C19.9478 4.33331 19.5 4.78103 19.5 5.33331C19.5 5.8856 19.9478 6.33331 20.5 6.33331H24.5C25.4205 6.33331 26.1667 7.07951 26.1667 7.99998V12C26.1667 12.5523 26.6144 13 27.1667 13C27.719 13 28.1667 12.5523 28.1667 12V7.99998C28.1667 5.97494 26.5251 4.33331 24.5 4.33331H20.5Z" fill="#111928"/>
</svg>
