<svg width="33" height="32" viewBox="0 0 33 32" fill="none" xmlns="http://www.w3.org/2000/svg">
<path fill-rule="evenodd" clip-rule="evenodd" d="M16.5 11C13.7386 11 11.5 13.2386 11.5 16C11.5 18.7614 13.7386 21 16.5 21C19.2614 21 21.5 18.7614 21.5 16C21.5 13.2386 19.2614 11 16.5 11ZM13.5 16C13.5 14.3431 14.8431 13 16.5 13C18.1568 13 19.5 14.3431 19.5 16C19.5 17.6569 18.1568 19 16.5 19C14.8431 19 13.5 17.6569 13.5 16Z" fill="#111928"/>
<path fill-rule="evenodd" clip-rule="evenodd" d="M13.8616 3C12.6449 3 11.6654 3.98927 11.6654 5.20107V6.40214C11.6654 6.93558 11.2011 7.33144 10.7017 7.27274C10.7017 7.27273 10.6906 7.27117 10.6642 7.26239C10.6345 7.2525 10.5952 7.23676 10.5378 7.21054L9.14056 6.57168C8.09528 5.99978 6.78246 6.36839 6.18631 7.40514L3.79387 11.5658C3.19852 12.6011 3.53666 13.9227 4.55236 14.5435L5.83618 15.4525C6.21617 15.8644 6.11679 16.5269 5.63273 16.8075L4.59677 17.4081C3.54636 18.017 3.18954 19.362 3.79354 20.4124L6.18598 24.573C6.79134 25.6258 8.13568 25.9896 9.18847 25.3793L10.2244 24.7788C10.7044 24.5005 11.3206 24.7407 11.4857 25.278L11.6285 26.8508C11.656 28.0388 12.6248 29 13.8241 29H19.1755C20.3749 29 21.3437 28.0388 21.3711 26.8508L21.5139 25.278C21.679 24.7407 22.2953 24.5005 22.7752 24.7788L23.8112 25.3793C24.864 25.9896 26.2083 25.6258 26.8137 24.573L29.2061 20.4124C29.8101 19.362 29.4533 18.017 28.4029 17.4081L27.3669 16.8075C26.8829 16.5269 26.7835 15.8644 27.1635 15.4525L28.4473 14.5435C29.463 13.9227 29.8011 12.6011 29.2058 11.5658L26.8133 7.40514C26.2172 6.36838 24.9044 5.99978 23.8591 6.57168L22.4618 7.21054C22.4045 7.23676 22.3651 7.2525 22.3354 7.26239C22.3097 7.27094 22.2983 7.27267 22.2978 7.27276C21.7984 7.33131 21.3342 6.9355 21.3342 6.40214V5.20107C21.3342 3.98927 20.3548 3 19.138 3H13.8616ZM13.6654 5.20107C13.6654 5.0862 13.7571 5 13.8616 5H19.138C19.2426 5 19.3342 5.0862 19.3342 5.20107V6.40214C19.3342 8.1425 20.8529 9.45637 22.5315 9.25906C22.8514 9.22145 23.1194 9.10902 23.2935 9.02943L24.7282 8.37345C24.7575 8.36007 24.7861 8.34528 24.8139 8.32915C24.9054 8.27611 25.0242 8.30594 25.0795 8.4021L27.472 12.5627C27.5286 12.6613 27.4934 12.7854 27.3995 12.8398C27.3733 12.855 27.3479 12.8713 27.3232 12.8888L25.9298 13.8754C25.8786 13.9117 25.8309 13.9527 25.7874 13.9979L25.7362 14.051C24.4423 15.3946 24.7487 17.6015 26.3639 18.5378L27.3998 19.1383C27.4937 19.1928 27.529 19.3169 27.4723 19.4154L25.0799 23.576C25.0246 23.6722 24.9057 23.702 24.8142 23.649L23.7783 23.0485C22.1587 22.1096 20.0969 22.9518 19.5851 24.748L19.5649 24.8191C19.5478 24.8791 19.5363 24.9406 19.5307 25.0027L19.3758 26.7085C19.3731 26.7386 19.3717 26.7688 19.3717 26.7989C19.3717 26.9138 19.2801 27 19.1755 27H13.8241C13.7196 27 13.6279 26.9138 13.6279 26.7989C13.6279 26.7688 13.6265 26.7386 13.6238 26.7085L13.469 25.0027C13.4633 24.9406 13.4519 24.8791 13.4348 24.8191L13.4145 24.748C12.9028 22.9518 10.841 22.1096 9.22139 23.0485L8.18543 23.649C8.09394 23.702 7.97508 23.6722 7.91978 23.576L5.52734 19.4154C5.47069 19.3169 5.50593 19.1928 5.59981 19.1383L6.63576 18.5378C8.25097 17.6015 8.55733 15.3946 7.26346 14.0511L7.21228 13.9979C7.16875 13.9527 7.12106 13.9117 7.06984 13.8754L5.67649 12.8888C5.65179 12.8713 5.62632 12.855 5.60013 12.8398C5.50625 12.7854 5.47102 12.6613 5.52767 12.5627L7.9201 8.4021C7.9754 8.30594 8.09426 8.27611 8.18576 8.32915C8.21359 8.34528 8.24219 8.36007 8.27146 8.37345L9.70617 9.02943C9.88024 9.10902 10.1482 9.22145 10.4682 9.25906C12.1468 9.45637 13.6654 8.1425 13.6654 6.40214V5.20107Z" fill="#111928"/>
</svg>
