<svg width="33" height="32" viewBox="0 0 33 32" fill="none" xmlns="http://www.w3.org/2000/svg">
<path d="M13.8333 15C14.3856 15 14.8333 15.4477 14.8333 16V21.3333C14.8333 21.8856 14.3856 22.3333 13.8333 22.3333C13.281 22.3333 12.8333 21.8856 12.8333 21.3333V16C12.8333 15.4477 13.281 15 13.8333 15Z" fill="#111928"/>
<path d="M20.1666 16C20.1666 15.4477 19.7189 15 19.1666 15C18.6143 15 18.1666 15.4477 18.1666 16V21.3333C18.1666 21.8856 18.6143 22.3333 19.1666 22.3333C19.7189 22.3333 20.1666 21.8856 20.1666 21.3333V16Z" fill="#111928"/>
<path fill-rule="evenodd" clip-rule="evenodd" d="M11.8893 5.83333L12.3211 4.99209C12.949 3.76905 14.2083 3 15.5831 3H17.4169C18.7917 3 20.0509 3.76905 20.6788 4.99209L21.1107 5.83333H23.7083C25.4342 5.83333 26.8333 7.23244 26.8333 8.95833C26.8333 10.0257 26.2982 10.9681 25.4816 11.5318L24.9961 22.8804C24.8816 25.5562 22.679 27.6667 20.0007 27.6667H12.9991C10.3208 27.6667 8.11813 25.5562 8.00366 22.8804L7.51822 11.5317C6.70169 10.968 6.16663 10.0256 6.16663 8.95833C6.16663 7.23244 7.56574 5.83333 9.29163 5.83333H11.8893ZM14.1397 5.83333C14.4362 5.31949 14.9856 5 15.5831 5H17.4169C18.0143 5 18.5637 5.31949 18.8602 5.83333H14.1397ZM12.4787 7.83333C12.4923 7.83361 12.506 7.83361 12.5196 7.83333H20.4803C20.4939 7.83361 20.5076 7.83361 20.5213 7.83333H23.7083C24.3296 7.83333 24.8333 8.33701 24.8333 8.95833C24.8333 9.57965 24.3296 10.0833 23.7083 10.0833H9.29163C8.67031 10.0833 8.16663 9.57965 8.16663 8.95833C8.16663 8.33701 8.67031 7.83333 9.29163 7.83333H12.4787ZM9.54364 12.0833H23.4562L22.9979 22.7949C22.9293 24.4004 21.6077 25.6667 20.0007 25.6667H12.9991C11.3921 25.6667 10.0705 24.4004 10.0018 22.7949L9.54364 12.0833Z" fill="#111928"/>
</svg>
