<svg width="33" height="32" viewBox="0 0 33 32" fill="none" xmlns="http://www.w3.org/2000/svg">
<path d="M11.1666 13C10.6144 13 10.1666 13.4478 10.1666 14C10.1666 14.5523 10.6144 15 11.1666 15H17.8333C18.3856 15 18.8333 14.5523 18.8333 14C18.8333 13.4478 18.3856 13 17.8333 13H11.1666Z" fill="#111928"/>
<path fill-rule="evenodd" clip-rule="evenodd" d="M4.83331 14C4.83331 8.66129 9.16123 4.33337 14.5 4.33337C19.8387 4.33337 24.1666 8.66129 24.1666 14C24.1666 15.5886 23.7835 17.0877 23.1044 18.4099L26.263 21.5147C27.4216 22.6535 27.4216 24.4999 26.263 25.6388C25.1045 26.7776 23.2261 26.7776 22.0676 25.6388L18.9563 22.5805C17.6228 23.2745 16.1072 23.6667 14.5 23.6667C9.16123 23.6667 4.83331 19.3388 4.83331 14ZM14.5 6.33337C10.2658 6.33337 6.83331 9.76586 6.83331 14C6.83331 18.2342 10.2658 21.6667 14.5 21.6667C18.7342 21.6667 22.1666 18.2342 22.1666 14C22.1666 9.76586 18.7342 6.33337 14.5 6.33337ZM20.6594 21.4506C21.1439 21.0496 21.5887 20.6023 21.9868 20.1154L24.8367 22.9167C25.2075 23.2813 25.2075 23.8722 24.8367 24.2367C24.4659 24.6013 23.8647 24.6013 23.4939 24.2367L20.6594 21.4506Z" fill="#111928"/>
</svg>
