<svg width="33" height="32" viewBox="0 0 33 32" fill="none" xmlns="http://www.w3.org/2000/svg">
<path d="M14.5 9.66671C15.0523 9.66671 15.5 10.1144 15.5 10.6667V13H17.8334C18.3857 13 18.8334 13.4478 18.8334 14C18.8334 14.5523 18.3857 15 17.8334 15H15.5V17.3334C15.5 17.8857 15.0523 18.3334 14.5 18.3334C13.9478 18.3334 13.5 17.8857 13.5 17.3334V15H11.1667C10.6144 15 10.1667 14.5523 10.1667 14C10.1667 13.4478 10.6144 13 11.1667 13H13.5V10.6667C13.5 10.1144 13.9478 9.66671 14.5 9.66671Z" fill="#111928"/>
<path fill-rule="evenodd" clip-rule="evenodd" d="M14.5 4.33337C9.16129 4.33337 4.83337 8.66129 4.83337 14C4.83337 19.3388 9.16129 23.6667 14.5 23.6667C16.1073 23.6667 17.6229 23.2745 18.9564 22.5805L22.0676 25.6388C23.2262 26.7776 25.1045 26.7776 26.2631 25.6388C27.4216 24.4999 27.4216 22.6535 26.2631 21.5147L23.1045 18.4099C23.7835 17.0877 24.1667 15.5886 24.1667 14C24.1667 8.66129 19.8388 4.33337 14.5 4.33337ZM6.83337 14C6.83337 9.76586 10.2659 6.33337 14.5 6.33337C18.7342 6.33337 22.1667 9.76586 22.1667 14C22.1667 18.2342 18.7342 21.6667 14.5 21.6667C10.2659 21.6667 6.83337 18.2342 6.83337 14ZM21.9869 20.1154C21.5887 20.6023 21.144 21.0496 20.6595 21.4506L23.4939 24.2367C23.8647 24.6013 24.4659 24.6013 24.8368 24.2367C25.2076 23.8722 25.2076 23.2813 24.8368 22.9167L21.9869 20.1154Z" fill="#111928"/>
</svg>
