<svg width="24" height="24" viewBox="0 0 24 24" fill="none" xmlns="http://www.w3.org/2000/svg">
<path d="M2.5 5V19C2.5 19.5523 2.94771 20 3.5 20H7H9L7.5 14.5L11 13.5L10.5 10L14.5 8L13.5 6.5L15 4H3.5C2.94771 4 2.5 4.44771 2.5 5Z" fill="#C6CAD0"/>
<path fill-rule="evenodd" clip-rule="evenodd" d="M1.75 5C1.75 4.0335 2.5335 3.25 3.5 3.25H15C15.2702 3.25 15.5195 3.39534 15.6526 3.63048C15.7858 3.86561 15.7821 4.15417 15.6431 4.38587L14.3873 6.47889L15.124 7.58397C15.2434 7.76297 15.2801 7.98458 15.2249 8.1925C15.1697 8.40042 15.0278 8.57461 14.8354 8.67082L11.3189 10.4291L11.7425 13.3939C11.7955 13.765 11.5664 14.1182 11.206 14.2211L8.41855 15.0176L9.72357 19.8027C9.78508 20.0282 9.73792 20.2695 9.59603 20.4552C9.45414 20.641 9.23375 20.75 9 20.75H3.5C2.53351 20.75 1.75 19.9665 1.75 19V5ZM3.5 4.75C3.36193 4.75 3.25 4.86193 3.25 5V19C3.25 19.1381 3.36192 19.25 3.5 19.25H8.01806L6.77643 14.6973C6.66837 14.3011 6.89907 13.8917 7.29396 13.7789L10.165 12.9585L9.75754 10.1061C9.71188 9.78649 9.87585 9.47355 10.1646 9.32918L13.4047 7.70913L12.876 6.91603C12.7152 6.67487 12.7078 6.36266 12.8569 6.11413L13.6754 4.75H3.5Z" fill="#C6CAD0"/>
<path d="M21.5 19V5C21.5 4.44771 21.0523 4 20.5 4H19L17 7L18.5 9.5L14 11.5L14.5 15.5L11 16.5L12 20H20.5C21.0523 20 21.5 19.5523 21.5 19Z" fill="#C6CAD0"/>
<path fill-rule="evenodd" clip-rule="evenodd" d="M18.3759 3.58397C18.515 3.37533 18.7492 3.25 18.9999 3.25H20.4999C21.4665 3.25 22.2499 4.03351 22.2499 5V19C22.2499 19.9665 21.4665 20.75 20.4999 20.75H11.9999C11.6651 20.75 11.3708 20.528 11.2788 20.206L10.2788 16.706C10.165 16.3078 10.3956 15.8927 10.7939 15.7789L13.676 14.9554L13.2557 11.593C13.2147 11.265 13.3933 10.9489 13.6953 10.8146L17.4207 9.15894L16.3568 7.38587C16.2077 7.13734 16.2151 6.82513 16.3759 6.58397L18.3759 3.58397ZM19.4013 4.75L17.8873 7.02111L19.1431 9.11413C19.2536 9.29835 19.2798 9.52113 19.2151 9.72599C19.1504 9.93085 19.0009 10.0981 18.8046 10.1854L14.8132 11.9593L15.2442 15.407C15.29 15.7739 15.0616 16.1195 14.706 16.2211L11.9271 17.0151L12.5657 19.25H20.4999C20.638 19.25 20.7499 19.1381 20.7499 19V5C20.7499 4.86192 20.638 4.75 20.4999 4.75H19.4013Z" fill="#C6CAD0"/>
<path fill-rule="evenodd" clip-rule="evenodd" d="M7.25 9C7.6642 9 8 8.6642 8 8.25C8 7.8358 7.6642 7.5 7.25 7.5C6.8358 7.5 6.5 7.8358 6.5 8.25C6.5 8.6642 6.8358 9 7.25 9Z" fill="#C6CAD0"/>
<path fill-rule="evenodd" clip-rule="evenodd" d="M5.75 8.25C5.75 7.42159 6.42159 6.75 7.25 6.75C8.07841 6.75 8.75 7.42159 8.75 8.25C8.75 9.07841 8.07841 9.75 7.25 9.75C6.42159 9.75 5.75 9.07841 5.75 8.25Z" fill="white"/>
</svg>
