<svg width="33" height="32" viewBox="0 0 33 32" fill="none" xmlns="http://www.w3.org/2000/svg">
<path fill-rule="evenodd" clip-rule="evenodd" d="M16.9667 18V22.6667H18.2867V21.4267H19.0072L19.8533 22.6667H21.2667L20.2596 21.1992C20.5419 21.0633 20.7621 20.8769 20.92 20.64C21.0889 20.3822 21.1733 20.0778 21.1733 19.7267C21.1733 19.3711 21.0889 19.0644 20.92 18.8067C20.7511 18.5444 20.5111 18.3444 20.2 18.2067C19.8933 18.0689 19.5267 18 19.1 18H16.9667ZM18.2867 20.4067H19.02C19.2956 20.4067 19.5 20.3467 19.6333 20.2267C19.7711 20.1067 19.84 19.94 19.84 19.7267C19.84 19.5089 19.7711 19.34 19.6333 19.22C19.5 19.1 19.2956 19.04 19.02 19.04H18.2867V20.4067Z" fill="#111928"/>
<path fill-rule="evenodd" clip-rule="evenodd" d="M23.3282 22.5267C23.546 22.66 23.8082 22.7267 24.1149 22.7267C24.4438 22.7267 24.7416 22.6511 25.0082 22.5C25.2793 22.3489 25.4927 22.1333 25.6482 21.8533C25.8082 21.5733 25.8882 21.2422 25.8882 20.86C25.8882 20.4778 25.8082 20.1489 25.6482 19.8733C25.4927 19.5933 25.2793 19.3778 25.0082 19.2267C24.7416 19.0711 24.4438 18.9933 24.1149 18.9933C23.7905 18.9933 23.5193 19.06 23.3016 19.1933C23.2065 19.2527 23.1221 19.3262 23.0482 19.4138V19.0533H21.8416V23.96H23.1082V22.3471C23.1746 22.416 23.248 22.4759 23.3282 22.5267ZM24.2282 21.62C24.1171 21.6867 23.9905 21.72 23.8482 21.72C23.706 21.72 23.5771 21.6867 23.4616 21.62C23.3505 21.5533 23.2593 21.4556 23.1882 21.3267C23.1216 21.1978 23.0882 21.0422 23.0882 20.86C23.0882 20.6778 23.1216 20.5222 23.1882 20.3933C23.2593 20.2644 23.3505 20.1667 23.4616 20.1C23.5771 20.0333 23.706 20 23.8482 20C23.9905 20 24.1171 20.0333 24.2282 20.1C24.3438 20.1667 24.4349 20.2644 24.5016 20.3933C24.5727 20.5222 24.6082 20.6778 24.6082 20.86C24.6082 21.0422 24.5727 21.1978 24.5016 21.3267C24.4349 21.4556 24.3438 21.5533 24.2282 21.62Z" fill="#111928"/>
<path fill-rule="evenodd" clip-rule="evenodd" d="M7.02414 3.60798C8.80046 3.22734 11.2074 3 13.8333 3C16.4593 3 18.8662 3.22734 20.6425 3.60798C21.5225 3.79655 22.3017 4.03385 22.8851 4.32946C23.1753 4.47648 23.4679 4.663 23.7003 4.90631C23.9367 5.15392 24.1667 5.52331 24.1667 6V12.5333C27.4746 13.7538 29.8333 16.9348 29.8333 20.6667C29.8333 25.4531 25.9531 29.3333 21.1667 29.3333C19.2287 29.3333 17.4394 28.6973 15.9959 27.6225C15.5191 27.6512 15.0206 27.6667 14.5 27.6667C10.628 27.6667 7.15868 26.9467 5.21691 26.14C3.99604 25.6329 3.5 24.4187 3.5 23.3521V6.00003C3.5 5.52333 3.72995 5.15392 3.96641 4.90631C4.19875 4.663 4.49133 4.47648 4.78152 4.32946C5.36501 4.03385 6.14416 3.79655 7.02414 3.60798ZM5.93591 6C6.29667 6.14791 6.79997 6.29858 7.4432 6.43641C9.04488 6.77963 11.3047 7 13.8333 7C16.362 7 18.6218 6.77963 20.2235 6.43641C20.8667 6.29858 21.37 6.14791 21.7308 6C21.37 5.85209 20.8667 5.70142 20.2235 5.56359C18.6218 5.22037 16.362 5 13.8333 5C11.3047 5 9.04488 5.22037 7.4432 5.56359C6.79997 5.70142 6.29667 5.85209 5.93591 6ZM20.6425 8.39202C21.1989 8.2728 21.7149 8.13411 22.1667 7.97352V11.3572C21.6612 11.57 20.9817 11.8183 20.1713 12.0565C19.4364 12.1406 18.7294 12.3165 18.0621 12.5726C16.784 12.8246 15.3433 13 13.8333 13C10.2482 13 7.05281 12.011 5.5 11.3572V7.97352C5.95177 8.13411 6.46781 8.2728 7.02414 8.39202C8.80046 8.77266 11.2074 9 13.8333 9C16.4593 9 18.8662 8.77266 20.6425 8.39202ZM18.6351 14.4975C19.3225 14.3567 19.9662 14.1959 20.5545 14.0277C20.7561 14.0094 20.9603 14 21.1667 14C24.8486 14 27.8333 16.9848 27.8333 20.6667C27.8333 24.3486 24.8486 27.3333 21.1667 27.3333C17.4848 27.3333 14.5 24.3486 14.5 20.6667C14.5 17.8809 16.2087 15.4942 18.6351 14.4975ZM14.6214 14.9857C14.361 14.9951 14.0981 15 13.8333 15C10.4598 15 7.4087 14.2048 5.5 13.5046V18.0238C6.8665 18.5992 9.50502 19.4342 12.5618 19.6262C12.7729 17.8619 13.514 16.2605 14.6214 14.9857ZM12.5529 21.6293C9.69589 21.4642 7.16388 20.7817 5.5 20.1713V23.3521C5.5 23.8811 5.73135 24.188 5.98417 24.2931C7.56722 24.9507 10.5869 25.6144 14.0848 25.6638C13.2611 24.4985 12.7177 23.1209 12.5529 21.6293Z" fill="#111928"/>
</svg>
