<svg width="33" height="32" viewBox="0 0 33 32" fill="none" xmlns="http://www.w3.org/2000/svg">
<path fill-rule="evenodd" clip-rule="evenodd" d="M8.5 5.6665C5.73858 5.6665 3.5 7.90508 3.5 10.6665V19.9998C3.5 22.7613 5.73858 24.9998 8.5 24.9998H24.5C27.2614 24.9998 29.5 22.7613 29.5 19.9998V10.6665C29.5 7.90508 27.2614 5.6665 24.5 5.6665H8.5ZM5.5 10.6665C5.5 9.00965 6.84315 7.6665 8.5 7.6665H24.5C26.1569 7.6665 27.5 9.00965 27.5 10.6665V11.9998H5.5V10.6665ZM5.5 15.9998V19.9998C5.5 21.6567 6.84315 22.9998 8.5 22.9998H24.5C26.1569 22.9998 27.5 21.6567 27.5 19.9998V15.9998H5.5Z" fill="#111928"/>
</svg>
