<svg width="33" height="32" viewBox="0 0 33 32" fill="none" xmlns="http://www.w3.org/2000/svg">
<path fill-rule="evenodd" clip-rule="evenodd" d="M14.2147 19.2095H16.4335L16.446 19.0898L14.5762 16.6572C15.0304 16.5152 15.4251 16.2246 15.6981 15.831C15.9712 15.4374 16.1071 14.9632 16.0845 14.483C16.0845 13.1848 15.1372 12 13.3173 12H9.83333V19.2095H11.8526V16.8715H12.5507L14.2147 19.2095ZM11.8526 15.359V13.6322H13.3173C13.4285 13.6343 13.538 13.6596 13.639 13.7066C13.74 13.7537 13.8303 13.8214 13.9041 13.9055C13.9779 13.9896 14.0336 14.0883 14.0678 14.1953C14.1019 14.3023 14.1138 14.4153 14.1025 14.5271C14.1132 14.6342 14.1012 14.7424 14.0672 14.8444C14.0333 14.9464 13.9782 15.0399 13.9056 15.1186C13.833 15.1974 13.7447 15.2596 13.6464 15.301C13.5482 15.3425 13.4424 15.3622 13.336 15.359H11.8526Z" fill="#111928"/>
<path fill-rule="evenodd" clip-rule="evenodd" d="M17.4427 21.3333H19.3125L19.3187 18.7936C19.4969 18.9833 19.7146 19.1304 19.9561 19.2241C20.1977 19.3179 20.4569 19.356 20.7148 19.3356C21.0525 19.3404 21.3874 19.2735 21.6981 19.1394C22.0087 19.0053 22.2881 18.8069 22.5182 18.5569C22.7484 18.307 22.9242 18.011 23.0344 17.6882C23.1446 17.3653 23.1866 17.0227 23.1579 16.6824C23.1579 15.0754 22.3352 14.1364 20.8581 14.0419C20.552 14.0171 20.2443 14.0607 19.9567 14.1696C19.6691 14.2785 19.4088 14.4501 19.1941 14.6721L19.113 14.1238H17.4427V21.3333ZM21.2444 16.2565C21.287 16.3897 21.3019 16.5305 21.2882 16.6698C21.3019 16.8095 21.287 16.9506 21.2444 17.0842C21.2019 17.2178 21.1325 17.3411 21.0407 17.4463C20.9488 17.5516 20.8365 17.6366 20.7107 17.696C20.585 17.7554 20.4484 17.7879 20.3097 17.7916C20.1654 17.7872 20.0235 17.7527 19.893 17.6903C19.7625 17.6278 19.6462 17.5388 19.5514 17.4287C19.4566 17.3186 19.3853 17.1899 19.342 17.0506C19.2988 16.9113 19.2845 16.7645 19.3 16.6194C19.295 16.4819 19.3174 16.3448 19.3658 16.2162C19.4142 16.0875 19.4877 15.9701 19.5818 15.8707C19.676 15.7714 19.789 15.6922 19.914 15.6379C20.039 15.5835 20.1736 15.5551 20.3097 15.5544C20.4481 15.5572 20.5846 15.5889 20.7103 15.6476C20.8361 15.7063 20.9485 15.7907 21.0404 15.8955C21.1323 16.0003 21.2018 16.1232 21.2444 16.2565Z" fill="#111928"/>
<path fill-rule="evenodd" clip-rule="evenodd" d="M16.5 3C9.3203 3 3.5 8.8203 3.5 16C3.5 23.1797 9.3203 29 16.5 29C23.6797 29 29.5 23.1797 29.5 16C29.5 8.8203 23.6797 3 16.5 3ZM5.5 16C5.5 9.92487 10.4249 5 16.5 5C22.5751 5 27.5 9.92487 27.5 16C27.5 22.0751 22.5751 27 16.5 27C10.4249 27 5.5 22.0751 5.5 16Z" fill="#111928"/>
</svg>
