<svg width="33" height="32" viewBox="0 0 33 32" fill="none" xmlns="http://www.w3.org/2000/svg">
<path d="M7.28947 18.6665C7.28947 18.1142 7.73718 17.6665 8.28947 17.6665H13.3421C13.8944 17.6665 14.3421 18.1142 14.3421 18.6665C14.3421 19.2188 13.8944 19.6665 13.3421 19.6665H8.28947C7.73718 19.6665 7.28947 19.2188 7.28947 18.6665Z" fill="#111928"/>
<path fill-rule="evenodd" clip-rule="evenodd" d="M25.8333 18.6665C25.8333 20.1393 24.6394 21.3332 23.1667 21.3332C21.6939 21.3332 20.5 20.1393 20.5 18.6665C20.5 17.1937 21.6939 15.9998 23.1667 15.9998C24.6394 15.9998 25.8333 17.1937 25.8333 18.6665ZM23.8333 18.6665C23.8333 19.0347 23.5349 19.3332 23.1667 19.3332C22.7985 19.3332 22.5 19.0347 22.5 18.6665C22.5 18.2983 22.7985 17.9998 23.1667 17.9998C23.5349 17.9998 23.8333 18.2983 23.8333 18.6665Z" fill="#111928"/>
<path fill-rule="evenodd" clip-rule="evenodd" d="M8.5 5.6665C5.73858 5.6665 3.5 7.90508 3.5 10.6665V19.9998C3.5 22.7613 5.73858 24.9998 8.5 24.9998H24.5C27.2614 24.9998 29.5 22.7613 29.5 19.9998V10.6665C29.5 7.90508 27.2614 5.6665 24.5 5.6665H8.5ZM5.5 10.6665C5.5 9.00965 6.84315 7.6665 8.5 7.6665H24.5C26.1569 7.6665 27.5 9.00965 27.5 10.6665V12.3332H5.5V10.6665ZM5.5 14.3332V19.9998C5.5 21.6567 6.84315 22.9998 8.5 22.9998H24.5C26.1569 22.9998 27.5 21.6567 27.5 19.9998V14.3332H5.5Z" fill="#111928"/>
</svg>
