<svg width="33" height="32" viewBox="0 0 33 32" fill="none" xmlns="http://www.w3.org/2000/svg">
<path d="M9.83331 8.33317C9.28103 8.33317 8.83331 8.78089 8.83331 9.33317C8.83331 9.88546 9.28103 10.3332 9.83331 10.3332H15.1666C15.7189 10.3332 16.1666 9.88546 16.1666 9.33317C16.1666 8.78089 15.7189 8.33317 15.1666 8.33317H9.83331Z" fill="#111928"/>
<path fill-rule="evenodd" clip-rule="evenodd" d="M18.3 22.6665V17.9998H20.4333C20.86 17.9998 21.2266 18.0687 21.5333 18.2065C21.8444 18.3443 22.0844 18.5443 22.2533 18.8065C22.4222 19.0643 22.5066 19.371 22.5066 19.7265C22.5066 20.0776 22.4222 20.3821 22.2533 20.6398C22.0954 20.8768 21.8752 21.0632 21.5929 21.199L22.6 22.6665H21.1866L20.3405 21.4265H19.62V22.6665H18.3ZM20.3533 20.4065H19.62V19.0398H20.3533C20.6289 19.0398 20.8333 19.0998 20.9666 19.2198C21.1044 19.3398 21.1733 19.5087 21.1733 19.7265C21.1733 19.9398 21.1044 20.1065 20.9666 20.2265C20.8333 20.3465 20.6289 20.4065 20.3533 20.4065Z" fill="#111928"/>
<path fill-rule="evenodd" clip-rule="evenodd" d="M25.4482 22.7265C25.1415 22.7265 24.8793 22.6598 24.6615 22.5265C24.5813 22.4757 24.5079 22.4159 24.4415 22.347V23.9598H23.1749V19.0532H24.3815V19.4137C24.4554 19.3261 24.5399 19.2526 24.6349 19.1932C24.8527 19.0598 25.1238 18.9932 25.4482 18.9932C25.7771 18.9932 26.0749 19.071 26.3415 19.2265C26.6127 19.3776 26.826 19.5932 26.9815 19.8732C27.1415 20.1487 27.2215 20.4776 27.2215 20.8598C27.2215 21.2421 27.1415 21.5732 26.9815 21.8532C26.826 22.1332 26.6127 22.3487 26.3415 22.4998C26.0749 22.651 25.7771 22.7265 25.4482 22.7265ZM25.1815 21.7198C25.3238 21.7198 25.4504 21.6865 25.5615 21.6198C25.6771 21.5532 25.7682 21.4554 25.8349 21.3265C25.906 21.1976 25.9415 21.0421 25.9415 20.8598C25.9415 20.6776 25.906 20.5221 25.8349 20.3932C25.7682 20.2643 25.6771 20.1665 25.5615 20.0998C25.4504 20.0332 25.3238 19.9998 25.1815 19.9998C25.0393 19.9998 24.9104 20.0332 24.7949 20.0998C24.6838 20.1665 24.5927 20.2643 24.5215 20.3932C24.4549 20.5221 24.4215 20.6776 24.4215 20.8598C24.4215 21.0421 24.4549 21.1976 24.5215 21.3265C24.5927 21.4554 24.6838 21.5532 24.7949 21.6198C24.9104 21.6865 25.0393 21.7198 25.1815 21.7198Z" fill="#111928"/>
<path fill-rule="evenodd" clip-rule="evenodd" d="M23.1666 28.9998C23.2874 28.9998 23.4032 28.9784 23.5103 28.9392C27.6362 28.4406 30.8333 24.9269 30.8333 20.6665C30.8333 17.6513 29.232 15.0101 26.8333 13.547V10.4255C26.8333 9.4951 26.4797 8.59954 25.844 7.92021L21.079 2.82792C20.3857 2.087 19.4164 1.6665 18.4017 1.6665H9.83331C7.07189 1.6665 4.83331 3.90508 4.83331 6.6665V23.9998C4.83331 26.7613 7.07189 28.9998 9.83331 28.9998L22.5 28.9998L23.1666 28.9998ZM17.0837 26.9998H9.83331C8.17646 26.9998 6.83331 25.6567 6.83331 23.9998L6.83331 6.6665C6.83331 5.00965 8.17646 3.6665 9.83331 3.6665L18.1666 3.6665V6.66651C18.1666 8.69155 19.8083 10.3332 21.8333 10.3332H24.8308C24.8325 10.3638 24.8333 10.3946 24.8333 10.4255L24.8333 12.6643C24.0929 12.4487 23.3099 12.3332 22.5 12.3332C20.8269 12.3332 19.269 12.8262 17.9636 13.6749C17.921 13.6694 17.8775 13.6665 17.8333 13.6665H9.83331C9.28103 13.6665 8.83331 14.1142 8.83331 14.6665C8.83331 15.2188 9.28103 15.6665 9.83331 15.6665H15.8327C15.3763 16.2741 15.001 16.9461 14.723 17.6665H9.83331C9.28103 17.6665 8.83331 18.1142 8.83331 18.6665C8.83331 19.2188 9.28103 19.6665 9.83331 19.6665H14.226C14.1868 19.9944 14.1666 20.3281 14.1666 20.6665C14.1666 23.2011 15.2982 25.4714 17.0837 26.9998ZM22.4922 26.9998C18.998 26.9956 16.1666 24.1617 16.1666 20.6665C16.1666 17.1687 19.0022 14.3332 22.5 14.3332C25.9978 14.3332 28.8333 17.1687 28.8333 20.6665C28.8333 24.1617 26.002 26.9957 22.5077 26.9998L22.5 26.9998L22.4922 26.9998ZM23.4914 8.33317L20.1666 4.78004V6.66651C20.1666 7.58698 20.9128 8.33317 21.8333 8.33317H23.4914Z" fill="#111928"/>
</svg>
