<svg width="33" height="32" viewBox="0 0 33 32" fill="none" xmlns="http://www.w3.org/2000/svg">
<path fill-rule="evenodd" clip-rule="evenodd" d="M14.7514 21.9371H16.5668L16.5769 21.8385L15.0471 19.8352C15.4188 19.7183 15.7417 19.4789 15.9651 19.1548C16.1885 18.8307 16.2997 18.4401 16.2812 18.0447C16.2812 16.9755 15.5061 15.9998 14.0171 15.9998H11.1666V21.9371H12.8188V20.0117H13.3899L14.7514 21.9371ZM12.8188 18.7661V17.344H14.0171C14.1081 17.3457 14.1977 17.3666 14.2803 17.4053C14.363 17.444 14.4368 17.4998 14.4972 17.5691C14.5576 17.6383 14.6032 17.7196 14.6312 17.8077C14.6591 17.8958 14.6688 17.9889 14.6596 18.081C14.6683 18.1692 14.6585 18.2583 14.6307 18.3423C14.6029 18.4263 14.5578 18.5033 14.4985 18.5681C14.4391 18.633 14.3668 18.6842 14.2864 18.7183C14.2061 18.7525 14.1194 18.7687 14.0324 18.7661H12.8188Z" fill="#111928"/>
<path fill-rule="evenodd" clip-rule="evenodd" d="M17.3925 23.6861H18.9223L18.9273 21.5946C19.0731 21.7508 19.2513 21.8719 19.4489 21.9491C19.6465 22.0263 19.8586 22.0577 20.0696 22.0409C20.3459 22.0448 20.62 21.9898 20.8741 21.8794C21.1283 21.7689 21.3569 21.6055 21.5452 21.3997C21.7335 21.1938 21.8774 20.9501 21.9675 20.6842C22.0576 20.4184 22.092 20.1362 22.0685 19.8559C22.0685 18.5325 21.3954 17.7592 20.1869 17.6814C19.9364 17.661 19.6846 17.6969 19.4493 17.7866C19.2141 17.8763 19.0011 18.0175 18.8254 18.2004L18.7591 17.7488H17.3925V23.6861ZM20.5029 19.5052C20.5378 19.6149 20.55 19.7308 20.5387 19.8456C20.55 19.9606 20.5378 20.0768 20.503 20.1868C20.4681 20.2968 20.4114 20.3984 20.3362 20.4851C20.2611 20.5717 20.1692 20.6417 20.0663 20.6907C19.9634 20.7396 19.8517 20.7664 19.7381 20.7694C19.6201 20.7658 19.504 20.7374 19.3972 20.6859C19.2905 20.6345 19.1953 20.5612 19.1178 20.4705C19.0402 20.3799 18.9819 20.2738 18.9465 20.1592C18.9111 20.0445 18.8994 19.9236 18.9121 19.8041C18.908 19.6908 18.9263 19.5779 18.9659 19.472C19.0055 19.3661 19.0656 19.2693 19.1427 19.1875C19.2197 19.1057 19.3121 19.0405 19.4144 18.9957C19.5167 18.951 19.6268 18.9276 19.7381 18.927C19.8515 18.9293 19.9631 18.9554 20.066 19.0037C20.1689 19.0521 20.2608 19.1216 20.336 19.2079C20.4112 19.2942 20.4681 19.3954 20.5029 19.5052Z" fill="#111928"/>
<path fill-rule="evenodd" clip-rule="evenodd" d="M14.323 2.9687C14.7969 2.13282 15.7001 1.6665 16.7264 1.6665C17.6936 1.6665 18.4215 2.19997 18.8868 2.7044C19.0137 2.84189 19.1291 2.98564 19.2333 3.1304C19.9573 2.75882 20.6738 2.66107 21.3401 2.7797C22.2602 2.94351 22.9362 3.4944 23.2976 3.9725C23.5127 4.25694 23.56 4.63438 23.4218 4.96311L21.7333 8.97964C22.1528 9.36998 22.8271 10.0721 23.9371 11.3471C25.2817 12.8917 26.9688 15.6676 27.6435 18.6448C28.3237 21.6465 28 25.0541 24.9856 27.4529C22.2715 29.6127 19.2807 29.6675 16.813 29.6703L16.5162 29.6704C16.4862 29.6704 16.4566 29.6691 16.4273 29.6665L16.2032 29.6664C13.7355 29.6636 10.7447 29.6088 8.03054 27.449C5.01613 25.0503 4.69245 21.6427 5.3727 18.641C6.04739 15.6638 7.73451 12.8878 9.07905 11.3433C10.1967 10.0594 10.8727 9.35644 11.2915 8.96773L10.2512 6.22827C9.67134 4.70139 10.7992 3.06657 12.4325 3.06657H14.2703C14.2871 3.03368 14.3046 3.00106 14.323 2.9687ZM20.0407 10.5424C18.9573 10.8763 17.9798 11.0766 16.9924 11.1232C16.8176 11.1328 16.643 11.1376 16.4682 11.1376C15.2263 11.1374 14.0271 10.8921 12.644 10.4411C12.3115 10.7504 11.6938 11.3857 10.5875 12.6565C9.41869 13.9991 7.91209 16.4846 7.32324 19.083C6.73994 21.6569 7.08292 24.139 9.27587 25.884C11.3951 27.5704 13.7304 27.6636 16.2055 27.6664L16.5 27.6665C16.5297 27.6665 16.5591 27.6678 16.5882 27.6704L16.8107 27.6703C19.2858 27.6674 21.621 27.5743 23.7403 25.8879C25.9332 24.1428 26.2762 21.6607 25.6929 19.0869C25.1041 16.4885 23.5975 14.003 22.4286 12.6603C21.3186 11.3852 20.7004 10.7499 20.3687 10.4417C20.2582 10.4765 20.1489 10.5101 20.0407 10.5424ZM16.8916 9.12574C17.6569 9.08298 18.4713 8.92335 19.4609 8.62821C19.5557 8.59894 19.6521 8.56833 19.7501 8.53636L21.2985 4.85308C21.2053 4.8061 21.1013 4.76863 20.9895 4.74873C20.7124 4.69938 20.2298 4.72875 19.5529 5.32563C19.3066 5.54284 18.9693 5.62525 18.6505 5.54611C18.3318 5.46698 18.0722 5.23638 17.9561 4.92919C17.8726 4.70816 17.6815 4.34744 17.4167 4.06042C17.1483 3.7694 16.914 3.6665 16.7264 3.6665C16.3094 3.6665 16.13 3.83655 16.0627 3.95522C15.9932 4.07785 15.9361 4.33625 16.1529 4.7187L16.8746 5.99143C17.1471 6.47185 16.9785 7.08215 16.498 7.35457C16.0176 7.627 15.4073 7.45839 15.1349 6.97797L14.4132 5.70523C14.2956 5.49779 14.2022 5.2836 14.1342 5.06657H12.4325C12.1992 5.06657 12.0381 5.30011 12.1209 5.51824L13.2669 8.53608C14.5795 8.94772 15.5847 9.13386 16.5477 9.13372C16.6619 9.13371 16.7764 9.13107 16.8916 9.12574Z" fill="#111928"/>
</svg>
