<svg width="33" height="32" viewBox="0 0 33 32" fill="none" xmlns="http://www.w3.org/2000/svg">
<path d="M25.0792 3.22621C24.9781 2.68334 24.4558 2.32518 23.9128 2.42625C23.3698 2.52732 23.0116 3.04934 23.1127 3.59221L23.5349 5.85817C21.1802 4.33211 18.3135 3.66032 15.7332 3.80783C12.5637 3.989 9.46249 5.39123 7.20074 7.96429C5.92912 9.41093 5.05767 11.0748 4.57993 12.818C4.24696 14.033 4.10547 15.2856 4.15209 16.5298C4.17277 17.0815 4.63705 17.5121 5.1891 17.4914C5.74115 17.4707 6.17191 17.0066 6.15123 16.4549C6.11215 15.4119 6.23082 14.3627 6.50941 13.3461C6.90867 11.8893 7.63682 10.4976 8.70364 9.28392C10.5975 7.1294 13.1907 5.95588 15.8473 5.80402C18.1761 5.6709 20.7707 6.33384 22.7929 7.77118L19.5619 7.44797C19.0123 7.39299 18.5222 7.79385 18.4672 8.34331C18.4123 8.89277 18.8133 9.38277 19.3629 9.43775L24.1556 9.91716C25.2613 10.0278 26.1636 9.0462 25.9601 7.95402L25.0792 3.22621Z" fill="#111928"/>
<path d="M8.3407 29.1206C8.59985 29.6083 9.20549 29.794 9.69343 29.5353C10.1814 29.2766 10.3668 28.6715 10.1077 28.1837L8.7792 25.6837C11.2558 27.6577 14.2881 28.527 17.2472 28.3317C20.3787 28.1249 23.4349 26.7255 25.6708 24.1819C27.9907 21.5426 28.9746 18.1868 28.676 14.946C28.6253 14.3962 28.1383 13.9915 27.5882 14.0422C27.0381 14.0928 26.6332 14.5796 26.6839 15.1294C26.9342 17.8461 26.1103 20.6525 24.1678 22.8623C22.2957 24.9922 19.7401 26.1633 17.1154 26.3366C14.5576 26.5054 11.9404 25.7262 9.83231 23.9617L12.3402 23.4435C12.8812 23.3317 13.2288 22.8028 13.1166 22.2622C13.0044 21.7215 12.475 21.3739 11.934 21.4856L7.21739 22.4603C6.12902 22.6852 5.56204 23.8913 6.08342 24.8725L8.3407 29.1206Z" fill="#111928"/>
<path fill-rule="evenodd" clip-rule="evenodd" d="M14.2166 19.2069H16.4357L16.4481 19.0872L14.5781 16.655C15.0324 16.513 15.4271 16.2224 15.7002 15.8289C15.9733 15.4353 16.1092 14.9612 16.0866 14.4811C16.0866 13.183 15.1392 11.9984 13.319 11.9984H9.8346V19.2069H11.8542V16.8692H12.5523L14.2166 19.2069ZM11.8542 15.3569V13.6304H13.319C13.4302 13.6325 13.5398 13.6578 13.6408 13.7048C13.7418 13.7518 13.8321 13.8195 13.9059 13.9036C13.9797 13.9877 14.0355 14.0864 14.0696 14.1933C14.1038 14.3003 14.1156 14.4133 14.1044 14.5252C14.1151 14.6323 14.1031 14.7404 14.0691 14.8424C14.0351 14.9444 13.98 15.0379 13.9074 15.1166C13.8349 15.1953 13.7465 15.2575 13.6482 15.299C13.55 15.3404 13.4441 15.3602 13.3377 15.3569H11.8542Z" fill="#111928"/>
<path fill-rule="evenodd" clip-rule="evenodd" d="M17.4451 21.3304H19.3151L19.3213 18.7911C19.4995 18.9807 19.7173 19.1278 19.9588 19.2215C20.2004 19.3153 20.4596 19.3533 20.7176 19.333C21.0553 19.3377 21.3903 19.2709 21.701 19.1368C22.0117 19.0027 22.2911 18.8043 22.5213 18.5544C22.7515 18.3045 22.9273 18.0086 23.0375 17.6858C23.1477 17.363 23.1898 17.0204 23.161 16.6802C23.161 15.0734 22.3382 14.1345 20.8609 14.04C20.5548 14.0152 20.247 14.0588 19.9594 14.1677C19.6717 14.2766 19.4114 14.4481 19.1966 14.6701L19.1156 14.1219H17.4451V21.3304ZM21.2473 16.2543C21.2899 16.3875 21.3048 16.5282 21.291 16.6676C21.3048 16.8073 21.2899 16.9483 21.2473 17.0819C21.2047 17.2155 21.1353 17.3387 21.0435 17.444C20.9517 17.5492 20.8393 17.6342 20.7135 17.6936C20.5877 17.753 20.4512 17.7855 20.3124 17.7892C20.1681 17.7848 20.0262 17.7503 19.8957 17.6879C19.7652 17.6254 19.6489 17.5364 19.554 17.4263C19.4592 17.3163 19.3879 17.1875 19.3446 17.0483C19.3014 16.9091 19.287 16.7623 19.3026 16.6172C19.2976 16.4797 19.3199 16.3426 19.3684 16.214C19.4168 16.0854 19.4903 15.9679 19.5845 15.8686C19.6786 15.7693 19.7916 15.6901 19.9167 15.6358C20.0417 15.5814 20.1763 15.553 20.3124 15.5523C20.4509 15.5551 20.5873 15.5868 20.7131 15.6455C20.8389 15.7042 20.9513 15.7886 21.0432 15.8934C21.1352 15.9981 21.2046 16.121 21.2473 16.2543Z" fill="#111928"/>
</svg>
