<svg width="33" height="32" viewBox="0 0 33 32" fill="none" xmlns="http://www.w3.org/2000/svg">
<path d="M21.8959 0.937177C21.6398 0.447854 21.0356 0.258961 20.5464 0.515271C20.0572 0.771582 19.8682 1.37604 20.1243 1.86536L21.1741 3.87117C19.7926 3.33739 18.296 3.0327 16.7309 3.0043C13.6775 2.94891 10.8512 3.95235 8.60202 5.67678C7.524 6.49982 6.60071 7.47359 5.84798 8.55295C4.61363 10.3168 3.80505 12.4034 3.57445 14.6657C3.47619 15.6124 3.48144 16.5748 3.59623 17.5358C4.3311 23.7781 9.49995 28.6977 15.9127 28.9827C17.1369 29.0397 18.3795 28.9234 19.6042 28.6213C20.4383 28.4161 21.2413 28.1302 22.0041 27.7722C22.0433 27.7539 22.0824 27.7353 22.1214 27.7166C28.5905 24.614 31.3173 16.8531 28.2128 10.3825C27.9739 9.88457 27.3766 9.67449 26.8786 9.9133C26.3807 10.1521 26.1707 10.7494 26.4096 11.2474C27.1558 12.8026 27.5038 14.4458 27.4943 16.0618C27.4873 16.1063 27.4834 16.1519 27.4825 16.1983C27.4012 20.6855 24.6452 24.4958 20.7637 26.1351C20.3447 26.3117 19.9202 26.4603 19.4925 26.5816C18.478 26.8689 17.4048 27.0138 16.2962 26.9937C16.2237 26.9924 16.1514 26.9904 16.0792 26.9877C12.1401 26.8317 8.41506 24.5558 6.59046 20.7528C6.00844 19.5397 5.66865 18.2731 5.55185 17.0076C5.51579 16.6105 5.5009 16.2075 5.50829 15.7996C5.51251 15.5664 5.52396 15.3351 5.54241 15.1058C5.70891 13.0779 6.43643 11.1256 7.64289 9.48218C8.21694 8.70269 8.89113 8.00219 9.64607 7.39939C10.2807 6.89449 10.9816 6.45246 11.7438 6.08688C13.6198 5.18712 15.6214 4.86761 17.5492 5.05531C17.5743 5.05776 17.5992 5.05925 17.624 5.05982C18.9584 5.19604 20.2194 5.57014 21.366 6.13833L17.7402 6.86871C17.1989 6.97776 16.8483 7.50514 16.9572 8.04666C17.0661 8.58818 17.5932 8.93876 18.1345 8.82971L23.0958 7.83031C24.1849 7.61092 24.7587 6.40709 24.2435 5.42265L21.8959 0.937177Z" fill="#111928"/>
<path fill-rule="evenodd" clip-rule="evenodd" d="M16.4321 19.2114H14.2135L12.5496 16.8732H11.8516V19.2114H9.83251V12.0012H13.3161C15.1358 12.0012 16.0831 13.1861 16.0831 14.4844C16.1057 14.9647 15.9698 15.4389 15.6968 15.8326C15.4238 16.2262 15.0291 16.5168 14.575 16.6589L16.4445 19.0917L16.4321 19.2114ZM11.8516 13.6336V15.3605H13.3348C13.4412 15.3638 13.547 15.344 13.6453 15.3025C13.7435 15.2611 13.8319 15.1989 13.9044 15.1201C13.977 15.0414 14.0321 14.9479 14.066 14.8459C14.1 14.7438 14.112 14.6357 14.1013 14.5286C14.1125 14.4167 14.1007 14.3037 14.0666 14.1967C14.0324 14.0897 13.9766 13.991 13.9029 13.9069C13.8291 13.8228 13.7388 13.755 13.6378 13.708C13.5368 13.661 13.4273 13.6356 13.3161 13.6336H11.8516Z" fill="#111928"/>
<path fill-rule="evenodd" clip-rule="evenodd" d="M19.3108 21.3354H17.4412V14.1252H19.1114L19.1924 14.6735C19.4071 14.4515 19.6674 14.28 19.9549 14.1711C20.2425 14.0621 20.5502 14.0185 20.8563 14.0433C22.3332 14.1378 23.1558 15.0769 23.1558 16.6841C23.1846 17.0244 23.1425 17.367 23.0324 17.6899C22.9222 18.0128 22.7464 18.3088 22.5163 18.5587C22.2861 18.8087 22.0067 19.0072 21.6962 19.1413C21.3856 19.2754 21.0506 19.3422 20.7129 19.3375C20.4551 19.3578 20.1959 19.3198 19.9544 19.226C19.7129 19.1322 19.4951 18.9851 19.317 18.7955L19.3108 21.3354ZM21.2863 16.6715C21.3001 16.5321 21.2852 16.3913 21.2425 16.2581C21.1999 16.1248 21.1305 16.0019 21.0385 15.8971C20.9466 15.7923 20.8342 15.7079 20.7085 15.6492C20.5828 15.5904 20.4463 15.5587 20.3079 15.5559C20.1718 15.5567 20.0373 15.5851 19.9122 15.6394C19.7872 15.6938 19.6743 15.773 19.5801 15.8723C19.4859 15.9717 19.4125 16.0891 19.3641 16.2178C19.3157 16.3464 19.2933 16.4835 19.2983 16.6211C19.2828 16.7662 19.2971 16.913 19.3403 17.0523C19.3836 17.1916 19.4549 17.3203 19.5497 17.4304C19.6445 17.5405 19.7608 17.6295 19.8912 17.692C20.0217 17.7545 20.1636 17.789 20.3079 17.7933C20.4466 17.7897 20.5832 17.7571 20.7089 17.6977C20.8347 17.6383 20.947 17.5533 21.0388 17.448C21.1306 17.3428 21.2 17.2195 21.2426 17.0859C21.2851 16.9522 21.3 16.8112 21.2863 16.6715Z" fill="#111928"/>
</svg>
