<svg width="32" height="32" viewBox="0 0 32 32" fill="none" xmlns="http://www.w3.org/2000/svg">
<path fill-rule="evenodd" clip-rule="evenodd" d="M13.1785 3.33337C12.5276 2.6825 11.4723 2.6825 10.8215 3.33337L4.43095 9.7239C3.38101 10.7738 4.12462 12.5691 5.60946 12.5691H6.99999V19C6.99999 19.5523 7.4477 20 7.99999 20C8.55227 20 8.99999 19.5523 8.99999 19V12.2357C8.99999 11.3153 8.25379 10.5691 7.33332 10.5691H6.4142L12 4.98329L17.5858 10.5691H16.6667C15.7462 10.5691 15 11.3153 15 12.2357V16.0001L15 19.431H13.6095C12.1247 19.431 11.3811 21.2263 12.431 22.2762L18.8215 28.6667C19.4724 29.3176 20.5277 29.3176 21.1785 28.6667L27.5691 22.2762C28.619 21.2263 27.8754 19.431 26.3905 19.431H25V13C25 12.4478 24.5523 12 24 12C23.4477 12 23 12.4478 23 13V19.7644C23 20.6848 23.7462 21.431 24.6667 21.431H25.5858L20 27.0168L14.4142 21.431H15.3334C16.2538 21.431 17 20.6848 17 19.7644L17 16.0001V12.5691H18.3905C19.8754 12.5691 20.619 10.7738 19.569 9.72389L13.1785 3.33337Z" fill="black"/>
</svg>
