<svg width="33" height="32" viewBox="0 0 33 32" fill="none" xmlns="http://www.w3.org/2000/svg">
<path d="M27.1667 1.6665C27.719 1.6665 28.1667 2.11422 28.1667 2.6665V4.33317H29.8334C30.3857 4.33317 30.8334 4.78089 30.8334 5.33317C30.8334 5.88546 30.3857 6.33317 29.8334 6.33317H28.1667V7.99984C28.1667 8.55212 27.719 8.99984 27.1667 8.99984C26.6144 8.99984 26.1667 8.55212 26.1667 7.99984V6.33317H24.5C23.9478 6.33317 23.5 5.88546 23.5 5.33317C23.5 4.78089 23.9478 4.33317 24.5 4.33317H26.1667V2.6665C26.1667 2.11422 26.6144 1.6665 27.1667 1.6665Z" fill="#111928"/>
<path fill-rule="evenodd" clip-rule="evenodd" d="M21.5 9.53526C21.5 6.84754 18.704 5.07316 16.2721 6.21759L8.74091 9.76169L8.75136 9.78389C6.51011 10.2783 4.83337 12.2766 4.83337 14.6665V23.9998C4.83337 26.7613 7.07195 28.9998 9.83337 28.9998H23.1667C25.9281 28.9998 28.1667 26.7613 28.1667 23.9998V14.6665C28.1667 11.9051 25.9281 9.6665 23.1667 9.6665H21.5V9.53526ZM26.1667 14.9998V14.6665C26.1667 13.0096 24.8236 11.6665 23.1667 11.6665H9.83337C8.17652 11.6665 6.83337 13.0097 6.83337 14.6665V23.9998C6.83337 25.6567 8.17652 26.9998 9.83337 26.9998H23.1667C24.8236 26.9998 26.1667 25.6567 26.1667 23.9998V22.3332H21.8334C19.8083 22.3332 18.1667 20.6915 18.1667 18.6665C18.1667 16.6415 19.8083 14.9998 21.8334 14.9998H26.1667ZM26.1667 20.3332H21.8334C20.9129 20.3332 20.1667 19.587 20.1667 18.6665C20.1667 17.746 20.9129 16.9998 21.8334 16.9998H26.1667V20.3332ZM19.5 9.6665H13.6402L17.1237 8.02723C18.2291 7.50703 19.5 8.31356 19.5 9.53526V9.6665Z" fill="#111928"/>
</svg>
