<svg width="33" height="32" viewBox="0 0 33 32" fill="none" xmlns="http://www.w3.org/2000/svg">
<path d="M3.5 12C3.5 9.23858 5.73858 7 8.5 7H24.5C27.2614 7 29.5 9.23858 29.5 12V17.1765C29.5 19.9379 27.2614 22.1765 24.5 22.1765H21.9545C21.4023 22.1765 20.9545 21.7288 20.9545 21.1765C20.9545 20.6242 21.4023 20.1765 21.9545 20.1765H24.5C26.1569 20.1765 27.5 18.8333 27.5 17.1765V12C27.5 10.3431 26.1569 9 24.5 9H8.5C6.84315 9 5.5 10.3431 5.5 12V17.1765C5.5 18.8333 6.84315 20.1765 8.5 20.1765H11.0455C11.5977 20.1765 12.0455 20.6242 12.0455 21.1765C12.0455 21.7288 11.5977 22.1765 11.0455 22.1765H8.5C5.73858 22.1765 3.5 19.9379 3.5 17.1765V12Z" fill="#111928"/>
<path fill-rule="evenodd" clip-rule="evenodd" d="M14.6303 17.2313H16.4457L16.4559 17.1327L14.9261 15.1294C15.2978 15.0125 15.6207 14.7731 15.844 14.449C16.0674 14.1249 16.1786 13.7344 16.1601 13.3389C16.1601 12.2698 15.3851 11.2941 13.8961 11.2941H11.0456V17.2313H12.6977V15.3059H13.2689L14.6303 17.2313ZM12.6977 14.0603V12.6383H13.8961C13.987 12.64 14.0767 12.6608 14.1593 12.6995C14.2419 12.7383 14.3158 12.794 14.3762 12.8633C14.4365 12.9326 14.4822 13.0138 14.5101 13.1019C14.5381 13.19 14.5477 13.2831 14.5386 13.3752C14.5473 13.4634 14.5375 13.5525 14.5097 13.6365C14.4819 13.7205 14.4368 13.7975 14.3774 13.8624C14.3181 13.9272 14.2458 13.9784 14.1654 14.0126C14.085 14.0467 13.9984 14.063 13.9114 14.0603H12.6977Z" fill="#111928"/>
<path fill-rule="evenodd" clip-rule="evenodd" d="M17.2715 18.9803H18.8012L18.8063 16.8888C18.9521 17.045 19.1303 17.1661 19.3279 17.2433C19.5255 17.3206 19.7375 17.3519 19.9486 17.3351C20.2249 17.3391 20.4989 17.284 20.7531 17.1736C21.0072 17.0631 21.2358 16.8997 21.4241 16.6939C21.6125 16.488 21.7563 16.2443 21.8465 15.9785C21.9366 15.7126 21.971 15.4304 21.9475 15.1502C21.9475 13.8267 21.2744 13.0534 20.0658 12.9756C19.8154 12.9552 19.5636 12.9911 19.3283 13.0808C19.093 13.1705 18.88 13.3118 18.7043 13.4946L18.6381 13.0431H17.2715V18.9803ZM20.3819 14.7994C20.4168 14.9091 20.429 15.025 20.4177 15.1398C20.429 15.2549 20.4168 15.371 20.3819 15.481C20.3471 15.5911 20.2903 15.6926 20.2152 15.7793C20.1401 15.866 20.0482 15.936 19.9453 15.9849C19.8424 16.0338 19.7307 16.0606 19.6171 16.0636C19.499 16.06 19.383 16.0316 19.2762 15.9802C19.1694 15.9287 19.0743 15.8554 18.9967 15.7647C18.9191 15.6741 18.8608 15.5681 18.8254 15.4534C18.79 15.3387 18.7783 15.2178 18.791 15.0983C18.7869 14.985 18.8052 14.8721 18.8448 14.7662C18.8845 14.6603 18.9446 14.5635 19.0216 14.4817C19.0987 14.3999 19.1911 14.3347 19.2934 14.29C19.3957 14.2452 19.5058 14.2218 19.6171 14.2212C19.7304 14.2235 19.842 14.2496 19.9449 14.298C20.0478 14.3463 20.1398 14.4158 20.215 14.5021C20.2902 14.5884 20.347 14.6896 20.3819 14.7994Z" fill="#111928"/>
<path d="M17.5 21.1765C17.5 20.6242 17.0523 20.1765 16.5 20.1765C15.9477 20.1765 15.5 20.6242 15.5 21.1765V24.2412L15.0277 23.7658C14.6384 23.374 14.0053 23.3719 13.6135 23.7612C13.2217 24.1504 13.2196 24.7836 13.6089 25.1754L15.7907 27.3715C15.9784 27.5604 16.2338 27.6667 16.5001 27.6667C16.7664 27.6667 17.0218 27.5604 17.2095 27.3715L19.3913 25.1754C19.7806 24.7836 19.7785 24.1504 19.3867 23.7612C18.9949 23.3719 18.3618 23.374 17.9725 23.7658L17.5 24.2414V21.1765Z" fill="#111928"/>
</svg>
