<svg width="44" height="44" viewBox="0 0 44 44" fill="none" xmlns="http://www.w3.org/2000/svg">
<path d="M22 7.33334C23.945 7.33334 25.8102 8.10596 27.1855 9.48123C28.5608 10.8565 29.3334 12.7218 29.3334 14.6667C29.3334 16.6116 28.5608 18.4769 27.1855 19.8521C25.8102 21.2274 23.945 22 22 22C20.0551 22 18.1899 21.2274 16.8146 19.8521C15.4393 18.4769 14.6667 16.6116 14.6667 14.6667C14.6667 12.7218 15.4393 10.8565 16.8146 9.48123C18.1899 8.10596 20.0551 7.33334 22 7.33334ZM22 36.6667C22 36.6667 36.6667 36.6667 36.6667 33C36.6667 28.6 29.5167 23.8333 22 23.8333C14.4834 23.8333 7.33337 28.6 7.33337 33C7.33337 36.6667 22 36.6667 22 36.6667Z" fill="#8E95A3"/>
</svg>
